<?xml version="1.0" encoding="utf-8"?>
<!-- Generator: Adobe Illustrator 25.0.0, SVG Export Plug-In . SVG Version: 6.00 Build 0)  -->
<svg version="1.1" xmlns="http://www.w3.org/2000/svg" xmlns:xlink="http://www.w3.org/1999/xlink" x="0px" y="0px"
	 viewBox="0 0 1410 400" style="enable-background:new 0 0 1410 400;" xml:space="preserve">
<style type="text/css">
	.st0{fill:#005140;}
	.st1{fill:#4A7E68;}
	.st2{fill:#215F46;}
	.st3{fill:#FFFFFF;}
	.st4{fill:#246047;}
	.st5{fill:#497D68;}
	.st6{fill:none;}
</style>
<g id="OUT">
	<path class="st0" d="M1268.6,351.7c-3.9,0-7.7-2.3-9.3-6.2c-2.1-5.1,0.4-11,5.5-13l131.4-53.8c5.1-2.1,11,0.4,13,5.5
		c2.1,5.1-0.4,11-5.5,13L1272.4,351C1271.2,351.5,1269.9,351.7,1268.6,351.7z"/>
</g>
<g data-group="AXEL_axes">
	<g>
		<g>
			<path class="st1" d="M19.8,291.7v71.2c0,4.4,3.6,8,8,8h3.4v7.1c0,2.2,1.8,3.9,3.9,3.9h14.3c2.2,0,3.9-1.8,3.9-3.9v-7.1H127v7.1
				c0,2.2,1.8,3.9,3.9,3.9h14.3c2.2,0,3.9-1.8,3.9-3.9v-7.1h73.7v7.1c0,2.2,1.8,3.9,3.9,3.9H241c2.2,0,3.9-1.8,3.9-3.9v-7.1h73.7
				v7.1c0,2.2,1.8,3.9,3.9,3.9h14.3c2.2,0,3.9-1.8,3.9-3.9v-7.1h73.7v7.1c0,2.2,1.8,3.9,3.9,3.9h14.3c2.2,0,3.9-1.8,3.9-3.9v-7.1
				h73.7v7.1c0,2.2,1.8,3.9,3.9,3.9h14.3c2.2,0,3.9-1.8,3.9-3.9v-7.1h73.7v7.1c0,2.2,1.8,3.9,3.9,3.9h14.3c2.2,0,3.9-1.8,3.9-3.9
				v-7.1h73.7v7.1c0,2.2,1.8,3.9,3.9,3.9h14.3c2.2,0,3.9-1.8,3.9-3.9v-7.1h73.7v7.1c0,2.2,1.8,3.9,3.9,3.9h14.3
				c2.2,0,3.9-1.8,3.9-3.9v-7.1h73.7v7.1c0,2.2,1.8,3.9,3.9,3.9h14.3c2.2,0,3.9-1.8,3.9-3.9v-7.1h73.7v7.1c0,2.2,1.8,3.9,3.9,3.9
				h14.3c2.2,0,3.9-1.8,3.9-3.9v-7.1h73.7v7.1c0,2.2,1.8,3.9,3.9,3.9h14.3c2.2,0,3.9-1.8,3.9-3.9v-7.1h73.7v7.1
				c0,2.2,1.8,3.9,3.9,3.9h14.3c2.2,0,3.9-1.8,3.9-3.9v-7.1h73.7v7.1c0,2.2,1.8,3.9,3.9,3.9h14.3c2.2,0,3.9-1.8,3.9-3.9v-7.1h3.4
				c4.4,0,8-3.6,8-8v-71.2H19.8z"/>
			<rect x="19.8" y="273.9" class="st0" width="1290.6" height="17.8"/>
			<rect x="19.8" y="299.5" class="st2" width="1290.6" height="17.8"/>
		</g>
		<g>
			<polygon class="st2" points="1188.3,247.7 1140.6,247.7 1132.7,247.7 1132.7,255.6 1133.6,257.7 1140.3,273.4 1140.6,273.9 
				1200.6,273.9 1200.6,273.4 1200.6,257.7 1200.6,247.7 			"/>
			<polygon class="st2" points="1188.3,243.9 1188.3,237.9 1188.3,237.9 1140.6,237.9 1140.6,243.9 			"/>
			<polygon class="st2" points="1272.2,247.7 1272.2,247.7 1224.5,247.7 1216.6,247.7 1216.6,255.6 1217.5,257.7 1224.2,273.4 
				1224.4,273.9 1284.5,273.9 1284.5,273.4 1284.5,257.7 1284.5,247.7 			"/>
			<polygon class="st2" points="1272.2,243.9 1272.2,237.9 1272.2,237.9 1224.5,237.9 1224.5,243.9 			"/>
			<polygon class="st1" points="1188.3,237.9 1188.3,237.9 1188.3,243.9 1188.3,243.9 1188.3,247.7 1188.3,247.7 1200.6,247.7 
				1200.6,247.7 1200.6,237.9 1196.3,237.9 1196.3,229.8 1196.3,221.8 1188.3,221.8 1168.3,221.8 1168.3,229.8 1188.3,229.8 			"/>
			<polygon class="st1" points="1140.6,229.8 1146.7,229.8 1146.7,221.8 1140.6,221.8 1132.7,221.8 1132.7,229.8 1132.7,247.7 
				1140.6,247.7 			"/>
			<polygon class="st1" points="1272.2,237.9 1272.2,237.9 1272.2,243.9 1272.2,243.9 1272.2,247.7 1272.2,247.7 1284.5,247.7 
				1284.5,247.7 1284.5,237.9 1280.1,237.9 1280.1,229.8 1280.1,221.8 1272.2,221.8 1252.1,221.8 1252.1,229.8 1272.2,229.8 			"/>
			<polygon class="st1" points="1224.5,229.8 1230.6,229.8 1230.6,221.8 1224.5,221.8 1216.6,221.8 1216.6,229.8 1216.6,247.7 
				1224.5,247.7 			"/>
			<polygon class="st2" points="1026.1,247.7 978.4,247.7 970.5,247.7 970.5,255.6 971.4,257.7 978.1,273.4 978.4,273.9 
				1038.4,273.9 1038.4,273.4 1038.4,257.7 1038.4,247.7 			"/>
			<polygon class="st2" points="1026.1,243.9 1026.1,237.9 1026.1,237.9 978.4,237.9 978.4,243.9 			"/>
			<polygon class="st2" points="1110,247.7 1110,247.7 1062.3,247.7 1054.4,247.7 1054.4,255.6 1055.3,257.7 1062,273.4 
				1062.2,273.9 1122.3,273.9 1122.3,273.4 1122.3,257.7 1122.3,247.7 			"/>
			<polygon class="st2" points="1110,243.9 1110,237.9 1110,237.9 1062.3,237.9 1062.3,243.9 			"/>
			<polygon class="st1" points="1026.1,237.9 1026.1,237.9 1026.1,243.9 1026.1,243.9 1026.1,247.7 1026.1,247.7 1038.4,247.7 
				1038.4,247.7 1038.4,237.9 1034.1,237.9 1034.1,229.8 1034.1,221.8 1026.1,221.8 1006.1,221.8 1006.1,229.8 1026.1,229.8 			"/>
			<polygon class="st1" points="978.4,229.8 984.5,229.8 984.5,221.8 978.4,221.8 970.5,221.8 970.5,229.8 970.5,247.7 978.4,247.7 
							"/>
			<polygon class="st1" points="1110,237.9 1110,237.9 1110,243.9 1110,243.9 1110,247.7 1110,247.7 1122.3,247.7 1122.3,247.7 
				1122.3,237.9 1117.9,237.9 1117.9,229.8 1117.9,221.8 1110,221.8 1089.9,221.8 1089.9,229.8 1110,229.8 			"/>
			<polygon class="st1" points="1062.3,229.8 1068.4,229.8 1068.4,221.8 1062.3,221.8 1054.4,221.8 1054.4,229.8 1054.4,247.7 
				1062.3,247.7 			"/>
		</g>
		<g>
			<polygon class="st2" points="281.7,247.9 234,247.9 226.1,247.9 226.1,255.8 227,257.9 233.7,273.6 234,274.1 294,274.1 
				294,273.6 294,257.9 294,247.9 			"/>
			<polygon class="st2" points="281.7,244.1 281.7,238.1 281.7,238.1 234,238.1 234,244.1 			"/>
			<polygon class="st2" points="365.6,247.9 365.6,247.9 317.9,247.9 310,247.9 310,255.8 310.9,257.9 317.6,273.6 317.8,274.1 
				377.9,274.1 377.9,273.6 377.9,257.9 377.9,247.9 			"/>
			<polygon class="st2" points="365.6,244.1 365.6,238.1 365.6,238.1 317.9,238.1 317.9,244.1 			"/>
			<polygon class="st1" points="281.7,238.1 281.7,238.1 281.7,244.1 281.7,244.1 281.7,247.9 281.7,247.9 294,247.9 294,247.9 
				294,238.1 289.7,238.1 289.7,230 289.7,222 281.7,222 261.7,222 261.7,230 281.7,230 			"/>
			<polygon class="st1" points="234,230 240.1,230 240.1,222 234,222 226.1,222 226.1,230 226.1,247.9 234,247.9 			"/>
			<polygon class="st1" points="365.6,238.1 365.6,238.1 365.6,244.1 365.6,244.1 365.6,247.9 365.6,247.9 377.9,247.9 377.9,247.9 
				377.9,238.1 373.5,238.1 373.5,230 373.5,222 365.6,222 345.5,222 345.5,230 365.6,230 			"/>
			<polygon class="st1" points="317.9,230 324,230 324,222 317.9,222 310,222 310,230 310,247.9 317.9,247.9 			"/>
			<polygon class="st2" points="119.4,247.9 71.7,247.9 63.8,247.9 63.8,255.8 64.7,257.9 71.4,273.6 71.7,274.1 131.7,274.1 
				131.7,273.6 131.7,257.9 131.7,247.9 			"/>
			<polygon class="st2" points="119.4,244.1 119.4,238.1 119.4,238.1 71.7,238.1 71.7,244.1 			"/>
			<polygon class="st2" points="203.3,247.9 203.3,247.9 155.6,247.9 147.7,247.9 147.7,255.8 148.6,257.9 155.3,273.6 155.5,274.1 
				215.6,274.1 215.6,273.6 215.6,257.9 215.6,247.9 			"/>
			<polygon class="st2" points="203.3,244.1 203.3,238.1 203.3,238.1 155.6,238.1 155.6,244.1 			"/>
			<polygon class="st1" points="119.4,238.1 119.4,238.1 119.4,244.1 119.4,244.1 119.4,247.9 119.4,247.9 131.7,247.9 131.7,247.9 
				131.7,238.1 127.4,238.1 127.4,230 127.4,222 119.4,222 99.4,222 99.4,230 119.4,230 			"/>
			<polygon class="st1" points="71.7,230 77.8,230 77.8,222 71.7,222 63.8,222 63.8,230 63.8,247.9 71.7,247.9 			"/>
			<polygon class="st1" points="203.3,238.1 203.3,238.1 203.3,244.1 203.3,244.1 203.3,247.9 203.3,247.9 215.6,247.9 215.6,247.9 
				215.6,238.1 211.2,238.1 211.2,230 211.2,222 203.3,222 183.2,222 183.2,230 203.3,230 			"/>
			<polygon class="st1" points="155.6,230 161.7,230 161.7,222 155.6,222 147.7,222 147.7,230 147.7,247.9 155.6,247.9 			"/>
		</g>
		<g id="NAME">
			<path class="st3" d="M1219.3,352.1h-10.5l-1.4,3.4h-5.6l9.3-21.8h5.9l9.3,21.8h-5.6L1219.3,352.1z M1217.4,347.8l-3.4-8.1
				l-3.5,8.1H1217.4z"/>
			<path class="st3" d="M1228.9,352l7.3-7.2l-7.7-7.7l3.7-3.7l7.7,7.7l7.9-7.7l3.7,3.7l-8,7.8l7.3,7.2l-3.8,3.8l-7.2-7.3l-7.3,7.2
				L1228.9,352z"/>
			<path class="st3" d="M1270.9,333.7v4.9h-11.4v3.7h9.5v4.5h-9.5v3.7h11.4v4.9h-16.7v-21.8H1270.9z"/>
			<path class="st3" d="M1280.4,350.6h11.4v4.9h-16.7v-21.8h5.2V350.6z"/>
		</g>
	</g>
</g>
<g id="bottom">
	<path class="st0" d="M867.8,191c-0.5,0-0.9,0-1.4-0.1c-5.5-0.8-9.3-5.8-8.5-11.3c3.3-22.9-5.2-57-24.5-98.8
		c-15-32.4-31.2-57.8-31.4-58.1c-3-4.6-1.6-10.8,3-13.8c4.6-3,10.8-1.6,13.8,3c0.7,1.1,17.1,26.7,32.6,60.2
		c21.3,46,30.1,83.1,26.3,110.2C877,187.4,872.7,191,867.8,191z"/>
	<g>
		
			<rect x="362.8" y="201.7" transform="matrix(6.123234e-17 -1 1 6.123234e-17 222.9167 679.4052)" class="st1" width="176.7" height="53"/>
		<rect x="477.7" y="56.9" class="st2" width="411.8" height="259.7"/>
		<rect x="477.7" y="296.3" class="st0" width="411.8" height="50.6"/>
		<rect x="424.7" y="316.6" class="st0" width="220.9" height="30.4"/>
		<rect x="498.6" y="79.1" class="st3" width="302.1" height="221.3"/>
		<rect x="490.6" y="272.1" class="st1" width="312" height="34.4"/>
	</g>
</g>
<g data-group="AXEL_tools">
	<g>
		<g>
			<polygon class="st1" points="590.1,174.4 757.9,173.3 757.9,159.7 590.1,139.9 			"/>
			<path class="st0" d="M588.1,176.4v-38.7L760,158v17.3L588.1,176.4z M592.1,142.2v30.2l163.9-1v-9.8L592.1,142.2z"/>
		</g>
		<g>
			<rect x="577.3" y="128.9" class="st1" width="25.6" height="45.7"/>
			<path class="st0" d="M604.8,176.6h-29.5v-49.7h29.5V176.6z M579.3,172.6h21.5v-41.7h-21.5V172.6z"/>
		</g>
		<g>
			<rect x="524.7" y="190.1" class="st0" width="129.2" height="14.6"/>
			<path class="st4" d="M653.9,175.7h-18.2h-95h-16h-2.2c-7.1,0-12.8,5.7-12.8,12.8v3.3c0,7.1,5.7,12.8,12.8,12.8h2.2v-14.6h16.2
				h94.8h18.2v14.6c7.1,0,12.8-5.7,12.8-12.8v-3.3C666.7,181.4,661,175.7,653.9,175.7z"/>
			<g>
				<path class="st1" d="M574.9,186.1h4.4v4v7.5c0,0.8,0.6,1.4,1.4,1.4s1.4-0.6,1.4-1.4v-7.5v-4h4.9v-6.4h-12.1V186.1L574.9,186.1z"
					/>
				<polygon class="st1" points="594.3,186.1 597.7,186.1 597.7,190.1 597.7,201.1 602.7,194.7 602.7,190.1 602.7,186.1 
					606.5,186.1 606.5,179.6 594.3,179.6 				"/>
				<polygon class="st1" points="541.1,179.6 538,179.6 533.5,179.6 533.5,186.1 536.9,186.1 536.9,190.1 536.9,193.6 539.6,198.6 
					541.8,194.4 542.2,193.6 542.2,190.1 542.2,186.1 545.6,186.1 545.6,179.6 541.8,179.6 				"/>
				<polygon class="st1" points="641.5,179.6 640.8,179.6 637.7,179.6 633.2,179.6 633.2,186.1 636.7,186.1 636.7,190.1 
					636.7,202.6 641.5,194.4 641.9,193.6 641.9,190.1 641.9,186.1 645.4,186.1 645.4,179.6 				"/>
				<polygon class="st1" points="562.3,193.6 562.3,190.1 562.3,186.1 566.4,186.1 566.4,179.6 561.2,179.6 559.4,179.6 
					554.2,179.6 554.2,186.1 558.4,186.1 558.4,190.1 558.4,193.6 558.6,194.6 552,194.6 552,198.9 568.6,198.9 568.6,194.6 
					562,194.6 				"/>
				<polygon class="st1" points="621.8,193.6 621.8,190.1 621.8,186.1 625.9,186.1 625.9,179.6 620.7,179.6 618.9,179.6 
					613.8,179.6 613.8,186.1 617.9,186.1 617.9,190.1 617.9,193.6 618.2,194.6 611.5,194.6 611.5,198.9 619.8,201.9 628.1,198.9 
					628.1,194.6 621.5,194.6 				"/>
			</g>
		</g>
	</g>
</g>
<g data-group="AXEL_spindles">
	<g>
		<g>
			<polygon class="st0" points="772.3,175.4 735.6,183.4 735.6,22.2 772.3,22.2 			"/>
			<rect x="735.6" y="0.5" class="st1" width="114.1" height="31.9"/>
		</g>
		<g>
			<g>
				<g>
					<polygon class="st5" points="720,212.6 723.1,212.6 723.1,224.4 727.5,222.4 727.5,212.6 730.6,212.6 730.6,208 720,208 					
						"/>
					<polygon class="st2" points="709.1,192 713.7,208 737,208 741.5,192 741.5,168.8 709.1,168.8 					"/>
					<rect x="709.1" y="164.8" class="st0" width="32.3" height="4"/>
					<rect x="704.5" y="77.7" class="st0" width="41.7" height="87.1"/>
					<rect x="708.5" y="81.7" class="st1" width="33.7" height="79.1"/>
				</g>
			</g>
		</g>
		<g>
			<g>
				<polygon class="st1" points="762.3,95 769.3,160.9 786.3,227.1 798,227.1 796.4,161 771.1,95 				"/>
				<path class="st0" d="M800,229.1h-15.3l-17.4-67.9l-7-68.2h12.3l25.8,67.8l0,0.2L800,229.1z M787.8,225.1h8.1l-1.6-63.8L769.6,97
					h-5.2l7,63.7L787.8,225.1z"/>
			</g>
			<g>
				<polygon class="st1" points="751.8,149.8 751.8,172.4 788.7,178.6 795.7,160.9 788.7,144.5 				"/>
				<path class="st0" d="M789.8,180.7l-39.9-6.8v-25.7l39.9-5.7l7.9,18.4L789.8,180.7z M753.6,170.8l33.9,5.8l6.2-15.6l-6.2-14.4
					l-33.9,4.8V170.8z"/>
			</g>
		</g>
	</g>
	<rect x="498.6" y="77.2" class="st6" width="302.1" height="221.3"/>
</g>
<g id="top">
	<g>
		<path class="st2" d="M867.4,77v215.7H499.7V77H867.4 M889.4,55H477.7v259.7h411.8V55L889.4,55z"/>
		<path class="st0" d="M809,306.5H490.6V69.2H809V306.5z M506.6,290.5H793V85.2H506.6V290.5z"/>
	</g>
</g>
<g data-highlighted="AXEL_axes">
	<path class="st6" d="M1140.6,243.9h47.7v3.8h-47.7V243.9z M1224.5,247.7h47.7v-3.8h-47.7V247.7z M978.4,247.7h47.7v-3.8h-47.7
		V247.7z M1062.3,247.7h47.7v-3.8h-47.7V247.7z M71.7,247.9h47.7v-3.8H71.7V247.9z M155.6,247.9h47.7v-3.8h-47.7V247.9z
		 M317.9,247.9h47.7v-3.8h-47.7V247.9z M234,247.9h47.7v-3.8H234V247.9z M1328.4,273.9v21.7v10.8V328v11.7V382c0,9.9-8.1,18-18,18
		H19.8c-9.9,0-18-8.1-18-18V273.9c0-9.9,8.1-18,18-18l26.1,0v-34.1c0-9.9,8-17.9,17.9-18l314.1-1.8c10-0.1,18.1,8,18.1,18v35.9
		l556.6-2.5v-31.5c0-9.9,8.1-18,18-18h314.1c9.9,0,18,8.1,18,18v34.1l7.9,0C1320.3,255.9,1328.4,263.9,1328.4,273.9z M1310.4,295.6
		v-3.9v-17.8h-25.9v-0.5v-15.7v-10v-9.8h-4.4v-8.1v-8h-7.9h-20.1v8h20.1v8.1h-47.7v-8.1h6.1v-8h-6.1h-7.9v8v17.9v7.9l0.9,2.1
		l6.7,15.7l0.2,0.5h-23.8v-0.5v-15.7v-10v-9.8h-4.3v-8.1v-8h-8h-20v8h20v8.1h-47.7v-8.1h6.1v-8h-6.1h-7.9v8v17.9v7.9l0.9,2.1
		l6.7,15.7l0.3,0.5h-18.3v-0.5v-15.7v-10v-9.8h-4.4v-8.1v-8h-7.9h-20.1v8h20.1v8.1h-47.7v-8.1h6.1v-8h-6.1h-7.9v8v17.9v7.9l0.9,2.1
		l6.7,15.7l0.2,0.5h-23.8v-0.5v-15.7v-10v-9.8h-4.3v-8.1v-8h-8h-20v8h20v8.1h-47.7v-8.1h6.1v-8h-6.1h-7.9v8v17.9v7.9l0.9,2.1
		l6.7,15.7l0.3,0.5H377.9v-0.5v-15.7v-10v-9.8h-4.4v-8.1v-8h-7.9h-20.1v8h20.1v8.1h-47.7v-8.1h6.1v-8h-6.1H310v8v17.9v7.9l0.9,2.1
		l6.7,15.7l0.2,0.5H294v-0.5v-15.7v-10v-9.8h-4.3v-8.1v-8h-8h-20v8h20v8.1H234v-8.1h6.1v-8H234h-7.9v8v17.9v7.9l0.9,2.1l6.7,15.7
		l0.3,0.5h-18.3v-0.5v-15.7v-10v-9.8h-4.4v-8.1v-8h-7.9h-20.1v8h20.1v8.1h-47.7v-8.1h6.1v-8h-6.1h-7.9v8v17.9v7.9l0.9,2.1l6.7,15.7
		l0.2,0.5h-23.8v-0.5v-15.7v-10v-9.8h-4.3v-8.1v-8h-8h-20v8h20v8.1H71.7v-8.1h6.1v-8h-6.1h-7.9v8v17.9v7.9l0.9,2.1l6.7,15.7l0.3,0.5
		h-52v17.8v7.8v17.8v45.6c0,4.4,3.6,8,8,8h3.4v7.1c0,2.2,1.8,3.9,3.9,3.9h14.3c2.2,0,3.9-1.8,3.9-3.9v-7.1H127v7.1
		c0,2.2,1.8,3.9,3.9,3.9h14.3c2.2,0,3.9-1.8,3.9-3.9v-7.1h73.7v7.1c0,2.2,1.8,3.9,3.9,3.9H241c2.2,0,3.9-1.8,3.9-3.9v-7.1h73.7v7.1
		c0,2.2,1.8,3.9,3.9,3.9h14.3c2.2,0,3.9-1.8,3.9-3.9v-7.1h73.7v7.1c0,2.2,1.8,3.9,3.9,3.9h14.3c2.2,0,3.9-1.8,3.9-3.9v-7.1h73.7v7.1
		c0,2.2,1.8,3.9,3.9,3.9h14.3c2.2,0,3.9-1.8,3.9-3.9v-7.1h73.7v7.1c0,2.2,1.8,3.9,3.9,3.9h14.3c2.2,0,3.9-1.8,3.9-3.9v-7.1h73.7v7.1
		c0,2.2,1.8,3.9,3.9,3.9h14.3c2.2,0,3.9-1.8,3.9-3.9v-7.1h73.7v7.1c0,2.2,1.8,3.9,3.9,3.9h14.3c2.2,0,3.9-1.8,3.9-3.9v-7.1h73.7v7.1
		c0,2.2,1.8,3.9,3.9,3.9h14.3c2.2,0,3.9-1.8,3.9-3.9v-7.1h73.7v7.1c0,2.2,1.8,3.9,3.9,3.9h14.3c2.2,0,3.9-1.8,3.9-3.9v-7.1h73.7v7.1
		c0,2.2,1.8,3.9,3.9,3.9h14.3c2.2,0,3.9-1.8,3.9-3.9v-7.1h73.7v7.1c0,2.2,1.8,3.9,3.9,3.9h14.3c2.2,0,3.9-1.8,3.9-3.9v-7.1h73.7v7.1
		c0,2.2,1.8,3.9,3.9,3.9h14.3c2.2,0,3.9-1.8,3.9-3.9v-7.1h3.4c4.4,0,8-3.6,8-8v-23.2v-4.3v-21.6v-14.3V295.6z"/>
</g>
<g data-highlighted="AXEL_tools">
	<path class="st6" d="M653.9,157.7H522.5c-17,0-30.8,13.8-30.8,30.8v3.3c0,17,13.8,30.8,30.8,30.8h131.4c17,0,30.8-13.8,30.8-30.8
		v-3.3C684.7,171.5,670.9,157.7,653.9,157.7z M666.7,191.9c0,7.1-5.7,12.8-12.8,12.8h-18.2h-95h-16h-2.2c-7.1,0-12.8-5.7-12.8-12.8
		v-3.3c0-7.1,5.7-12.8,12.8-12.8h2.2h16h95h18.2c7.1,0,12.8,5.7,12.8,12.8V191.9z"/>
</g>
<g data-highlighted="AXEL_spindles">
	<path class="st6" d="M745.4,59.7h-40.9c-10,0-18.1,8.1-18.1,18.1v146.6c0,10,8.1,18.1,18.1,18.1h40.9c10,0,18.1-8.1,18.1-18.1V77.8
		C763.5,67.8,755.4,59.7,745.4,59.7z M746.2,164.8h-4.8v4h0.1V192l-4.5,16h-6.4v4.6h-3.1v9.8l-4.4,2v-11.8H720V208h-6.3l-4.6-16
		v-23.2v-4h-4.6V77.7h41.7V164.8z"/>
</g>
</svg>
