<?xml version="1.0" encoding="utf-8"?>
<!-- Generator: Adobe Illustrator 25.0.0, SVG Export Plug-In . SVG Version: 6.00 Build 0)  -->
<svg version="1.1" id="AXEL_tools" xmlns="http://www.w3.org/2000/svg" xmlns:xlink="http://www.w3.org/1999/xlink" x="0px"
	 y="0px" viewBox="0 0 220 220" style="enable-background:new 0 0 220 220;" xml:space="preserve">
<style type="text/css">
	.st0{display:none;}
	.st1{display:inline;fill:#4A7E68;}
	.st2{display:inline;fill:#005140;}
	.st3{display:inline;fill:#246047;}
	.st4{fill:#005140;}
	.st5{fill:#246047;}
	.st6{fill:#4A7E68;}
	.st7{fill:#676767;}
</style>
<g class="st0">
	<polygon class="st1" points="38.3,88.2 52.3,60 52.3,31.8 21.5,31.8 21.2,88.2 	"/>
	<path class="st2" d="M202.4,60v8.8l-9.7,12.4V60h-30.3v14.3c0,1.5-1.2,2.8-2.8,2.8c-1.5,0-2.8-1.2-2.8-2.8V60h-33.2v6.7l-0.6,1.8
		H136v8.6h-32.3v-8.6h12.9l-0.6-1.8V60H84.5v6.7l-0.8,1.5l-4.3,8.2l-5.1-9.7V60H50.5L35.8,88.2h184.5V77.3l-0.7-0.2v-8.6h0.7V60h-1
		H202.4z"/>
	<polygon class="st3" points="50.5,60 50.6,60 74.3,60 74.3,59.8 74.3,52 67.6,52 67.6,39.4 76.4,39.4 82.4,39.4 83.7,39.4 
		91.2,39.4 91.2,52 84.5,52 84.5,59.8 84.5,60 116,60 116,59.8 116,52 108,52 108,39.4 118.1,39.4 121.6,39.4 131.7,39.4 131.7,52 
		123.7,52 123.7,59.8 123.7,60 156.8,60 156.8,59.8 156.8,52 148.3,52 148.3,39.4 171.9,39.4 171.9,52 162.4,52 162.4,59.8 
		162.4,60 192.7,60 192.7,59.8 192.7,52 186.2,52 186.2,39.4 209.8,39.4 209.8,52 202.4,52 202.4,59.8 202.4,60 219.4,60 
		219.4,31.8 50.5,31.8 50.5,59.8 	"/>
	<rect x="0.4" y="31.8" class="st1" width="1.9" height="56.4"/>
	<path class="st1" d="M156.8,74.3c0,1.5,1.2,2.8,2.8,2.8c1.5,0,2.8-1.2,2.8-2.8V60h-5.6V74.3z"/>
	<polygon class="st1" points="162.4,52 171.9,52 171.9,39.4 148.3,39.4 148.3,52 156.8,52 156.8,59.8 156.8,60 162.4,60 162.4,59.8 
			"/>
	<polygon class="st1" points="192.7,81.2 202.4,68.8 202.4,60 192.7,60 	"/>
	<polygon class="st1" points="202.4,52 209.8,52 209.8,39.4 186.2,39.4 186.2,52 192.7,52 192.7,59.8 192.7,60 202.4,60 202.4,59.8 
			"/>
	<polygon class="st1" points="74.3,66.7 79.4,76.4 83.7,68.2 84.5,66.7 84.5,60 74.3,60 	"/>
	<polygon class="st1" points="84.5,52 91.2,52 91.2,39.4 83.7,39.4 82.4,39.4 76.4,39.4 67.6,39.4 67.6,52 74.3,52 74.3,59.8 
		74.3,60 84.5,60 84.5,59.8 	"/>
	<polygon class="st1" points="116,66.7 116.6,68.5 103.7,68.5 103.7,77.1 136,77.1 136,68.5 123.1,68.5 123.7,66.7 123.7,60 116,60 
			"/>
	<polygon class="st1" points="123.7,52 131.7,52 131.7,39.4 121.6,39.4 118.1,39.4 108,39.4 108,52 116,52 116,59.8 116,60 
		123.7,60 123.7,59.8 	"/>
	<polygon class="st1" points="219.7,77.1 220.4,77.3 220.4,68.5 219.7,68.5 	"/>
	<rect x="2.3" y="88.2" class="st2" width="21.2" height="8.8"/>
	<path class="st2" d="M11.9,0.4c-4,0-7.6,2.1-9.6,5.2v26.3v39.5v16.9v59.7v25.7v41.5c2.1,3.1,5.6,5.2,9.6,5.2h11.6v-46.7v-25.7V88.2
		V71.3V31.8V0.4H11.9z"/>
</g>
<g>
	<path class="st4" d="M139.5,78.2l77.9-0.5v3.2h-19.9h-58.1V78.2z M139.5,16.8l77.9,9.2v-3.8L139.5,13V16.8z M139.5,78.2l77.9-0.5
		v-3.8l-77.9,0.5V78.2z M139.5,20.6l77.9,9.2V26l-77.9-9.2V20.6z M107.9,80.9v-2.1H87.6V3.3h-3.8v77.6H107.9z M139.5,13V3.3h-3.8
		v9.3L139.5,13z M135.7,74.5l3.8,0V20.6l-3.8-0.4V74.5z M139.5,78.2l-3.8,0v0.6h-27.8v2.1h31.6V78.2z M139.5,16.8V13l-3.8-0.4v3.8
		L139.5,16.8z M135.7,20.1l3.8,0.4v-3.8l-3.8-0.4V20.1z M135.7,78.2l3.8,0v-3.8l-3.8,0V78.2z M107.9,78.8v-3.8H91.4V3.3h-3.8v75.6
		H107.9z M135.7,12.6V3.3H132v8.8L135.7,12.6z M132,74.5l3.8,0V20.1l-3.8-0.4V74.5z M135.7,78.2l-24.1,0.2v-3.3h-3.8v3.8h27.8V78.2z
		 M135.7,16.3v-3.8l-3.8-0.4v3.8L135.7,16.3z M132,74.5v0.6h-20.3v3.3l24.1-0.2v-3.8L132,74.5z M135.7,20.1v-3.8l-3.8-0.4v3.8
		L135.7,20.1z"/>
	<path class="st4" d="M217.4,135.5H3.3V108h8.3v6.6l5.1,9.4l4.1-7.9l0.8-1.5V108H52v6.6l0.4,1.9H40v8.1h31.3v-8.1H58.8l0.6-1.9V108
		h32v14.1c0,1.5,1.1,2.6,2.6,2.6c1.5,0,2.6-1.1,2.6-2.6V108H126v20.7l9.4-12.1V108h28.6v6.6l0.6,1.9H152v8.1l15.6,5.6l15.6-5.6v-8.1
		h-12.4l0.6-1.9V108h26.1h1.9v23.5l9-15.4l0.8-1.5V108h8.2V135.5z"/>
	<path class="st5" d="M11.6,108H3.3V80.9h15.4h65.1v1.7h55.6V82l77.9-0.5V108h-8.2v-7.5h6.6V88.3h-7.3h-1.3h-5.8h-8.5v12.2h6.6v7.5
		h-28.1v-7.5h7.7V88.3h-9.8H166h-9.6v12.2h7.7v7.5h-28.6v-7.5h7.2V88.3h-23v12.2h6.4v7.5H96.7v-7.5h9.2V88.4H83.1l0,12.1h8.3v7.5
		h-32v-7.5h7.7V88.3h-9.8h-3.4h-9.8v12.2H52v7.5H21.5v-7.5h6.4V88.3h-7.2h-1.3h-5.8H5.2v12.2h6.4V108z M139.5,80.9v1l77.9-0.5v-0.5
		h-19.9H139.5z M107.9,80.9H83.9v1.7h55.6V82l-31.6,0.2V80.9z M107.9,80.9v1.2l31.6-0.2v-1H107.9z M96.7,108L96.7,108l29.4,0v0H96.7
		z M59.4,108L59.4,108l32,0v0H59.4z M135.5,108L135.5,108l28.6,0v0H135.5z M171.4,108L171.4,108l26.1,0h1.9v0H171.4z M21.5,108
		L21.5,108l30.5,0v0H21.5z M209.3,108h8.2v0L209.3,108L209.3,108z M11.6,108H3.3v0L11.6,108L11.6,108z"/>
	<path class="st6" d="M139.5,20.6l77.9,9.2v44.1l-77.9,0.5V20.6z M107.9,75.1V9.3l24.1,2.8V3.3H91.4v71.8H107.9z M115.4,17.7v56.8
		l16.5-0.1V19.7L115.4,17.7z M111.7,13.5l20.3,2.4v-3.8l-24.1-2.8v65.8h3.8V13.5z M132,74.5l-16.5,0.1V17.7l16.5,2v-3.8l-20.3-2.4
		v61.6H132V74.5z M91.4,122.2c0,1.5,1.1,2.6,2.6,2.6c1.5,0,2.6-1.1,2.6-2.6V108h-5.3V122.2z M96.7,100.5h9.2V88.4H83.1l0,12.1h8.3
		v7.5h5.3V100.5z M91.4,108L91.4,108l5.3,0v0H91.4z M126,128.7l9.4-12.1V108H126V128.7z M135.5,100.5h7.2V88.3h-23v12.2h6.4v7.5h9.4
		V100.5z M126,108L126,108l9.4,0v0H126z M11.6,108v6.6l5.1,9.4l4.1-7.9l0.8-1.5V108h-2.4H11.6z M21.5,100.5h6.4V88.3h-7.2h-1.3h-5.8
		H5.2v12.2h6.4v7.5h10V100.5z M11.6,108L11.6,108l7.6,0h2.4v0H11.6z M199.5,131.6l9-15.4l0.8-1.5V108h-9.8V131.6z M209.3,100.5h6.6
		V88.3h-7.3h-1.3h-5.8h-8.5v12.2h6.6v7.5h9.8V100.5z M199.5,108L199.5,108l9.8,0v0H199.5z M52,114.6l0.4,1.9H40v8.1h31.3v-8.1H58.8
		l0.6-1.9V108H52V114.6z M59.4,100.5h7.7V88.3h-9.8h-3.4h-9.8v12.2H52v7.5h7.3V100.5z M52,108L52,108l7.3,0v0H52z M164.1,114.6
		l0.6,1.9H152v8.1l15.6,5.6l15.6-5.6v-8.1h-12.4l0.6-1.9V108h-7.3V114.6z M171.4,100.5h7.7V88.3h-9.8H166h-9.6v12.2h7.7v7.5h7.3
		V100.5z M164.1,108L164.1,108l7.3,0v0H164.1z"/>
</g>
<path id="Path_1931" class="st6" d="M3.3,208.8c0,4.8,3.9,8.7,8.7,8.7h196.8c4.8,0,8.7-3.9,8.7-8.7v-17.4H3.3V208.8z"/>
<path id="Path_1933_2_" class="st7" d="M208.8,3.3c4.8,0,8.7,3.9,8.7,8.7v0v196.8c0,4.8-3.9,8.7-8.7,8.7H11.9
	c-4.8,0-8.7-3.9-8.7-8.7V11.9c0-4.8,3.9-8.7,8.7-8.7v0H208.8 M208.8,0.4H11.9C5.6,0.4,0.4,5.6,0.4,11.9v196.8
	c0,6.4,5.2,11.6,11.6,11.6h196.8c6.4,0,11.6-5.2,11.6-11.6V11.9C220.4,5.6,215.2,0.4,208.8,0.4z"/>
</svg>
