<?xml version="1.0" encoding="utf-8"?>
<!-- Generator: Adobe Illustrator 24.1.2, SVG Export Plug-In . SVG Version: 6.00 Build 0)  -->
<svg version="1.1" id="SawM_x5F_DoubleHeads" xmlns="http://www.w3.org/2000/svg" xmlns:xlink="http://www.w3.org/1999/xlink"
	 x="0px" y="0px" viewBox="0 0 220 220" style="enable-background:new 0 0 220 220;" xml:space="preserve">
<style type="text/css">
	.st0{fill:#00563F;}
	.st1{fill:#4A7E68;}
	.st2{fill:#246047;}
	.st3{fill:#FFFFFF;}
	.st4{fill:#005140;}
	.st5{fill:#686868;}
</style>
<g>
	<g>
		<path class="st0" d="M64.32,17.31c-0.6,0.06-1.19,0.17-1.78,0.3C63.12,17.48,63.72,17.37,64.32,17.31z"/>
		<path class="st0" d="M199.57,81.49l-62.35-60.13c-0.13-0.13-0.27-0.23-0.41-0.35c3,2.69,4.9,6.59,4.9,10.93v14.17v20.42v88.79
			v14.7v0c0,0.04-0.01,0.07-0.01,0.1h62.35c0-0.03,0.01-0.07,0.01-0.1V92.07C204.06,88.07,202.44,84.26,199.57,81.49z"/>
	</g>
	<path class="st1" d="M136.81,21c-0.19-0.17-0.37-0.34-0.57-0.5c-0.17-0.13-0.34-0.26-0.51-0.38c-0.21-0.16-0.42-0.31-0.64-0.46
		c-0.16-0.11-0.33-0.2-0.5-0.3c-0.24-0.15-0.48-0.29-0.73-0.42c-0.15-0.08-0.31-0.15-0.46-0.22c-0.27-0.13-0.55-0.27-0.83-0.38
		c-0.14-0.06-0.29-0.11-0.43-0.16c-0.3-0.11-0.6-0.22-0.9-0.31c-0.15-0.05-0.31-0.08-0.46-0.12c-0.3-0.08-0.6-0.16-0.91-0.22
		c-0.21-0.04-0.43-0.07-0.64-0.1c-0.26-0.04-0.51-0.09-0.77-0.11c-0.48-0.05-0.96-0.07-1.45-0.07H65.77c-0.49,0-0.97,0.02-1.45,0.07
		c-0.6,0.06-1.19,0.17-1.78,0.3c-0.43,0.1-0.85,0.22-1.26,0.35c-0.84,0.27-1.65,0.6-2.43,1.01c-0.21,0.11-0.4,0.24-0.6,0.36
		c-0.21,0.13-0.43,0.24-0.63,0.38c-0.09,0.06-0.17,0.13-0.26,0.19c-0.7,0.49-1.37,1.03-1.98,1.65l-2.08,2.08l-8.31,8.31l-14.1,14.1
		c-2.76,2.76-4.3,6.49-4.3,10.39v0v113.57v0c0,0.04,0.01,0.07,0.01,0.1H141.7c0-0.03,0.01-0.07,0.01-0.1v0v-14.7V66.53V46.11V31.94
		C141.71,27.59,139.81,23.69,136.81,21z M92.57,170.01h-7.54v0v-12.13c-1.19-0.82-2.35-1.68-3.48-2.57
		c-13.34-10.46-22.74-25.73-25.57-43.2c-0.59-3.63-0.91-7.35-0.91-11.14s0.32-7.51,0.91-11.14c2.84-17.47,12.23-32.73,25.57-43.2
		c1.13-0.89,2.29-1.75,3.48-2.57V31.94v0h7.54v0v14.7v108.68V170.01L92.57,170.01z"/>
	<path class="st2" d="M85.03,46.63h-3.48C68.2,57.1,58.81,72.36,55.97,89.83v22.28c2.84,17.47,12.23,32.73,25.57,43.2h3.48V46.63z"
		/>
	<path class="st2" d="M55.06,100.97c0,3.79,0.32,7.51,0.91,11.14V89.83C55.38,93.46,55.06,97.18,55.06,100.97z"/>
	<path class="st2" d="M85.03,44.06c-1.19,0.82-2.35,1.68-3.48,2.57h3.48V44.06z"/>
	<path class="st2" d="M81.54,155.31c1.13,0.89,2.29,1.75,3.48,2.57v-2.57H81.54z"/>
	<rect x="85.03" y="46.63" class="st2" width="3.77" height="108.68"/>
	<path class="st2" d="M88.8,46.63v-4.99c-1.28,0.77-2.54,1.57-3.77,2.42v2.57H88.8z"/>
	<path class="st2" d="M85.03,157.88c1.23,0.85,2.49,1.65,3.77,2.42v-4.99h-3.77V157.88z"/>
	<polygon class="st3" points="2.92,187.14 2.92,192.09 2.92,197.05 217.08,197.05 217.08,192.09 217.08,187.14 	"/>
	<g>
		<path class="st4" d="M92.57,170.01v-14.7V46.63v-14.7v0h-7.54v0v12.13c1.23-0.85,2.49-1.65,3.77-2.42v4.99v108.68v4.99
			c-1.28-0.77-2.54-1.57-3.77-2.42v12.13v0L92.57,170.01L92.57,170.01z"/>
		<polygon class="st4" points="204.06,170.11 141.7,170.11 26.58,170.11 2.92,170.11 2.92,187.14 217.08,187.14 217.08,170.11 		"/>
		<path class="st4" d="M2.92,204.32v4.1c0,1.22,0.26,2.39,0.72,3.44c1.33,3.07,4.39,5.22,7.94,5.22h196.84
			c3.56,0,6.61-2.15,7.94-5.22c0.46-1.06,0.72-2.22,0.72-3.44v-4.1v-7.27H2.92V204.32z"/>
	</g>
</g>
<path id="Path_1932_3_" class="st5" d="M208.42,2.92c4.78,0,8.66,3.88,8.66,8.66v196.84c0,4.78-3.88,8.66-8.66,8.66H11.58
	c-4.78,0-8.66-3.88-8.66-8.66V11.58c0-4.78,3.88-8.66,8.66-8.66l0,0H208.42 M208.42,0H11.58C5.19,0.01,0.01,5.19,0,11.58v196.84
	c0.01,6.39,5.19,11.57,11.58,11.58h196.84c6.39-0.01,11.57-5.19,11.58-11.58V11.58C219.99,5.19,214.81,0.01,208.42,0z"/>
</svg>
