<?xml version="1.0" encoding="utf-8"?>
<!-- Generator: Adobe Illustrator 24.1.2, SVG Export Plug-In . SVG Version: 6.00 Build 0)  -->
<svg version="1.1" id="SawM_x5F_Axes" xmlns="http://www.w3.org/2000/svg" xmlns:xlink="http://www.w3.org/1999/xlink" x="0px"
	 y="0px" viewBox="0 0 220 220" style="enable-background:new 0 0 220 220;" xml:space="preserve">
<style type="text/css">
	.st0{fill:none;}
	.st1{fill:#4A7E68;}
	.st2{fill:#246047;}
	.st3{fill:#FFFFFF;}
	.st4{fill:#005140;}
	.st5{fill:#686868;}
</style>
<g>
	<path class="st0" d="M27.54,139.48c-0.16,0.02-0.31,0.04-0.47,0.04c-0.03,0-0.07-0.01-0.1-0.01l-0.24,4.85h190.35v-27.83h-44.74
		L27.54,139.48z"/>
	<path class="st0" d="M46.54,2.92H11.58c-4.78,0-8.66,3.88-8.66,8.66v71.59h43.62V2.92z"/>
	<path class="st0" d="M52.96,96.83c0,0.38-0.04,0.75-0.09,1.12h8.19c0,0,0-0.01,0-0.01v-9.3c0-1.25,1.02-2.27,2.27-2.27h9.3
		c1.25,0,2.27,1.02,2.27,2.27v9.3c0,0,0,0.01,0,0.01h54.16c0,0,0-0.01,0-0.01v-9.3c0-0.41,0.12-0.8,0.31-1.13l2.02-8.29
		c0.25-1.02,1.16-1.73,2.21-1.73h4.77c1.05,0,1.96,0.72,2.21,1.73l2.02,8.29c0.19,0.33,0.31,0.72,0.31,1.13v9.3c0,0,0,0.01,0,0.01
		h74.17V11.58c0-4.78-3.88-8.66-8.66-8.66H52.96V96.83z"/>
	<g>
		<path class="st1" d="M26.13,156.41c-0.02,0.42-0.12,0.83-0.29,1.19c-0.52,1.15-1.67,1.94-3,1.94H2.92v48.88
			c0,0.04,0.01,0.09,0.01,0.13c0.03,1.79,0.6,3.45,1.55,4.82c1.56,2.24,4.16,3.71,7.1,3.71h196.84c2.94,0,5.54-1.47,7.1-3.71
			c0.96-1.37,1.52-3.03,1.55-4.82c0-0.04,0.01-0.09,0.01-0.13V157.6V154H26.25L26.13,156.41z"/>
		<path class="st1" d="M142.91,97.95h-13.84H74.9H61.06h-8.19c-0.17,1.1-0.58,2.12-1.18,3c-1.01,1.48-2.55,2.57-4.35,3
			c-0.55,0.13-1.12,0.21-1.71,0.21H30.07H28.7l-1.59,32.36l-0.15,3c0.03,0,0.07,0.01,0.1,0.01c0.16,0,0.31-0.01,0.47-0.04
			l144.8-22.95h44.74v-3v-3v-6.59v-3v-3H142.91z"/>
	</g>
	<path class="st2" d="M27.07,104.16h-3H2.92v40.21v3.6v1.22v3.6V154v3.6v1.94h19.93c1.33,0,2.48-0.79,3-1.94
		c0.17-0.37,0.27-0.77,0.29-1.19l0.12-2.41l0.06-1.22l0.18-3.6l0.06-1.22l0.18-3.6l0.24-4.85l0.15-3l1.59-32.36H27.07z"/>
	<path class="st3" d="M39.43,90.42H2.92v2.11v2.11h36.51c1.17,0,2.11-0.95,2.11-2.11S40.6,90.42,39.43,90.42z"/>
	<g>
		<polygon class="st4" points="26.73,144.37 26.55,147.97 26.49,149.18 26.31,152.78 26.25,154 217.08,154 217.08,152.78 
			217.08,149.18 217.08,147.97 217.08,144.37 		"/>
		<path class="st4" d="M142.91,97.95C142.91,97.94,142.91,97.94,142.91,97.95l0-9.31c0-0.41-0.12-0.8-0.31-1.13l-2.02-8.29
			c-0.25-1.02-1.16-1.73-2.21-1.73h-4.77c-1.05,0-1.96,0.72-2.21,1.73l-2.02,8.29c-0.19,0.33-0.31,0.72-0.31,1.13v9.3
			c0,0,0,0.01,0,0.01H142.91z"/>
		<path class="st4" d="M74.9,97.95C74.9,97.94,74.9,97.94,74.9,97.95l0-9.31c0-1.25-1.02-2.27-2.27-2.27h-9.3
			c-1.25,0-2.27,1.02-2.27,2.27v9.3c0,0,0,0.01,0,0.01H74.9z"/>
		<path class="st4" d="M28.7,104.16h1.36h15.56c0.59,0,1.16-0.08,1.71-0.21c1.79-0.43,3.34-1.52,4.35-3c0.6-0.88,1.01-1.9,1.18-3
			c0.06-0.37,0.09-0.74,0.09-1.12V2.92h-6.42v80.25H2.92v7.25h36.51c1.17,0,2.11,0.95,2.11,2.11s-0.95,2.11-2.11,2.11H2.92v0v3.09
			v3.21v3.21h21.15h3H28.7z"/>
	</g>
</g>
<path id="Path_1932_9_" class="st5" d="M208.42,2.92c4.78,0,8.66,3.88,8.66,8.66v196.84c0,4.78-3.88,8.66-8.66,8.66H11.58
	c-4.78,0-8.66-3.88-8.66-8.66V11.58c0-4.78,3.88-8.66,8.66-8.66l0,0H208.42 M208.42,0H11.58C5.19,0.01,0.01,5.19,0,11.58v196.84
	c0.01,6.39,5.19,11.57,11.58,11.58h196.84c6.39-0.01,11.57-5.19,11.58-11.58V11.58C219.99,5.19,214.81,0.01,208.42,0z"/>
</svg>
