<?xml version="1.0" encoding="utf-8"?>
<!-- Generator: Adobe Illustrator 24.1.2, SVG Export Plug-In . SVG Version: 6.00 Build 0)  -->
<svg version="1.1" xmlns="http://www.w3.org/2000/svg" xmlns:xlink="http://www.w3.org/1999/xlink" x="0px" y="0px"
	 viewBox="0 0 576 146.64" style="enable-background:new 0 0 576 146.64;" xml:space="preserve">
<style type="text/css">
	.st0{fill:#FFFFFF;}	
	.st11{fill:#246047;}	
	.st2{fill:#4A7E68;}
	.st3{fill:#215F46;}
	.st4{fill:none;}
	.st6{fill:#00563F;}
	.st7{fill:#005140;}	
</style>
<g id="BLITZ_BODY2">
	<path class="st2" d="M21.91,25.77H2.01C0.9,25.77,0,26.67,0,27.78v92.47c0,1.11,0.9,2.01,2.01,2.01h9.64h9.63h0.62h2.01v-2.01v-18
		V80.76V27.78C23.92,26.67,23.02,25.77,21.91,25.77z"/>
	<path class="st11" d="M41.27,80.76H23.92v21.49v18v2.01h-2.01h-0.62c0.03,0,0.06,0.01,0.09,0.01h19.9c1.11,0,2.01-0.9,2.01-2.01
		V82.77C43.29,81.66,42.39,80.76,41.27,80.76z"/>
</g>
<g data-group="SawM_Axes">
	<g>
		<path class="st4" d="M340.64,106.48h45.1c1.18,0,2.15-0.93,2.21-2.11l0.03-0.78l-0.04,0.78c-0.06,1.18-1.03,2.1-2.21,2.1
			L340.64,106.48c-0.59,0-1.14-0.24-1.54-0.63C339.5,106.24,340.04,106.48,340.64,106.48z"/>
		<polygon class="st4" points="191.18,102.76 338.39,102.76 338.39,102.9 338.39,102.76 191.18,102.76 		"/>
		<rect x="69" y="131.11" class="st3" width="0.15" height="0.15"/>
		<rect x="188.93" y="131.11" class="st3" width="0.15" height="0.15"/>
		<rect x="308.85" y="131.11" class="st3" width="0.15" height="0.15"/>
		<rect x="428.78" y="131.11" class="st3" width="0.15" height="0.15"/>
		<rect x="548.71" y="131.11" class="st3" width="0.15" height="0.15"/>
		<path class="st11" d="M388.57,69.43h-2.01h-49.12l0.77,26.85l0.07,2.42l0.02,0.82l0.09,3.23l0,0.14l0.05,1.43
			c0.02,0.59,0.27,1.13,0.66,1.52c0.4,0.39,0.94,0.62,1.54,0.62h45.09c1.18,0,2.15-0.92,2.21-2.1l0.04-0.78l0.04-0.83h0l0,0
			l0.16-3.23l0.04-0.82l0.12-2.42l0.16-3.26l0.1-2.01l1.06-21.58H388.57z"/>
		<g>
			<path class="st2" d="M525.21,120.37h-2.04v1.77h2.04c0.89,0,1.33-0.3,1.33-0.89C526.54,120.59,526.08,120.37,525.21,120.37z"/>
			<path class="st2" d="M526.31,117.7c0-0.62-0.4-0.91-1.25-0.91h-1.9v1.91h1.9C526.02,118.69,526.31,118.41,526.31,117.7z"/>
			<path class="st2" d="M388.89,93.01l97.22-15.41h62.68c1.11,0,2.01-0.9,2.01-2.01v-8.45c0-1.11-0.9-2.01-2.01-2.01h-7.81h-9.29
				h-65.33h-9.29h-36.36h-9.29h-5.5c-0.09,0.74-0.36,1.41-0.74,2.01c-0.59,0.93-1.47,1.65-2.52,2.01c-0.5,0.17-1.04,0.28-1.6,0.28
				h-10.45h-0.92h-0.01l-1.06,21.58l-0.1,2.01c0.02,0,0.05,0.01,0.07,0.01C388.68,93.04,388.78,93.03,388.89,93.01z"/>
			<path class="st2" d="M388.02,102.76L388.02,102.76l-0.04,0.83l-0.03,0.78c-0.06,1.18-1.03,2.11-2.21,2.11h-45.1
				c-0.6,0-1.14-0.24-1.54-0.63c-0.4-0.39-0.65-0.93-0.66-1.52l-0.05-1.43l0-0.14H191.18h-3.23h-3.24H33.83v23.74
				c0,1.79,1.45,3.24,3.24,3.24h25.46v4.75c0,1.79,1.45,3.23,3.23,3.23h6.61c1.79,0,3.23-1.45,3.23-3.23v-4.75h106.85v4.75
				c0,1.79,1.45,3.23,3.23,3.23h6.61c1.79,0,3.23-1.45,3.23-3.23v-4.75h106.85v4.75c0,1.79,1.45,3.23,3.23,3.23h6.61
				c1.79,0,3.23-1.45,3.23-3.23v-4.75h106.85v4.75c0,1.79,1.45,3.23,3.23,3.23h6.61c1.79,0,3.23-1.45,3.23-3.23v-4.75h106.85v4.75
				c0,1.79,1.45,3.23,3.23,3.23h6.61c1.79,0,3.23-1.45,3.23-3.23v-4.75h8.53c1.78,0,3.23-1.45,3.23-3.24v-23.74H388.02z
				 M69.15,131.25H69v-0.15h0.15V131.25z M189.07,131.25h-0.15v-0.15h0.15V131.25z M309,131.25h-0.15v-0.15H309V131.25z
				 M428.93,131.25h-0.15v-0.15h0.15V131.25z M525.46,124.04h-4.5v-9.14h3.97c2.65,0,3.48,1.05,3.48,2.51c0,0.94-0.66,1.6-0.86,1.75
				c0.89,0.44,1.37,1.24,1.37,2.22C528.92,122.87,527.96,124.04,525.46,124.04z M537.47,124.04h-7v-9.14h2.2v7.1h4.8V124.04z
				 M541.25,124.04h-2.21v-9.14h2.21V124.04z M548.85,131.25h-0.15v-0.15h0.15V131.25z M542.76,114.9h8.71v2.04h-3.24v7.1H546v-7.1
				h-3.24V114.9z M561.43,124.04h-9.1v-1.98l5.92-5.12h-5.57v-2.04h8.66v1.95l-5.75,5.15h5.85V124.04z"/>
		</g>
		<path class="st0" d="M528.92,121.38c0-0.98-0.48-1.77-1.37-2.22c0.2-0.15,0.86-0.81,0.86-1.75c0-1.47-0.83-2.51-3.48-2.51h-3.97
			v9.14h4.5C527.96,124.04,528.92,122.87,528.92,121.38z M523.17,116.78h1.9c0.85,0,1.25,0.3,1.25,0.91c0,0.71-0.3,1-1.25,1h-1.9
			V116.78z M523.17,122.15v-1.77h2.04c0.87,0,1.33,0.21,1.33,0.89c0,0.59-0.44,0.89-1.33,0.89H523.17z"/>
		<polygon class="st0" points="537.47,122 532.67,122 532.67,114.9 530.47,114.9 530.47,124.04 537.47,124.04 		"/>
		<rect x="539.05" y="114.9" class="st0" width="2.21" height="9.14"/>
		<polygon class="st0" points="546,124.04 548.23,124.04 548.23,116.94 551.47,116.94 551.47,114.9 542.76,114.9 542.76,116.94 
			546,116.94 		"/>
		<polygon class="st0" points="561.43,122 555.58,122 561.33,116.85 561.33,114.9 552.67,114.9 552.67,116.94 558.24,116.94 
			552.32,122.07 552.32,124.04 561.43,124.04 		"/>
		<g>
			<polygon class="st7" points="388.34,96.29 388.22,98.71 388.18,99.52 388.02,102.76 567.08,102.76 567.08,101.94 567.08,96.29 
							"/>
			<polygon class="st7" points="338.27,98.71 338.21,96.29 191.18,96.29 187.94,96.29 184.71,96.29 33.83,96.29 33.83,101.94 
				33.83,102.76 99.25,102.76 100.38,102.76 184.71,102.76 184.71,102.76 187.95,102.76 191.18,102.76 191.18,102.76 338.39,102.76 
				338.3,99.52 			"/>
			<path class="st7" d="M389.66,69.43L389.66,69.43h0.92h10.45c0.56,0,1.1-0.11,1.6-0.28c1.05-0.37,1.93-1.08,2.52-2.01
				c0.38-0.6,0.65-1.28,0.74-2.01h-1.05h-3.81h-1.57h-9.61h-1.29h-51.24c0,0.07-0.02,0.13-0.01,0.2l0.06,1.96l0.06,2.16h0h49.12
				h2.01H389.66z"/>
		</g>
	</g>
</g>
<g data-group="SawM_DoubleHeads">
	<g>
		<path class="st6" d="M82.6,12.67c-0.08-0.08-0.18-0.14-0.27-0.22c0.94,0.77,1.56,1.93,1.56,3.24v4.05v5.84v25.38v4.2v0
			c0,2.32-1.88,4.2-4.2,4.2h17.83c2.32,0,4.2-1.88,4.2-4.2V32.89c0-1.14-0.46-2.23-1.29-3.02L82.6,12.67z"/>
		<path class="st6" d="M389.2,29.86l-17.83-17.19c-0.08-0.08-0.18-0.14-0.27-0.21c0.94,0.77,1.55,1.93,1.55,3.24v4.05v5.84v25.38
			v4.2v0c0,2.32-1.88,4.2-4.2,4.2h17.83c2.32,0,4.2-1.88,4.2-4.2V32.89C390.49,31.75,390.02,30.66,389.2,29.86z"/>
	</g>
	<g>
		<path class="st2" d="M82.33,12.46c-0.11-0.09-0.22-0.19-0.33-0.26c-0.11-0.07-0.22-0.12-0.34-0.18c-0.12-0.07-0.25-0.14-0.38-0.2
			c-0.13-0.05-0.27-0.08-0.4-0.12c-0.13-0.04-0.25-0.09-0.38-0.11c-0.27-0.05-0.54-0.08-0.82-0.08H62.18
			c-1.11,0-2.18,0.44-2.97,1.23l-2.97,2.97l-4.03,4.03c-0.79,0.79-1.23,1.86-1.23,2.97v32.47v0c0,2.32,1.88,4.2,4.2,4.2h24.51
			c2.32,0,4.2-1.88,4.2-4.2v0v-4.2V25.59v-5.84V15.7C83.88,14.39,83.27,13.23,82.33,12.46z M69.84,55.17h-2.16v0V51.7
			c-0.34-0.23-0.66-0.48-0.98-0.73c-3.85-3.02-6.54-7.43-7.33-12.48c-0.16-1-0.26-2.01-0.26-3.05s0.1-2.05,0.26-3.05
			c0.79-5.05,3.48-9.47,7.33-12.48c0.32-0.25,0.64-0.5,0.98-0.73V15.7v0h2.16v0v4.2v31.07V55.17L69.84,55.17z"/>
		<path class="st2" d="M371.11,12.46c-0.11-0.09-0.22-0.19-0.34-0.27c-0.11-0.07-0.22-0.12-0.34-0.18c-0.12-0.07-0.25-0.14-0.38-0.2
			c-0.13-0.05-0.27-0.08-0.4-0.12c-0.12-0.04-0.25-0.09-0.37-0.11c-0.27-0.05-0.54-0.08-0.82-0.08h-17.51
			c-1.11,0-2.18,0.44-2.97,1.23l-2.97,2.97l-4.03,4.03c-0.39,0.39-0.7,0.86-0.91,1.36c-0.21,0.5-0.32,1.05-0.32,1.61v32.47v0
			c0,2.32,1.88,4.2,4.2,4.2h24.51c2.32,0,4.2-1.88,4.2-4.2v0v-4.2V25.59v-5.84V15.7C372.66,14.39,372.05,13.23,371.11,12.46z
			 M358.61,55.17h-2.16v0V51.7c-0.34-0.23-0.66-0.48-0.98-0.73c-3.85-3.02-6.54-7.43-7.33-12.48c-0.16-1-0.26-2.01-0.26-3.05
			s0.1-2.05,0.26-3.05c0.79-5.05,3.48-9.47,7.33-12.48c0.32-0.25,0.64-0.5,0.98-0.73V15.7v0h2.16v0v4.2v31.07V55.17L358.61,55.17z"
			/>
	</g>
	<g>
		<path class="st7" d="M67.68,15.7v3.47c0.35-0.24,0.71-0.46,1.08-0.67v1.4v31.07v1.4c-0.36-0.22-0.73-0.43-1.08-0.67v3.47v0h2.16v0
			v-4.2V19.9v-4.2v0L67.68,15.7L67.68,15.7z"/>
		<path class="st7" d="M356.46,15.7L356.46,15.7v3.47c0.35-0.24,0.71-0.46,1.08-0.67v1.4v31.07v1.4c-0.36-0.22-0.73-0.43-1.08-0.67
			v3.47v0h2.16v0v-4.2V19.9v-4.2v0H356.46z"/>
	</g>
	<g>
		<path class="st11" d="M66.7,19.9c-3.85,3.02-6.54,7.43-7.33,12.48c-0.16,1-0.26,2.01-0.26,3.05s0.1,2.05,0.26,3.05
			c0.79,5.05,3.48,9.47,7.33,12.48c0.32,0.25,0.64,0.5,0.98,0.73c0.35,0.24,0.71,0.46,1.08,0.67v-1.4V19.9v-1.4
			c-0.36,0.22-0.73,0.43-1.08,0.67C67.35,19.4,67.02,19.65,66.7,19.9z"/>
		<path class="st11" d="M356.46,19.17c-0.34,0.23-0.66,0.48-0.98,0.73c-3.85,3.02-6.54,7.43-7.33,12.48c-0.16,1-0.26,2.01-0.26,3.05
			s0.1,2.05,0.26,3.05c0.79,5.05,3.48,9.47,7.33,12.48c0.32,0.25,0.64,0.5,0.98,0.73c0.35,0.24,0.71,0.46,1.08,0.67v-1.4V19.9v-1.4
			C357.17,18.71,356.8,18.93,356.46,19.17z"/>
	</g>
</g>
<g id="BLITZ_BODY">
	<g>
		<path class="st6" d="M156.85,115.19h-2.29l-0.18,1.81h2.47h-2.47l-0.18,1.81h2.66c1,0,1.81-0.81,1.81-1.81
			S157.85,115.19,156.85,115.19z"/>
		<path class="st6" d="M67.93,117h49.03l-0.18-1.81H67.93c-1,0-1.81,0.81-1.81,1.81s0.81,1.81,1.81,1.81h49.21l-0.18-1.81H67.93z"/>
		<g>
			<path class="st2" d="M155.27,74.97c-0.39-0.5-0.99-0.83-1.67-0.83c-0.92,0-1.69,0.58-1.99,1.4c-0.08,0.23-0.14,0.47-0.14,0.73
				c0,1.13,0.88,2.04,1.99,2.11c0.05,0,0.09,0.01,0.14,0.01c0.68,0,1.29-0.33,1.67-0.83c0.28-0.36,0.45-0.81,0.45-1.3
				S155.55,75.33,155.27,74.97z"/>
			<path class="st2" d="M153.59,80.22c-0.05,0-0.09,0.01-0.14,0.01c-0.74,0.07-1.33,0.69-1.33,1.45c0,0.76,0.58,1.38,1.33,1.45
				c0.05,0,0.09,0.01,0.14,0.01c0.81,0,1.46-0.66,1.46-1.46C155.06,80.88,154.4,80.22,153.59,80.22z"/>
			<path class="st2" d="M153.59,85.57c-0.05,0-0.09,0.01-0.14,0.01c-0.74,0.07-1.33,0.69-1.33,1.45c0,0.6,0.36,1.12,0.88,1.34
				c0.18,0.08,0.38,0.12,0.58,0.12c0.21,0,0.41-0.04,0.58-0.12c0.52-0.23,0.88-0.74,0.88-1.34
				C155.06,86.22,154.4,85.57,153.59,85.57z"/>
		</g>
		<path class="st4" d="M112.87,6.92c0-0.34-0.27-0.61-0.61-0.61H37.38c-0.34,0-0.61,0.27-0.61,0.61V55.2h76.1V6.92z"/>
		<g>
			<path class="st11" d="M48.66,69.29l0.77,27l0.07,2.42l0.02,0.82l0.09,3.23l0.04,1.57c0.03,1.2,1.01,2.15,2.21,2.15h45.09
				c1.18,0,2.15-0.92,2.21-2.1l0.08-1.62l0.16-3.23l0.04-0.82l0.12-2.42l1.33-27H48.66z"/>
		</g>
		<g>
			<rect x="117.88" y="75.53" class="st0" width="32.85" height="12.84"/>
			<path class="st0" d="M108.1,60.07H40.9c-0.78,0-1.42,0.63-1.42,1.42c0,0.78,0.63,1.42,1.42,1.42h67.2c0.78,0,1.42-0.63,1.42-1.42
				C109.51,60.7,108.88,60.07,108.1,60.07z"/>
			<path class="st0" d="M396.87,60.21h-67.2c-0.78,0-1.42,0.63-1.42,1.42c0,0.78,0.63,1.42,1.42,1.42h67.2
				c0.78,0,1.42-0.63,1.42-1.42C398.29,60.84,397.65,60.21,396.87,60.21z"/>
		</g>
		<path class="st4" d="M399.47,55.34h2.18V7.06c0-0.34-0.27-0.61-0.61-0.61h-74.88c-0.34,0-0.61,0.27-0.61,0.61v48.28h1.93H399.47z"
			/>
		<g>
			<path class="st7" d="M155.27,71.91h-39.19c-1,0-1.81,0.81-1.81,1.81v16.46c0,0.03,0.01,0.06,0.01,0.09c0,0.03,0,0.06,0,0.09
				l2.5,24.83l0.18,1.81l0.18,1.81l0.93,9.24c0.09,0.92,0.87,1.63,1.8,1.63h31.59c0.93,0,1.71-0.7,1.8-1.63l0.93-9.24l0.18-1.81
				l0.18-1.81l2.5-24.83c0-0.03,0-0.06,0-0.09c0-0.03,0.01-0.06,0.01-0.09V73.72C157.08,72.72,156.27,71.91,155.27,71.91z
				 M117.88,75.53h32.85v12.84h-32.85V75.53z M153.59,74.14c0.68,0,1.29,0.33,1.67,0.83c0.28,0.36,0.45,0.81,0.45,1.3
				s-0.17,0.94-0.45,1.3c-0.39,0.5-0.99,0.83-1.67,0.83c-0.05,0-0.09-0.01-0.14-0.01c-1.11-0.07-1.99-0.99-1.99-2.11
				c0-0.26,0.05-0.5,0.14-0.73C151.9,74.72,152.68,74.14,153.59,74.14z M153.59,88.5c-0.21,0-0.41-0.04-0.58-0.12
				c-0.52-0.23-0.88-0.74-0.88-1.34c0-0.76,0.58-1.38,1.33-1.45c0.05,0,0.09-0.01,0.14-0.01c0.81,0,1.46,0.66,1.46,1.46
				c0,0.6-0.36,1.12-0.88,1.34C154,88.45,153.8,88.5,153.59,88.5z M152.13,81.69c0-0.76,0.58-1.38,1.33-1.45
				c0.05,0,0.09-0.01,0.14-0.01c0.81,0,1.46,0.66,1.46,1.46c0,0.81-0.66,1.46-1.46,1.46c-0.05,0-0.09-0.01-0.14-0.01
				C152.71,83.07,152.13,82.45,152.13,81.69z"/>
			<path class="st7" d="M539.44,57.35h-6.25c-0.84,0-1.52,0.68-1.52,1.52v6.25c0,0,0,0,0,0.01h9.29c0,0,0,0,0-0.01v-6.25
				C540.97,58.03,540.28,57.35,539.44,57.35z"/>
			<path class="st7" d="M419.16,57.35h-6.25c-0.84,0-1.52,0.68-1.52,1.52v6.25c0,0,0,0,0,0.01h9.29c0,0,0,0,0-0.01v-6.25
				C420.69,58.03,420,57.35,419.16,57.35z"/>
			<path class="st7" d="M464.78,52.55c-0.17-0.68-0.78-1.16-1.48-1.16h-3.2c-0.7,0-1.31,0.48-1.48,1.16l-1.35,5.57
				c-0.13,0.22-0.21,0.48-0.21,0.76v6.25c0,0,0,0,0,0.01h9.29c0,0,0,0,0-0.01v-6.25c0-0.28-0.08-0.53-0.21-0.76L464.78,52.55z"/>
			<path class="st7" d="M224.22,77.44h-2.09h-15.26h-3.23v2.16h-12.66c-0.45-1.25-1.63-2.16-3.04-2.16c-1.79,0-3.23,1.45-3.23,3.23
				v22.08v0.58v3.17c0,1.79,1.45,3.23,3.23,3.23s3.23-1.45,3.23-3.23v-3.17v-0.58V81.75h12.46v2.16h3.23h15.26h2.09
				c1.79,0,3.23-1.45,3.23-3.23C227.45,78.89,226.01,77.44,224.22,77.44z"/>
			<path class="st7" d="M117.18,64.37V6.92c0-2.71-2.21-4.92-4.92-4.92H37.38c-2.71,0-4.92,2.21-4.92,4.92v57.46
				c0,2.71,2.21,4.92,4.92,4.92h11.28h52.23h11.37C114.97,69.29,117.18,67.09,117.18,64.37z M36.77,6.92c0-0.34,0.27-0.61,0.61-0.61
				h74.88c0.34,0,0.61,0.27,0.61,0.61V55.2h-76.1V6.92z M108.1,62.9H40.9c-0.78,0-1.42-0.63-1.42-1.42c0-0.78,0.63-1.42,1.42-1.42
				h67.2c0.78,0,1.42,0.63,1.42,1.42C109.51,62.27,108.88,62.9,108.1,62.9z"/>
			<path class="st7" d="M401.04,2.14h-74.88c-2.71,0-4.92,2.21-4.92,4.92v48.28v9.17c0,0.21,0.02,0.41,0.04,0.61
				c0.09,0.68,0.32,1.32,0.66,1.89c0.05,0.09,0.09,0.18,0.15,0.27c0.89,1.3,2.38,2.16,4.07,2.16h11.28l-0.06-2.16l-0.06-1.96
				c0-0.07,0.01-0.13,0.01-0.2h51.24h1.29h9.61h1.57h3.81h1.05c0.03-0.2,0.06-0.4,0.06-0.61v-9.17V7.06
				C405.96,4.35,403.75,2.14,401.04,2.14z M396.87,63.04h-67.2c-0.78,0-1.42-0.63-1.42-1.42c0-0.78,0.63-1.42,1.42-1.42h67.2
				c0.78,0,1.42,0.63,1.42,1.42C398.29,62.41,397.65,63.04,396.87,63.04z M399.47,55.34h-71.99h-1.93V7.06
				c0-0.34,0.27-0.61,0.61-0.61h74.88c0.34,0,0.61,0.27,0.61,0.61v48.28H399.47z"/>
		</g>
	</g>
</g>
<g id="Layer_6">
</g>
<g data-highlighted="SawM_DoubleHeads">
	<path class="st4" d="M79.68,11.5c0.14,0,0.28,0.01,0.41,0.02c0.07,0.01,0.15,0.02,0.22,0.03c0.06,0.01,0.12,0.02,0.18,0.03
		c0.09,0.02,0.17,0.04,0.26,0.06c0.04,0.01,0.09,0.02,0.13,0.03c0.09,0.03,0.17,0.06,0.26,0.09c0.04,0.02,0.08,0.03,0.12,0.04
		c0.08,0.03,0.16,0.07,0.24,0.11c0.04,0.02,0.09,0.04,0.13,0.06c0.07,0.04,0.14,0.08,0.21,0.12c0.05,0.03,0.1,0.06,0.14,0.09
		c0.06,0.04,0.12,0.09,0.18,0.13c0.05,0.04,0.1,0.07,0.15,0.11c0.06,0.04,0.11,0.09,0.16,0.14c0.04,0.03,0.08,0.07,0.12,0.1
		l17.83,17.19c0.82,0.79,1.29,1.88,1.29,3.02v22.28c0,2.32-1.88,4.2-4.2,4.2H79.68H55.17c-2.32,0-4.2-1.88-4.2-4.2v0V22.7
		c0-1.11,0.44-2.18,1.23-2.97l4.03-4.03l2.97-2.97c0.79-0.79,1.86-1.23,2.97-1.23H79.68 M79.68,2.58H62.18
		c-3.51,0-6.8,1.37-9.28,3.84l-2.97,2.97l-4.03,4.03c-2.48,2.48-3.84,5.77-3.84,9.28v32.47c0,7.24,5.89,13.12,13.12,13.12h24.51
		h17.83c7.24,0,13.12-5.89,13.12-13.12V32.89c0-3.54-1.46-6.99-4.01-9.45L88.79,6.25c-0.14-0.13-0.28-0.26-0.42-0.38
		c-0.15-0.13-0.29-0.25-0.44-0.37c-0.16-0.13-0.31-0.24-0.47-0.36C87.27,5,87.09,4.87,86.9,4.74c-0.15-0.1-0.31-0.2-0.47-0.29
		c-0.2-0.12-0.41-0.24-0.63-0.36c-0.14-0.08-0.29-0.15-0.45-0.22c-0.24-0.11-0.47-0.22-0.7-0.32c-0.15-0.06-0.3-0.12-0.45-0.17
		c-0.25-0.09-0.49-0.18-0.74-0.25C83.3,3.09,83.14,3.04,82.98,3c-0.25-0.07-0.49-0.12-0.74-0.17c-0.2-0.04-0.4-0.07-0.6-0.1
		c-0.2-0.03-0.43-0.06-0.66-0.09C80.54,2.6,80.11,2.58,79.68,2.58L79.68,2.58z"/>
	<path class="st4" d="M368.46,11.5c0.14,0,0.28,0.01,0.41,0.02c0.07,0.01,0.15,0.02,0.22,0.03c0.06,0.01,0.12,0.02,0.18,0.03
		c0.09,0.02,0.17,0.04,0.26,0.06c0.04,0.01,0.09,0.02,0.14,0.03c0.09,0.03,0.17,0.06,0.26,0.09c0.04,0.02,0.08,0.03,0.13,0.05
		c0.08,0.03,0.16,0.07,0.24,0.11c0.04,0.02,0.09,0.04,0.13,0.06c0.07,0.04,0.14,0.08,0.21,0.12c0.05,0.03,0.1,0.06,0.14,0.09
		c0.06,0.04,0.12,0.09,0.18,0.13c0.05,0.04,0.1,0.07,0.15,0.11c0.05,0.04,0.11,0.09,0.16,0.14c0.04,0.03,0.08,0.07,0.12,0.1
		l17.83,17.19c0.82,0.79,1.29,1.88,1.29,3.02v22.28c0,2.32-1.88,4.2-4.2,4.2h-17.83h-24.51c-2.32,0-4.2-1.88-4.2-4.2v0V22.7
		c0-0.42,0.06-0.83,0.18-1.22c0.2-0.65,0.56-1.26,1.05-1.75l4.03-4.03l2.97-2.97c0.79-0.79,1.86-1.23,2.97-1.23H368.46 M368.46,2.58
		h-17.51c-3.51,0-6.8,1.37-9.28,3.84l-2.97,2.97l-4.03,4.03c-1.52,1.52-2.65,3.41-3.28,5.46c-0.38,1.24-0.57,2.52-0.57,3.82v32.47
		c0,7.24,5.89,13.12,13.12,13.12h24.51h17.83c7.24,0,13.12-5.89,13.12-13.12V32.89c0-3.54-1.46-6.99-4.01-9.45L377.57,6.25
		c-0.14-0.13-0.28-0.26-0.42-0.39c-0.15-0.13-0.29-0.26-0.44-0.37c-0.15-0.12-0.31-0.24-0.47-0.36c-0.19-0.14-0.37-0.27-0.56-0.4
		c-0.14-0.09-0.3-0.19-0.46-0.29c-0.2-0.12-0.41-0.24-0.63-0.36c-0.15-0.08-0.3-0.15-0.45-0.22c-0.24-0.12-0.47-0.22-0.7-0.31
		c-0.15-0.06-0.3-0.12-0.46-0.18c-0.25-0.09-0.49-0.17-0.73-0.25c-0.16-0.05-0.33-0.09-0.49-0.13c-0.25-0.07-0.49-0.12-0.74-0.17
		c-0.2-0.04-0.4-0.07-0.6-0.1c-0.2-0.03-0.43-0.06-0.65-0.09C369.31,2.6,368.88,2.58,368.46,2.58L368.46,2.58z"/>
</g>
<g data-highlighted="SawM_Axes">
	<path class="st4" d="M567.08,86.47h-17.23c5.53-0.54,9.86-5.21,9.86-10.88v-8.45c0-6.03-4.91-10.94-10.93-10.94H339.53
		c-2.99,0-5.9,1.23-7.98,3.37c-2.08,2.14-3.23,5.09-3.14,8.07l0.61,19.72H33.83c-4.93,0-8.92,3.99-8.92,8.92v5.65v0.82v23.75
		c0,6.7,5.45,12.15,12.15,12.15h17.28c1.7,4.66,6.18,7.99,11.42,7.99h6.61c5.24,0,9.71-3.33,11.42-7.99h90.48
		c1.7,4.66,6.18,7.99,11.42,7.99h6.61c5.24,0,9.71-3.33,11.42-7.99h90.48c1.7,4.66,6.18,7.99,11.42,7.99h6.61
		c5.24,0,9.71-3.33,11.42-7.99h90.48c1.7,4.66,6.18,7.99,11.42,7.99h6.61c5.24,0,9.71-3.33,11.42-7.99h90.48
		c1.7,4.66,6.18,7.99,11.42,7.99h6.61c5.24,0,9.71-3.33,11.42-7.99h0.34c6.7,0,12.15-5.45,12.15-12.15v-24.64v-0.82v-5.65
		C576,90.46,572.01,86.47,567.08,86.47z M567.08,101.86v24.64c0,1.79-1.45,3.23-3.23,3.23h-8.53v4.75c0,1.79-1.45,3.23-3.23,3.23
		h-6.61c-1.79,0-3.23-1.45-3.23-3.23v-4.75H435.39v4.75c0,1.79-1.45,3.23-3.23,3.23h-6.61c-1.79,0-3.23-1.45-3.23-3.23v-4.75H315.47
		v4.75c0,1.79-1.45,3.23-3.23,3.23h-6.61c-1.79,0-3.23-1.45-3.23-3.23v-4.75H195.54v4.75c0,1.79-1.45,3.23-3.23,3.23h-6.61
		c-1.79,0-3.23-1.45-3.23-3.23v-4.75H75.61v4.75c0,1.79-1.45,3.23-3.23,3.23h-6.61c-1.79,0-3.23-1.45-3.23-3.23v-4.75H37.07
		c-1.79,0-3.23-1.45-3.23-3.23v-23.75v-0.82v-5.65h304.37l-0.89-28.89c-0.02-0.6,0.21-1.18,0.62-1.6c0.42-0.43,0.99-0.67,1.58-0.67
		h209.25c1.11,0,2.01,0.9,2.01,2.01v8.45c0,1.11-0.9,2.01-2.01,2.01h-62.68l-97.22,15.41c-0.11,0.02-0.21,0.02-0.32,0.02
		c-0.02,0-0.05-0.01-0.07-0.01l-0.16,3.26h178.74l0,4.75V101.86z"/>
</g>
</svg>
