<?xml version="1.0" encoding="utf-8"?>
<!-- Generator: Adobe Illustrator 24.1.2, SVG Export Plug-In . SVG Version: 6.00 Build 0)  -->
<svg version="1.1" xmlns="http://www.w3.org/2000/svg" xmlns:xlink="http://www.w3.org/1999/xlink" x="0px" y="0px"
	 viewBox="0 0 1353 344.46" style="enable-background:new 0 0 1353 344.46;" xml:space="preserve">
<style type="text/css">
	.st0{fill:#FFFFFF;}
	.st11{fill:#246047;}
	.st11{fill:#246047;}
	.st2{fill:#4A7E68;}
	.st3{fill:#215F46;}
	.st4{fill:none;}		
	.st6{fill:#00563F;}
	.st7{fill:#005140;}
</style>
<g id="BLITZ_BODY2">
	<path class="st2" d="M51.47,59.17H4.73C2.12,59.17,0,61.29,0,63.91v217.22c0,2.61,2.12,4.73,4.73,4.73h22.65H50h1.46h4.73v-4.73
		v-42.29v-50.48V63.91C56.2,61.29,54.08,59.17,51.47,59.17z"/>
	<path class="st11" d="M96.95,188.35H56.2v50.48v42.29v4.73h-4.73H50c0.07,0,0.14,0.02,0.21,0.02h46.73c2.61,0,4.73-2.12,4.73-4.73
		v-88.07C101.68,190.47,99.56,188.35,96.95,188.35z"/>
</g>
<g data-group="SawM_Axes">
	<g>
		<path class="st4" d="M800.15,248.77h105.94c2.77,0,5.05-2.18,5.19-4.96l0.08-1.83l-0.09,1.84c-0.14,2.76-2.42,4.94-5.18,4.94
			H800.16c-1.4,0-2.68-0.56-3.62-1.47C797.47,248.2,798.75,248.77,800.15,248.77z"/>
		<polygon class="st4" points="449.07,240.03 794.86,240.03 794.87,240.35 794.86,240.02 449.07,240.02 		"/>
		<rect x="162.08" y="306.62" class="st3" width="0.35" height="0.35"/>
		<rect x="443.78" y="306.62" class="st3" width="0.35" height="0.35"/>
		<rect x="725.48" y="306.62" class="st3" width="0.35" height="0.35"/>
		<rect x="1007.19" y="306.62" class="st3" width="0.35" height="0.35"/>
		<rect x="1288.89" y="306.62" class="st3" width="0.35" height="0.35"/>
		<path class="st11" d="M912.74,161.75h-4.73H792.63l1.8,63.08l0.16,5.68l0.05,1.92l0.22,7.59l0.01,0.33l0.11,3.37
			c0.04,1.4,0.63,2.66,1.56,3.57c0.94,0.91,2.21,1.47,3.62,1.47h105.92c2.77,0,5.05-2.17,5.18-4.94l0.09-1.84l0.08-1.95h0.01l0-0.01
			l0.37-7.59l0.09-1.92l0.28-5.68l0.38-7.66l0.23-4.73l2.49-50.7H912.74z"/>
		<g>
			<path class="st2" d="M1233.69,281.4h-4.8v4.17h4.8c2.08,0,3.13-0.7,3.13-2.08C1236.82,281.91,1235.75,281.4,1233.69,281.4z"/>
			<path class="st2" d="M1236.28,275.12c0-1.45-0.95-2.15-2.94-2.15h-4.45v4.48h4.45C1235.59,277.46,1236.28,276.79,1236.28,275.12z
				"/>
			<path class="st2" d="M913.48,217.13l228.36-36.19h147.22c2.61,0,4.73-2.12,4.73-4.73v-19.85c0-2.61-2.12-4.73-4.73-4.73h-18.36
				h-21.83h-153.46h-21.83h-85.41h-21.83h-12.91c-0.22,1.73-0.85,3.32-1.74,4.73c-1.38,2.18-3.44,3.87-5.92,4.73
				c-1.18,0.41-2.43,0.66-3.75,0.66h-24.55h-2.15h-0.02l-2.49,50.7l-0.23,4.73c0.05,0,0.11,0.01,0.16,0.01
				C912.99,217.19,913.23,217.17,913.48,217.13z"/>
			<path class="st2" d="M911.45,240.03h-0.01l-0.08,1.95l-0.08,1.83c-0.14,2.77-2.42,4.96-5.19,4.96H800.15
				c-1.4,0-2.67-0.56-3.61-1.48c-0.93-0.91-1.53-2.17-1.56-3.57l-0.11-3.37l-0.01-0.32H449.07h-7.59h-7.61H79.46v55.76
				c0,4.2,3.41,7.61,7.61,7.61h59.82v11.15c0,4.19,3.4,7.6,7.59,7.6h15.54c4.19,0,7.59-3.4,7.59-7.6V303.4h250.98v11.15
				c0,4.19,3.4,7.6,7.59,7.6h15.54c4.19,0,7.59-3.4,7.59-7.6V303.4h250.98v11.15c0,4.19,3.4,7.6,7.59,7.6h15.54
				c4.19,0,7.6-3.4,7.6-7.6V303.4H992v11.15c0,4.19,3.4,7.6,7.6,7.6h15.54c4.19,0,7.6-3.4,7.6-7.6V303.4h250.98v11.15
				c0,4.19,3.4,7.6,7.6,7.6h15.54c4.19,0,7.6-3.4,7.6-7.6V303.4h20.03c4.18,0,7.59-3.41,7.59-7.61v-55.76H911.45z M162.43,306.96
				h-0.35v-0.35h0.35V306.96z M444.13,306.96h-0.35v-0.35h0.35V306.96z M725.83,306.96h-0.35v-0.35h0.35V306.96z M1007.53,306.96
				h-0.35v-0.35h0.35V306.96z M1234.29,290.02h-10.58v-21.47h9.32c6.22,0,8.18,2.46,8.18,5.9c0,2.21-1.55,3.76-2.02,4.1
				c2.08,1.04,3.22,2.91,3.22,5.21C1242.41,287.28,1240.17,290.02,1234.29,290.02z M1262.5,290.02h-16.45v-21.47h5.18v16.67h11.27
				V290.02z M1271.39,290.02h-5.18v-21.47h5.18V290.02z M1289.24,306.96h-0.35v-0.35h0.35V306.96z M1274.93,268.55h20.46v4.8h-7.61
				v16.67h-5.24v-16.67h-7.61V268.55z M1318.77,290.02h-21.38v-4.64l13.89-12.03h-13.07v-4.8h20.34v4.58l-13.51,12.09h13.74V290.02z
				"/>
		</g>
		<path class="st0" d="M1242.41,283.77c0-2.31-1.14-4.17-3.22-5.21c0.47-0.35,2.02-1.89,2.02-4.1c0-3.44-1.96-5.9-8.18-5.9h-9.32
			v21.47h10.58C1240.17,290.02,1242.41,287.28,1242.41,283.77z M1228.89,272.97h4.45c1.99,0,2.94,0.7,2.94,2.15
			c0,1.67-0.7,2.34-2.94,2.34h-4.45V272.97z M1228.89,285.57v-4.17h4.8c2.05,0,3.13,0.5,3.13,2.08c0,1.39-1.04,2.08-3.13,2.08
			H1228.89z"/>
		<polygon class="st0" points="1262.5,285.22 1251.23,285.22 1251.23,268.55 1246.05,268.55 1246.05,290.02 1262.5,290.02 		"/>
		<rect x="1266.21" y="268.55" class="st0" width="5.18" height="21.47"/>
		<polygon class="st0" points="1282.54,290.02 1287.78,290.02 1287.78,273.35 1295.39,273.35 1295.39,268.55 1274.93,268.55 
			1274.93,273.35 1282.54,273.35 		"/>
		<polygon class="st0" points="1318.77,285.22 1305.03,285.22 1318.54,273.13 1318.54,268.55 1298.21,268.55 1298.21,273.35 
			1311.28,273.35 1297.39,285.38 1297.39,290.02 1318.77,290.02 		"/>
		<g>
			<polygon class="st7" points="912.2,224.83 911.92,230.51 911.83,232.43 911.45,240.02 1332.05,240.02 1332.05,238.1 
				1332.05,224.83 			"/>
			<polygon class="st7" points="794.59,230.51 794.43,224.83 449.07,224.83 441.47,224.83 433.88,224.83 79.47,224.83 79.47,238.1 
				79.47,240.02 233.13,240.02 235.79,240.02 433.87,240.02 433.87,240.03 441.48,240.03 449.07,240.03 449.07,240.02 
				794.86,240.02 794.65,232.43 			"/>
			<path class="st7" d="M915.3,161.75h0.02h2.15h24.55c1.32,0,2.57-0.25,3.75-0.66c2.47-0.86,4.54-2.55,5.92-4.73
				c0.89-1.41,1.52-3,1.74-4.73h-2.46h-8.95h-3.69h-22.57h-3.02H792.38c-0.01,0.16-0.04,0.31-0.03,0.46l0.13,4.6l0.14,5.06h0.01
				h115.38h4.73H915.3z"/>
		</g>
	</g>
</g>
<g data-group="SawM_DoubleHeads">
	<g>
		<path class="st6" d="M194.02,28.43c-0.2-0.19-0.43-0.33-0.64-0.51c2.21,1.81,3.65,4.53,3.65,7.61v9.52v13.71v59.62v9.87v0
			c0,5.45-4.42,9.87-9.87,9.87h41.87c5.45,0,9.87-4.42,9.87-9.87V75.91c0-2.68-1.09-5.24-3.02-7.1L194.02,28.43z"/>
		<path class="st6" d="M914.22,68.8l-41.87-40.38c-0.2-0.19-0.42-0.33-0.63-0.5c2.21,1.81,3.65,4.53,3.65,7.61v9.52v13.71v59.62
			v9.87v0c0,5.45-4.42,9.87-9.87,9.87h41.87c5.45,0,9.87-4.42,9.87-9.87V75.91C917.23,73.23,916.15,70.66,914.22,68.8z"/>
	</g>
	<g>
		<path class="st2" d="M193.39,27.92c-0.26-0.21-0.51-0.44-0.78-0.62c-0.25-0.17-0.53-0.29-0.79-0.43
			c-0.29-0.16-0.58-0.33-0.89-0.46c-0.3-0.12-0.63-0.2-0.94-0.29c-0.29-0.09-0.58-0.2-0.88-0.26c-0.62-0.12-1.27-0.19-1.93-0.19
			h-41.12c-2.62,0-5.13,1.04-6.98,2.89l-6.98,6.98L122.62,45c-1.85,1.85-2.89,4.36-2.89,6.98v76.27v0c0,5.45,4.42,9.87,9.87,9.87
			h57.57c5.45,0,9.87-4.42,9.87-9.87v0v-9.87V58.76V45.05v-9.52C197.04,32.45,195.6,29.73,193.39,27.92z M164.04,128.25h-5.06v0
			v-8.15c-0.79-0.54-1.54-1.13-2.29-1.71c-9.05-7.09-15.37-17.45-17.22-29.33c-0.36-2.34-0.61-4.72-0.61-7.16s0.25-4.82,0.61-7.16
			c1.85-11.87,8.17-22.24,17.22-29.33c0.75-0.59,1.51-1.17,2.29-1.71v-8.15v0h5.06v0v9.87v72.98V128.25L164.04,128.25z"/>
		<path class="st2" d="M871.71,27.92c-0.26-0.21-0.51-0.44-0.79-0.62c-0.25-0.17-0.53-0.29-0.79-0.43
			c-0.29-0.16-0.58-0.33-0.89-0.46c-0.3-0.12-0.63-0.2-0.94-0.29c-0.29-0.09-0.58-0.2-0.88-0.26c-0.62-0.12-1.27-0.19-1.93-0.19
			h-41.13c-2.62,0-5.13,1.04-6.98,2.89l-6.98,6.98L800.94,45c-0.93,0.93-1.65,2.02-2.14,3.2c-0.49,1.19-0.75,2.47-0.75,3.78v76.27v0
			c0,5.45,4.42,9.87,9.87,9.87h57.57c5.45,0,9.87-4.42,9.87-9.87v0v-9.87V58.76V45.05v-9.52C875.36,32.45,873.92,29.73,871.71,27.92
			z M842.36,128.25h-5.06v0v-8.15c-0.79-0.54-1.54-1.13-2.29-1.71c-9.05-7.09-15.37-17.45-17.22-29.32
			c-0.36-2.34-0.61-4.72-0.61-7.17c0-2.44,0.25-4.82,0.61-7.17c1.85-11.87,8.17-22.24,17.22-29.32c0.75-0.59,1.51-1.17,2.29-1.71
			v-8.15v0h5.06v0v9.87v72.98V128.25L842.36,128.25z"/>
	</g>
	<g>
		<path class="st7" d="M158.98,35.53v8.15c0.82-0.56,1.68-1.07,2.53-1.58v3.3v72.98v3.3c-0.86-0.51-1.71-1.02-2.53-1.58v8.15v0h5.06
			v0v-9.87V45.4v-9.87v0L158.98,35.53L158.98,35.53z"/>
		<path class="st7" d="M837.3,35.53L837.3,35.53v8.16c0.82-0.56,1.68-1.07,2.53-1.58v3.3v72.98v3.3c-0.86-0.51-1.71-1.02-2.53-1.58
			v8.15v0h5.06v0v-9.87V45.4v-9.87v0H837.3z"/>
	</g>
	<g>
		<path class="st11" d="M156.69,45.4c-9.05,7.09-15.37,17.45-17.22,29.33c-0.36,2.34-0.61,4.72-0.61,7.16s0.25,4.82,0.61,7.16
			c1.85,11.87,8.17,22.24,17.22,29.33c0.75,0.59,1.5,1.17,2.29,1.71c0.82,0.56,1.68,1.07,2.53,1.58v-3.3V45.4v-3.3
			c-0.86,0.51-1.71,1.02-2.53,1.58C158.19,44.23,157.44,44.81,156.69,45.4z"/>
		<path class="st11" d="M837.3,43.69c-0.79,0.54-1.54,1.13-2.29,1.71c-9.05,7.09-15.37,17.45-17.22,29.32
			c-0.36,2.34-0.61,4.72-0.61,7.17c0,2.44,0.25,4.82,0.61,7.17c1.85,11.87,8.17,22.24,17.22,29.32c0.75,0.59,1.51,1.17,2.29,1.71
			c0.82,0.56,1.68,1.07,2.53,1.58v-3.3V45.4v-3.3C838.98,42.61,838.12,43.12,837.3,43.69z"/>
	</g>
</g>
<g id="BLITZ_BODY">
	<g>
		<path class="st6" d="M368.45,269.23h-5.38l-0.43,4.25h5.81h-5.81l-0.43,4.25h6.24c2.35,0,4.25-1.9,4.25-4.25
			C372.7,271.14,370.79,269.23,368.45,269.23z"/>
		<path class="st6" d="M159.57,273.49h115.16l-0.43-4.25H159.57c-2.35,0-4.25,1.9-4.25,4.25c0,2.35,1.9,4.25,4.25,4.25h115.59
			l-0.43-4.25H159.57z"/>
		<g>
			<path class="st2" d="M364.72,174.75c-0.91-1.18-2.33-1.95-3.93-1.95c-2.15,0-3.97,1.37-4.67,3.28c-0.2,0.54-0.32,1.11-0.32,1.72
				c0,2.65,2.07,4.8,4.68,4.96c0.11,0.01,0.21,0.03,0.32,0.03c1.61,0,3.02-0.77,3.93-1.95c0.66-0.85,1.06-1.89,1.06-3.05
				C365.78,176.64,365.37,175.6,364.72,174.75z"/>
			<path class="st2" d="M360.78,187.09c-0.11,0-0.21,0.02-0.32,0.03c-1.75,0.16-3.12,1.62-3.12,3.41c0,1.79,1.37,3.24,3.12,3.41
				c0.11,0.01,0.21,0.03,0.32,0.03c1.9,0,3.44-1.54,3.44-3.44C364.22,188.63,362.68,187.09,360.78,187.09z"/>
			<path class="st2" d="M360.78,199.65c-0.11,0-0.21,0.02-0.32,0.03c-1.75,0.16-3.12,1.62-3.12,3.41c0,1.41,0.85,2.62,2.07,3.15
				c0.42,0.18,0.88,0.29,1.37,0.29c0.49,0,0.95-0.11,1.37-0.29c1.22-0.53,2.07-1.74,2.07-3.15
				C364.22,201.19,362.68,199.65,360.78,199.65z"/>
		</g>
		<path class="st4" d="M265.13,14.9c0-0.79-0.64-1.43-1.43-1.43H87.8c-0.79,0-1.43,0.64-1.43,1.43v113.42h178.75V14.9z"/>
		<g>
			<path class="st11" d="M114.3,161.42l1.81,63.41l0.16,5.68l0.05,1.92l0.22,7.59l0.11,3.69c0.08,2.81,2.38,5.04,5.19,5.04h105.92
				c2.77,0,5.05-2.17,5.18-4.94l0.19-3.8l0.37-7.59l0.09-1.92l0.28-5.68l3.12-63.41H114.3z"/>
		</g>
		<g>
			<rect x="276.9" y="176.08" class="st0" width="77.16" height="30.16"/>
			<path class="st0" d="M253.91,139.75H96.07c-1.84,0-3.33,1.49-3.33,3.33c0,1.84,1.49,3.33,3.33,3.33h157.84
				c1.84,0,3.33-1.49,3.33-3.33C257.24,141.24,255.75,139.75,253.91,139.75z"/>
			<path class="st0" d="M932.23,140.08H774.39c-1.84,0-3.33,1.49-3.33,3.33c0,1.84,1.49,3.33,3.33,3.33h157.84
				c1.84,0,3.33-1.49,3.33-3.33C935.56,141.57,934.07,140.08,932.23,140.08z"/>
		</g>
		<path class="st4" d="M938.33,128.65h5.12V15.23c0-0.79-0.64-1.43-1.43-1.43H766.12c-0.79,0-1.43,0.64-1.43,1.43v113.42h4.53
			H938.33z"/>
		<g>
			<path class="st7" d="M364.72,167.57h-92.07c-2.35,0-4.25,1.9-4.25,4.25v38.67c0,0.07,0.02,0.14,0.02,0.22
				c0,0.07-0.01,0.14,0,0.21l5.88,58.31l0.43,4.25l0.43,4.25l2.19,21.71c0.22,2.17,2.05,3.83,4.23,3.83h74.21
				c2.18,0,4.01-1.65,4.23-3.83l2.19-21.71l0.43-4.25l0.43-4.25l5.88-58.31c0.01-0.07,0-0.14,0-0.21c0-0.07,0.02-0.14,0.02-0.22
				v-38.67C368.97,169.48,367.07,167.57,364.72,167.57z M276.9,176.08h77.16v30.16H276.9V176.08z M360.78,172.8
				c1.61,0,3.02,0.77,3.93,1.95c0.66,0.85,1.06,1.89,1.06,3.05c0,1.15-0.41,2.2-1.06,3.05c-0.91,1.18-2.33,1.95-3.93,1.95
				c-0.11,0-0.21-0.03-0.32-0.03c-2.61-0.17-4.68-2.31-4.68-4.96c0-0.61,0.12-1.18,0.32-1.72
				C356.81,174.17,358.63,172.8,360.78,172.8z M360.78,206.53c-0.49,0-0.95-0.11-1.37-0.29c-1.22-0.53-2.07-1.74-2.07-3.15
				c0-1.79,1.37-3.24,3.12-3.41c0.11-0.01,0.21-0.03,0.32-0.03c1.9,0,3.44,1.54,3.44,3.44c0,1.41-0.85,2.62-2.07,3.15
				C361.73,206.42,361.27,206.53,360.78,206.53z M357.34,190.53c0-1.79,1.37-3.24,3.12-3.41c0.11-0.01,0.21-0.03,0.32-0.03
				c1.9,0,3.44,1.54,3.44,3.44c0,1.9-1.54,3.44-3.44,3.44c-0.11,0-0.21-0.02-0.32-0.03C358.72,193.77,357.34,192.32,357.34,190.53z"
				/>
			<path class="st7" d="M1267.13,133.36h-14.67c-1.98,0-3.58,1.6-3.58,3.58v14.67c0,0.01,0,0.01,0,0.02h21.83c0-0.01,0-0.01,0-0.02
				v-14.67C1270.71,134.96,1269.1,133.36,1267.13,133.36z"/>
			<path class="st7" d="M984.59,133.36h-14.67c-1.98,0-3.58,1.6-3.58,3.58v14.67c0,0.01,0,0.01,0,0.02h21.83c0-0.01,0-0.01,0-0.02
				v-14.67C988.18,134.96,986.57,133.36,984.59,133.36z"/>
			<path class="st7" d="M1091.74,122.08c-0.39-1.6-1.83-2.73-3.48-2.73h-7.53c-1.65,0-3.09,1.13-3.48,2.73l-3.18,13.07
				c-0.3,0.53-0.49,1.13-0.49,1.78v14.67c0,0.01,0,0.01,0,0.02h21.83c0-0.01,0-0.01,0-0.02v-14.67c0-0.65-0.19-1.26-0.49-1.78
				L1091.74,122.08z"/>
			<path class="st7" d="M526.68,180.55h-4.92h-35.84h-7.59v5.06H448.6c-1.05-2.94-3.83-5.06-7.13-5.06c-4.19,0-7.59,3.4-7.59,7.59
				v51.87v1.36v7.44c0,4.19,3.4,7.59,7.59,7.59c4.19,0,7.59-3.4,7.59-7.59v-7.44v-1.36v-49.34h29.26v5.06h7.59h35.84h4.92
				c4.19,0,7.59-3.4,7.59-7.59C534.28,183.95,530.88,180.55,526.68,180.55z"/>
			<path class="st7" d="M275.25,149.86V14.9c0-6.37-5.18-11.56-11.56-11.56H87.8c-6.37,0-11.56,5.18-11.56,11.56v134.96
				c0,6.37,5.18,11.56,11.56,11.56h26.5H237h26.7C270.07,161.42,275.25,156.24,275.25,149.86z M86.37,14.9
				c0-0.79,0.64-1.43,1.43-1.43H263.7c0.79,0,1.43,0.64,1.43,1.43v113.42H86.37V14.9z M253.91,146.41H96.07
				c-1.84,0-3.33-1.49-3.33-3.33c0-1.84,1.49-3.33,3.33-3.33h157.84c1.84,0,3.33,1.49,3.33,3.33
				C257.24,144.92,255.75,146.41,253.91,146.41z"/>
			<path class="st7" d="M942.02,3.68H766.12c-6.37,0-11.56,5.18-11.56,11.56v113.42v21.54c0,0.49,0.04,0.96,0.1,1.43
				c0.21,1.6,0.76,3.1,1.55,4.44c0.12,0.21,0.22,0.43,0.35,0.63c2.08,3.05,5.58,5.06,9.55,5.06h26.5l-0.14-5.06l-0.13-4.6
				c0-0.16,0.02-0.31,0.03-0.46h120.36h3.02h22.57h3.69h8.95h2.46c0.06-0.47,0.14-0.94,0.14-1.43v-21.54V15.23
				C953.57,8.86,948.39,3.68,942.02,3.68z M932.23,146.74H774.39c-1.84,0-3.33-1.49-3.33-3.33c0-1.84,1.49-3.33,3.33-3.33h157.84
				c1.84,0,3.33,1.49,3.33,3.33C935.56,145.25,934.07,146.74,932.23,146.74z M938.33,128.65h-169.1h-4.53V15.23
				c0-0.79,0.64-1.43,1.43-1.43h175.89c0.79,0,1.43,0.64,1.43,1.43v113.42H938.33z"/>
		</g>
	</g>
</g>
<g id="Layer_6">
</g>
<g data-highlighted="SawM_DoubleHeads">
	<path class="st4" d="M187.17,25.66c0.33,0,0.65,0.02,0.97,0.05c0.17,0.02,0.34,0.05,0.52,0.08c0.14,0.02,0.29,0.04,0.43,0.07
		c0.21,0.04,0.41,0.1,0.61,0.15c0.1,0.03,0.21,0.05,0.31,0.08c0.21,0.06,0.41,0.14,0.61,0.21c0.1,0.04,0.19,0.07,0.29,0.11
		c0.19,0.08,0.37,0.17,0.56,0.26c0.1,0.05,0.21,0.09,0.31,0.15c0.17,0.09,0.33,0.19,0.49,0.29c0.11,0.07,0.23,0.13,0.33,0.2
		c0.15,0.1,0.28,0.2,0.42,0.3c0.12,0.09,0.23,0.17,0.35,0.26c0.13,0.1,0.25,0.22,0.38,0.33c0.09,0.08,0.19,0.16,0.27,0.24
		L235.9,68.8c1.93,1.86,3.02,4.42,3.02,7.1v52.34c0,5.45-4.42,9.87-9.87,9.87h-41.87H129.6c-5.45,0-9.87-4.42-9.87-9.87v0V51.98
		c0-2.62,1.04-5.13,2.89-6.98l9.47-9.47l6.98-6.98c1.85-1.85,4.36-2.89,6.98-2.89H187.17 M187.17,4.71h-41.12
		c-8.23,0-15.98,3.21-21.8,9.03l-6.98,6.98l-9.47,9.47c-5.82,5.82-9.03,13.56-9.03,21.8v76.27c0,17,13.83,30.82,30.82,30.82h57.57
		h41.87c17,0,30.82-13.83,30.82-30.82V75.91c0-8.32-3.44-16.41-9.43-22.19l-41.87-40.38c-0.32-0.31-0.65-0.61-0.99-0.9
		c-0.34-0.31-0.68-0.6-1.03-0.88c-0.37-0.3-0.73-0.57-1.1-0.84c-0.45-0.33-0.88-0.64-1.33-0.93c-0.34-0.23-0.72-0.46-1.1-0.68
		c-0.46-0.28-0.96-0.57-1.47-0.84c-0.33-0.18-0.69-0.35-1.05-0.52c-0.56-0.27-1.1-0.52-1.65-0.74c-0.34-0.14-0.69-0.27-1.05-0.4
		c-0.58-0.21-1.16-0.41-1.74-0.59c-0.39-0.12-0.76-0.22-1.14-0.31c-0.59-0.15-1.16-0.29-1.74-0.41c-0.48-0.09-0.94-0.17-1.41-0.24
		c-0.48-0.08-1.01-0.15-1.54-0.2C189.18,4.76,188.16,4.71,187.17,4.71L187.17,4.71z"/>
	<path class="st4" d="M865.49,25.66c0.33,0,0.65,0.02,0.97,0.05c0.17,0.02,0.34,0.05,0.51,0.07c0.14,0.02,0.29,0.04,0.43,0.07
		c0.2,0.04,0.4,0.1,0.6,0.15c0.11,0.03,0.21,0.05,0.32,0.08c0.2,0.06,0.4,0.14,0.6,0.21c0.1,0.04,0.2,0.07,0.29,0.11
		c0.19,0.08,0.37,0.17,0.55,0.26c0.1,0.05,0.21,0.1,0.31,0.15c0.17,0.09,0.33,0.19,0.49,0.28c0.11,0.07,0.23,0.13,0.34,0.21
		c0.14,0.1,0.28,0.2,0.42,0.3c0.12,0.09,0.24,0.17,0.35,0.26c0.13,0.1,0.25,0.22,0.38,0.33c0.09,0.08,0.19,0.16,0.28,0.24
		l41.87,40.38c1.93,1.86,3.02,4.42,3.02,7.1v52.34c0,5.45-4.42,9.87-9.87,9.87h-41.87h-57.57c-5.45,0-9.87-4.42-9.87-9.87v0V51.98
		c0-0.98,0.15-1.95,0.43-2.87c0.47-1.54,1.31-2.95,2.46-4.11l9.47-9.47l6.98-6.98c1.85-1.85,4.36-2.89,6.98-2.89H865.49
		 M865.49,4.71h-41.13c-8.23,0-15.97,3.21-21.8,9.03l-6.98,6.98l-9.47,9.47c-3.57,3.57-6.23,8-7.7,12.83
		c-0.88,2.91-1.33,5.92-1.33,8.96v76.27c0,17,13.83,30.82,30.82,30.82h57.57h41.87c17,0,30.82-13.83,30.82-30.82V75.91
		c0-8.32-3.44-16.41-9.43-22.19l-41.87-40.38c-0.32-0.31-0.66-0.61-1-0.91c-0.34-0.31-0.68-0.6-1.03-0.88
		c-0.35-0.28-0.72-0.56-1.1-0.84c-0.44-0.33-0.88-0.64-1.32-0.93c-0.33-0.22-0.71-0.45-1.09-0.68c-0.48-0.29-0.97-0.57-1.47-0.84
		c-0.34-0.18-0.7-0.36-1.06-0.53c-0.57-0.27-1.09-0.51-1.63-0.73c-0.35-0.14-0.71-0.28-1.08-0.41c-0.58-0.21-1.15-0.41-1.72-0.58
		c-0.39-0.12-0.77-0.22-1.16-0.32c-0.59-0.15-1.16-0.29-1.73-0.4c-0.48-0.09-0.95-0.17-1.42-0.24c-0.47-0.08-1-0.15-1.54-0.2
		C867.5,4.76,866.49,4.71,865.49,4.71L865.49,4.71z"/>
</g>
<g data-highlighted="SawM_Axes">
	<path class="st4" d="M1332.05,201.77h-40.46c12.98-1.27,23.16-12.25,23.16-25.56v-19.85c0-14.16-11.52-25.69-25.69-25.69H797.53
		c-7.02,0-13.86,2.89-18.75,7.92c-4.89,5.03-7.58,11.95-7.38,18.97l1.42,46.32H79.47c-11.57,0-20.95,9.38-20.95,20.95v13.27v1.92
		v55.78c0,15.74,12.81,28.55,28.55,28.55h40.6c4,10.94,14.51,18.76,26.82,18.76h15.54c12.3,0,22.82-7.82,26.82-18.76h212.53
		c4,10.94,14.51,18.76,26.82,18.76h15.54c12.31,0,22.82-7.82,26.82-18.76h212.53c4,10.94,14.52,18.76,26.82,18.76h15.54
		c12.31,0,22.82-7.82,26.82-18.76h212.53c4,10.94,14.51,18.76,26.82,18.76h15.54c12.31,0,22.82-7.82,26.82-18.76h212.53
		c4,10.94,14.52,18.76,26.82,18.76h15.54c12.31,0,22.82-7.82,26.82-18.76h0.8c15.74,0,28.55-12.81,28.55-28.55v-57.89v-1.92v-13.27
		C1353,211.15,1343.62,201.77,1332.05,201.77z M1332.05,237.91v57.89c0,4.19-3.4,7.6-7.6,7.6h-20.03v11.16c0,4.19-3.4,7.6-7.6,7.6
		h-15.54c-4.19,0-7.6-3.4-7.6-7.6v-11.16h-250.98v11.16c0,4.19-3.4,7.6-7.59,7.6h-15.54c-4.19,0-7.6-3.4-7.6-7.6v-11.16H741.02
		v11.16c0,4.19-3.4,7.6-7.6,7.6h-15.54c-4.19,0-7.59-3.4-7.59-7.6v-11.16H459.32v11.16c0,4.19-3.4,7.6-7.59,7.6h-15.54
		c-4.19,0-7.59-3.4-7.59-7.6v-11.16H177.62v11.16c0,4.19-3.4,7.6-7.59,7.6h-15.54c-4.19,0-7.59-3.4-7.59-7.6v-11.16H87.07
		c-4.19,0-7.59-3.4-7.59-7.6v-55.78v-1.92v-13.27h714.96l-2.08-67.87c-0.04-1.4,0.49-2.76,1.47-3.77c0.98-1.01,2.32-1.57,3.72-1.57
		h491.53c2.61,0,4.73,2.12,4.73,4.73v19.85c0,2.61-2.12,4.73-4.73,4.73h-147.22l-228.36,36.19c-0.25,0.04-0.49,0.06-0.74,0.06
		c-0.06,0-0.11-0.01-0.16-0.01l-0.38,7.66h419.85l0,11.16V237.91z"/>
</g>
</svg>
