<?xml version="1.0" encoding="utf-8"?>
<!-- Generator: Adobe Illustrator 25.0.0, SVG Export Plug-In . SVG Version: 6.00 Build 0)  -->
<svg version="1.1" id="FMC1_x5F_tools" xmlns="http://www.w3.org/2000/svg" xmlns:xlink="http://www.w3.org/1999/xlink" x="0px"
	 y="0px" viewBox="0 0 220.4 220.4" style="enable-background:new 0 0 220.4 220.4;" xml:space="preserve">
<style type="text/css">
	.st0{fill:#246047;}
	.st1{fill:#005140;}
	.st2{fill:#497D68;}
	.st3{fill:#676767;}
</style>
<g id="FMC1_tools">
	<polygon class="st0" points="65.7,25.4 136.5,25.4 154.3,25.4 154.3,3.3 65.7,3.3 65.7,23.1 	"/>
	<path class="st1" d="M136.5,25.4H65.7v192.1h88.7V25.4H136.5z M76.4,40.7h9.2H92h1.4h7.8v13.1l-7.1,0v15.5l-5.3,10.2l-5.4-10.2
		V53.8h-7V40.7z M76.4,99.4h24.8v13.1h-7.8v17.7l-10.2,13v-30.7h-6.8C76.4,112.5,76.4,99.4,76.4,99.4z M105.7,203.8l-16.9,6.1
		l-16.9-6.1v-9h13.5l-0.6-1.9v-15.5h-8.4v-13.1h24.8v13.1h-8.4v15.5l-0.6,1.9h13.5V203.8z M143.6,177.4h-7.1h-2.9v23.5
		c0,1.6-1.3,2.9-2.9,2.9s-2.9-1.3-2.9-2.9v-23.5h-9v-13.1h17.7h7.1L143.6,177.4L143.6,177.4z M118.8,112.5V99.4h17.7h7.1v13.1h-7
		V128l-0.1,0.1l-0.7,1.4l-9.9,16.9v-33.9C125.9,112.5,118.8,112.5,118.8,112.5z M136.5,80.2h-22.2v-9h13.5l-0.6-1.9V53.8h-8.4V40.7
		h10.6h3.7h3.5l7,0v13.1l-7,0l-1.4,0v15.5l-0.5,1.9h1.9h11.6v9C148.2,80.2,136.5,80.2,136.5,80.2z"/>
	<path class="st2" d="M118.8,164.3v13.1h9v23.5c0,1.6,1.3,2.9,2.9,2.9c1.6,0,2.9-1.3,2.9-2.9v-23.5h2.9h7.1v-13.1h-7.1H118.8z"/>
	<polygon class="st2" points="83.2,143.2 93.4,130.2 93.4,112.5 101.2,112.5 101.2,99.4 76.4,99.4 76.4,112.5 83.2,112.5 	"/>
	<polygon class="st2" points="83.4,69.3 88.8,79.5 94.1,69.3 94.1,53.8 101.2,53.8 101.2,40.7 93.3,40.7 92,40.7 85.6,40.7 
		76.4,40.7 76.4,53.8 83.4,53.8 	"/>
	<polygon class="st2" points="136.5,71.2 134.7,71.2 135.2,69.3 135.2,53.8 136.5,53.8 143.6,53.8 143.6,40.7 136.5,40.7 
		133.1,40.7 129.4,40.7 118.8,40.7 118.8,53.8 127.2,53.8 127.2,69.3 127.8,71.2 114.3,71.2 114.3,80.2 136.5,80.2 148.2,80.2 
		148.2,71.2 	"/>
	<polygon class="st2" points="135.8,129.6 136.5,128.2 136.6,128 136.6,112.5 143.6,112.5 143.6,99.4 136.5,99.4 118.8,99.4 
		118.8,112.5 125.9,112.5 125.9,146.5 	"/>
	<polygon class="st2" points="92.8,192.9 92.8,177.4 101.2,177.4 101.2,164.2 76.4,164.2 76.4,177.4 84.8,177.4 84.8,192.9 
		85.3,194.8 71.8,194.8 71.8,203.8 88.8,209.9 105.7,203.8 105.7,194.8 92.2,194.8 	"/>
	<path class="st2" d="M65.7,23.1V3.3H11.9c-4.8,0-8.7,3.9-8.7,8.7v196.8c0,4.8,3.9,8.7,8.7,8.7h53.8V23.1z"/>
	<path id="Path_1933_2_" class="st3" d="M208.8,3.3c4.8,0,8.7,3.9,8.7,8.7l0,0v196.8c0,4.8-3.9,8.7-8.7,8.7H11.9
		c-4.8,0-8.7-3.9-8.7-8.7V11.9c0-4.8,3.9-8.7,8.7-8.7l0,0h196.9 M208.8,0.4H11.9C5.6,0.4,0.4,5.6,0.4,11.9v196.8
		c0,6.4,5.2,11.6,11.6,11.6h196.8c6.4,0,11.6-5.2,11.6-11.6V11.9C220.4,5.6,215.2,0.4,208.8,0.4z"/>
</g>
</svg>
