<?xml version="1.0" encoding="utf-8"?>
<!-- Generator: Adobe Illustrator 25.0.0, SVG Export Plug-In . SVG Version: 6.00 Build 0)  -->
<svg version="1.1" id="FMC1_spindles" xmlns="http://www.w3.org/2000/svg" xmlns:xlink="http://www.w3.org/1999/xlink" x="0px"
	 y="0px" viewBox="0 0 220 220" style="enable-background:new 0 0 220 220;" xml:space="preserve">
<style type="text/css">
	.st0{fill:#4A7E68;}
	.st1{fill:#005140;}
	.st2{fill:#497D68;}
	.st3{fill:#676767;}
</style>
<g id="FMC1_spindles">
	<path class="st0" d="M132.3,56.6V54V3.1H11.2c-4.8,0-8.7,3.9-8.7,8.7v44.8h73.8H132.3z"/>
	<polygon class="st1" points="76.3,116.6 93.5,116.6 125.7,116.6 142.9,116.6 142.9,67.2 142.9,54 142.9,3.1 132.3,3.1 132.3,54 
		132.3,56.6 76.3,56.6 2.5,56.6 2.5,67.2 76.3,67.2 	"/>
	<polygon class="st2" points="93.5,133.7 102.6,133.7 102.6,177.7 115.5,155.8 116.5,153.8 116.5,133.7 125.7,133.7 125.7,116.6 
		93.5,116.6 	"/>
	<path class="st1" d="M216.7,208.6v-17.4H2.5v17.4c0,1.8,0.5,3.5,1.5,4.8c0.3,0.5,0.7,0.9,1.1,1.3c0.4,0.4,0.8,0.7,1.3,1.1
		s1,0.6,1.5,0.8c0.5,0.2,1.1,0.4,1.6,0.5c0.6,0.1,1.1,0.2,1.7,0.2H208c0,0,0,0,0,0c0.9,0,1.7-0.1,2.5-0.4
		C214.1,215.8,216.7,212.5,216.7,208.6z"/>
	<path id="Path_1932" class="st3" d="M208,3.1c4.8,0,8.7,3.9,8.7,8.7v196.8c0,4.8-3.9,8.7-8.7,8.7H11.2c-4.8,0-8.7-3.9-8.7-8.7V11.8
		c0-4.8,3.9-8.7,8.7-8.7l0,0H208 M208,0.2H11.2C4.8,0.2-0.4,5.4-0.4,11.8v196.8c0,6.4,5.2,11.6,11.6,11.6H208
		c6.4,0,11.6-5.2,11.6-11.6V11.8C219.6,5.4,214.4,0.2,208,0.2z"/>
</g>
</svg>
