<?xml version="1.0" encoding="utf-8"?>
<!-- Generator: Adobe Illustrator 25.0.0, SVG Export Plug-In . SVG Version: 6.00 Build 0)  -->
<svg version="1.1" id="FMC2_tools" xmlns="http://www.w3.org/2000/svg" xmlns:xlink="http://www.w3.org/1999/xlink" x="0px" y="0px"
	 viewBox="0 0 220 220" style="enable-background:new 0 0 220 220;" xml:space="preserve">
<style type="text/css">
	.st0{fill:#4A7E68;}
	.st1{fill:#246047;}
	.st2{fill:#005140;}
	.st3{fill:#676767;}
</style>
<g>
	<polygon class="st0" points="38.3,88.2 52.3,60 52.3,31.8 21.5,31.8 21.2,88.2 	"/>
	<polygon class="st1" points="50.5,60 50.6,61.8 74.3,61.8 74.3,59.8 74.3,52 67.6,52 67.6,39.4 76.4,39.4 82.4,39.4 83.7,39.4 
		91.2,39.4 91.2,52 84.5,52 84.5,59.8 84.5,61.8 116,61.8 116,59.8 116,52 108,52 108,39.4 118.1,39.4 121.6,39.4 131.7,39.4 
		131.7,52 123.7,52 123.7,59.8 123.7,61.8 156.8,61.8 156.8,59.8 156.8,52 148.3,52 148.3,39.4 171.9,39.4 171.9,52 162.4,52 
		162.4,59.8 162.4,61.8 192.7,61.8 192.7,59.8 192.7,52 186.2,52 186.2,39.4 209.8,39.4 209.8,52 202.4,52 202.4,59.8 202.4,61.8 
		219.4,61.8 219.4,31.8 50.5,31.8 50.5,59.8 	"/>
	<path class="st2" d="M202.4,60v8.8l-9.7,12.4V60h-30.3v14.3c0,1.5-1.2,2.8-2.8,2.8c-1.5,0-2.8-1.2-2.8-2.8V60h-33.2v6.7l-0.6,1.8
		h13v8.6h-32.3v-8.6h12.9l-0.6-1.8V60H84.5v6.7l-0.8,1.5l-4.3,8.2l-5.1-9.7V60H50.5L35.8,88.2h184.5V77.3l-0.7-0.2v-8.6h0.7V60h-1
		H202.4z"/>
	<rect x="0.4" y="31.8" class="st0" width="1.9" height="56.4"/>
	<path class="st0" d="M148.3,39.4V52h8.5v7.8V60v14.3c0,1.5,1.2,2.8,2.8,2.8c1.5,0,2.8-1.2,2.8-2.8V60v-0.2V52h9.5V39.4H148.3z"/>
	<polygon class="st0" points="186.2,39.4 186.2,52 192.7,52 192.7,59.8 192.7,60 192.7,81.2 202.4,68.8 202.4,60 202.4,59.8 
		202.4,52 209.8,52 209.8,39.4 	"/>
	<polygon class="st0" points="83.7,39.4 82.4,39.4 76.4,39.4 67.6,39.4 67.6,52 74.3,52 74.3,59.8 74.3,60 74.3,66.7 79.4,76.4 
		83.7,68.2 84.5,66.7 84.5,60 84.5,59.8 84.5,52 91.2,52 91.2,39.4 	"/>
	<polygon class="st0" points="123.1,68.5 123.7,66.7 123.7,60 123.7,59.8 123.7,52 131.7,52 131.7,39.4 121.6,39.4 118.1,39.4 
		108,39.4 108,52 116,52 116,59.8 116,60 116,66.7 116.6,68.5 103.7,68.5 103.7,77.1 136,77.1 136,68.5 	"/>
	<polygon class="st0" points="219.7,77.1 220.4,77.3 220.4,68.5 219.7,68.5 	"/>
	<rect x="2.3" y="88.2" class="st2" width="21.2" height="8.8"/>
	<path class="st2" d="M11.9,0.4c-4,0-7.6,2.1-9.6,5.2v26.3v39.5v16.9V148v25.7v41.5c2.1,3.1,5.6,5.2,9.6,5.2h11.6v-46.7V148V88.2
		V71.3V31.8V0.4H11.9z"/>
</g>
<path id="Path_1933_2_" class="st3" d="M208.8,3.3c4.8,0,8.7,3.9,8.7,8.7l0,0v196.8c0,4.8-3.9,8.7-8.7,8.7H11.9
	c-4.8,0-8.7-3.9-8.7-8.7V11.9c0-4.8,3.9-8.7,8.7-8.7l0,0h196.9 M208.8,0.4H11.9C5.6,0.4,0.4,5.6,0.4,11.9v196.8
	c0,6.4,5.2,11.6,11.6,11.6h196.8c6.4,0,11.6-5.2,11.6-11.6V11.9C220.4,5.6,215.2,0.4,208.8,0.4z"/>
</svg>
