<?xml version="1.0" encoding="utf-8"?>
<!-- Generator: Adobe Illustrator 25.1.0, SVG Export Plug-In . SVG Version: 6.00 Build 0)  -->
<svg version="1.1" id="FMC650_tools" xmlns="http://www.w3.org/2000/svg" xmlns:xlink="http://www.w3.org/1999/xlink" x="0px"
	 y="0px" viewBox="0 0 220.4 220.4" style="enable-background:new 0 0 220.4 220.4;" xml:space="preserve">
<style type="text/css">
	.st0{fill:#246047;}
	.st1{fill:#005140;}
	.st2{fill:#4A7E68;}
	.st3{fill:#676767;}
</style>
<g>
	<polygon class="st0" points="3.3,112 11,112 25.4,112 30.4,112 44.8,112 121.9,112 155.7,112 175.9,112 190,112 194.9,112 
		209.3,112 217.4,112 217.4,66.4 3.3,66.4 	"/>
	<polygon class="st1" points="22.7,172.9 22.7,141.1 22.7,130 11,130 11,112 3.3,112 3.3,175.6 23.2,175.6 	"/>
	<path class="st1" d="M209.3,130H198v11.1v9.7l-0.8,2.8h18.3v11.9l-23,8.3l-23-8.3v-11.9H188l-0.8-2.8v-9.7V130h-11.3v-18h-20.2v18
		h-10.5v11.1v12.7l-13.8,17.7v-30.4V130h-9.4v-18H44.8v18H33.4v11.1v31.8l-0.8,2.8h101.2v11.9H3.3v21.3c0,4.8,3.9,8.7,8.7,8.7h196.8
		c4.8,0,8.7-3.9,8.7-8.7V112h-8.1V130z M101.7,130H88.2v11.1v20.7c0,2.2-1.7,3.9-3.9,3.9c-2.2,0-3.9-1.7-3.9-3.9v-20.7V130H68.3
		l0-17.7h33.5V130z"/>
	<path class="st2" d="M68.3,130h12.2v11.1v20.7c0,2.2,1.7,3.9,3.9,3.9c2.2,0,3.9-1.7,3.9-3.9v-20.7V130h13.6v-17.7H68.3L68.3,130z"
		/>
	<polygon class="st2" points="131.3,130 131.3,141.1 131.3,171.5 145.2,153.8 145.2,141.1 145.2,130 155.7,130 155.7,112 121.9,112 
		121.9,130 	"/>
	<polygon class="st2" points="133.8,175.6 32.6,175.6 33.4,172.9 33.4,141.1 33.4,130 44.8,130 44.8,112 30.4,112 25.4,112 11,112 
		11,130 22.7,130 22.7,141.1 22.7,172.9 23.2,175.6 3.3,175.6 3.3,187.5 133.8,187.5 	"/>
	<polygon class="st2" points="187.2,130 187.2,141.1 187.2,150.7 188,153.5 169.5,153.5 169.5,165.4 192.4,173.7 215.4,165.4 
		215.4,153.5 197.1,153.5 198,150.7 198,141.1 198,130 209.3,130 209.3,112 194.9,112 190,112 175.9,112 175.9,130 	"/>
</g>
<path id="Path_1933_2_" class="st3" d="M208.8,3.3c4.8,0,8.7,3.9,8.7,8.7v0v196.8c0,4.8-3.9,8.7-8.7,8.7H11.9
	c-4.8,0-8.7-3.9-8.7-8.7V11.9c0-4.8,3.9-8.7,8.7-8.7v0H208.8 M208.8,0.4H11.9C5.6,0.4,0.4,5.6,0.4,11.9v196.8
	c0,6.4,5.2,11.6,11.6,11.6h196.8c6.4,0,11.6-5.2,11.6-11.6V11.9C220.4,5.6,215.2,0.4,208.8,0.4z"/>
</svg>
