<?xml version="1.0" encoding="utf-8"?>
<!-- Generator: Adobe Illustrator 25.1.0, SVG Export Plug-In . SVG Version: 6.00 Build 0)  -->
<svg version="1.1" id="LMX650_Motor_Blade" xmlns="http://www.w3.org/2000/svg" xmlns:xlink="http://www.w3.org/1999/xlink"
	 x="0px" y="0px" viewBox="0 0 220 220" style="enable-background:new 0 0 220 220;" xml:space="preserve">
<style type="text/css">
	.st0{fill:#005140;}
	.st1{fill:#4A7E68;}
	.st2{fill:#686868;}
</style>
<g id="_x32_">
	<g>
		<path class="st0" d="M121.2,124.8h-58v0l-25.8,0c0,0,0,0,0,0c0,46.3,37.5,83.8,83.8,83.8s83.8-37.5,83.8-83.8
			c0-46.3-37.5-83.8-83.8-83.8L121.2,124.8L121.2,124.8z"/>
		<path class="st1" d="M121.2,18.6V2.9h-58v33c-29,19-48.2,51.7-48.2,88.9l22.4,0l25.8,0v0h58h0V41L121.2,18.6
			C121.2,18.6,121.2,18.6,121.2,18.6z"/>
	</g>
	<path id="Path_1932_1_" class="st2" d="M208.4,2.9c4.8,0,8.7,3.9,8.7,8.7v196.8c0,4.8-3.9,8.7-8.7,8.7H11.6c-4.8,0-8.7-3.9-8.7-8.7
		V11.6c0-4.8,3.9-8.7,8.7-8.7l0,0H208.4 M208.4,0H11.6C5.2,0,0,5.2,0,11.6v196.8c0,6.4,5.2,11.6,11.6,11.6h196.8
		c6.4,0,11.6-5.2,11.6-11.6V11.6C220,5.2,214.8,0,208.4,0z"/>
</g>
</svg>
