<?xml version="1.0" encoding="utf-8"?>
<!-- Generator: Adobe Illustrator 25.1.0, SVG Export Plug-In . SVG Version: 6.00 Build 0)  -->
<svg version="1.1" xmlns="http://www.w3.org/2000/svg" xmlns:xlink="http://www.w3.org/1999/xlink" x="0px" y="0px"
	 viewBox="0 0 1410 400" style="enable-background:new 0 0 1410 400;" xml:space="preserve">
<style type="text/css">
	.st0{fill:#005140;}
	.st1{fill:none;}
	.st2{fill:#4A7E68;}
	.st3{fill:#215F46;}
	.st4{fill:#FFFFFF;}
	.st5{fill:#246047;}
</style>
<g id="out">
	<path class="st0" d="M1268.3,371.8l127.1-63.2c4.9-2.5,10.9-0.4,13.4,4.5c2.5,4.9,0.4,10.9-4.5,13.4l-106.3,52.9
		C1296.9,379.9,1263.3,374.2,1268.3,371.8z"/>
</g>
<g id="FMC650">
</g>
<g data-highlighted="FMC650_axes">
	<path class="st1" d="M32.9,382v-71.8c0-9.9,8.1-18,18-18h49.5v48.2h381.4V240.1h721.7c9.9,0,18,8.1,18,18v34.1h32
		c9.9,0,18,8.1,18,18v12.2h59.7c9.9,0,18,8.1,18,18V382c0,9.9-8.1,18-18,18H50.9C41,400,32.9,391.9,32.9,382z"/>
</g>
<g data-group="FMC650_axes">
	<g>
		<polygon class="st0" points="744.6,260.3 744.6,273.3 744.6,316.3 752.6,316.3 752.6,276.3 764.6,276.3 764.6,224.3 744.6,224.3 
					"/>
		<polygon class="st0" points="1243.5,260.3 1243.5,273.3 1243.5,316.3 1235.5,316.3 1235.5,276.3 1223.5,276.3 1223.5,224.3 
			1243.5,224.3 		"/>
		<polygon class="st0" points="717.2,260.3 717.2,273.3 717.2,316.3 709.2,316.3 709.2,276.3 697.2,276.3 697.2,224.3 717.2,224.3 
					"/>
	</g>
	
		<rect x="50.3" y="310.9" transform="matrix(-1.836970e-16 1 -1 -1.836970e-16 419.4966 310.9188)" class="st2" width="8" height="108.6"/>
	<g>
		<g>
			<polygon class="st3" points="1191.2,284 1191.2,284 1143.5,284 1135.6,284 1135.6,291.9 1136.5,294 1143.4,310.2 1203.5,310.2 
				1203.5,294 1203.5,284 			"/>
			<polygon class="st3" points="1191.2,280.2 1191.2,274.2 1191.2,274.2 1143.5,274.2 1143.5,280.2 			"/>
			<polygon class="st2" points="1191.2,274.2 1191.2,274.2 1191.2,280.2 1191.2,280.2 1191.2,284 1191.2,284 1203.5,284 1203.5,284 
				1203.5,274.2 1199.1,274.2 1199.1,266.1 1199.1,258.1 1191.2,258.1 1171.1,258.1 1171.1,266.1 1191.2,266.1 			"/>
			<polygon class="st2" points="1143.5,266.1 1149.6,266.1 1149.6,258.1 1143.5,258.1 1135.6,258.1 1135.6,266.1 1135.6,284 
				1143.5,284 			"/>
		</g>
		<g>
			<polygon class="st3" points="1103.3,284 1103.3,284 1055.6,284 1047.7,284 1047.7,291.9 1048.6,294 1055.5,310.2 1115.6,310.2 
				1115.6,294 1115.6,284 			"/>
			<polygon class="st3" points="1103.3,280.2 1103.3,274.2 1103.3,274.2 1055.6,274.2 1055.6,280.2 			"/>
			<polygon class="st2" points="1103.3,274.2 1103.3,274.2 1103.3,280.2 1103.3,280.2 1103.3,284 1103.3,284 1115.6,284 1115.6,284 
				1115.6,274.2 1111.2,274.2 1111.2,266.1 1111.2,258.1 1103.3,258.1 1083.2,258.1 1083.2,266.1 1103.3,266.1 			"/>
			<polygon class="st2" points="1055.6,266.1 1061.7,266.1 1061.7,258.1 1055.6,258.1 1047.7,258.1 1047.7,266.1 1047.7,284 
				1055.6,284 			"/>
		</g>
		<g>
			<polygon class="st3" points="1016,284 1016,284 968.3,284 960.4,284 960.4,291.9 961.3,294 968.2,310.2 1028.3,310.2 1028.3,294 
				1028.3,284 			"/>
			<polygon class="st3" points="1016,280.2 1016,274.2 1016,274.2 968.3,274.2 968.3,280.2 			"/>
			<polygon class="st2" points="1016,274.2 1016,274.2 1016,280.2 1016,280.2 1016,284 1016,284 1028.3,284 1028.3,284 
				1028.3,274.2 1023.9,274.2 1023.9,266.1 1023.9,258.1 1016,258.1 995.9,258.1 995.9,266.1 1016,266.1 			"/>
			<polygon class="st2" points="968.3,266.1 974.4,266.1 974.4,258.1 968.3,258.1 960.4,258.1 960.4,266.1 960.4,284 968.3,284 			
				"/>
		</g>
		<g>
			<polygon class="st3" points="928.1,284 928.1,284 880.4,284 872.5,284 872.5,291.9 873.4,294 880.3,310.2 940.4,310.2 940.4,294 
				940.4,284 			"/>
			<polygon class="st3" points="928.1,280.2 928.1,274.2 928.1,274.2 880.4,274.2 880.4,280.2 			"/>
			<polygon class="st2" points="928.1,274.2 928.1,274.2 928.1,280.2 928.1,280.2 928.1,284 928.1,284 940.4,284 940.4,284 
				940.4,274.2 936,274.2 936,266.1 936,258.1 928.1,258.1 908,258.1 908,266.1 928.1,266.1 			"/>
			<polygon class="st2" points="880.4,266.1 886.5,266.1 886.5,258.1 880.4,258.1 872.5,258.1 872.5,266.1 872.5,284 880.4,284 			
				"/>
		</g>
		<g>
			<polygon class="st3" points="840.2,284 840.2,284 792.5,284 784.6,284 784.6,291.9 785.5,294 792.4,310.2 852.5,310.2 852.5,294 
				852.5,284 			"/>
			<polygon class="st3" points="840.2,280.2 840.2,274.2 840.2,274.2 792.5,274.2 792.5,280.2 			"/>
			<polygon class="st2" points="840.2,274.2 840.2,274.2 840.2,280.2 840.2,280.2 840.2,284 840.2,284 852.5,284 852.5,284 
				852.5,274.2 848.1,274.2 848.1,266.1 848.1,258.1 840.2,258.1 820.1,258.1 820.1,266.1 840.2,266.1 			"/>
			<polygon class="st2" points="792.5,266.1 798.6,266.1 798.6,258.1 792.5,258.1 784.6,258.1 784.6,266.1 784.6,284 792.5,284 			
				"/>
		</g>
		<g>
			<polygon class="st3" points="664.9,284 664.9,284 617.2,284 609.3,284 609.3,291.9 610.2,294 617.1,310.2 677.2,310.2 677.2,294 
				677.2,284 			"/>
			<polygon class="st3" points="664.9,280.2 664.9,274.2 664.9,274.2 617.2,274.2 617.2,280.2 			"/>
			<polygon class="st2" points="664.9,274.2 664.9,274.2 664.9,280.2 664.9,280.2 664.9,284 664.9,284 677.2,284 677.2,284 
				677.2,274.2 672.8,274.2 672.8,266.1 672.8,258.1 664.9,258.1 644.8,258.1 644.8,266.1 664.9,266.1 			"/>
			<polygon class="st2" points="617.2,266.1 623.3,266.1 623.3,258.1 617.2,258.1 609.3,258.1 609.3,266.1 609.3,284 617.2,284 			
				"/>
		</g>
		<g>
			<polygon class="st3" points="577,284 577,284 529.3,284 521.4,284 521.4,291.9 522.3,294 529.2,310.2 589.3,310.2 589.3,294 
				589.3,284 			"/>
			<polygon class="st3" points="577,280.2 577,274.2 577,274.2 529.3,274.2 529.3,280.2 			"/>
			<polygon class="st2" points="577,274.2 577,274.2 577,280.2 577,280.2 577,284 577,284 589.3,284 589.3,284 589.3,274.2 
				584.9,274.2 584.9,266.1 584.9,258.1 577,258.1 556.9,258.1 556.9,266.1 577,266.1 			"/>
			<polygon class="st2" points="529.3,266.1 535.4,266.1 535.4,258.1 529.3,258.1 521.4,258.1 521.4,266.1 521.4,284 529.3,284 			
				"/>
		</g>
	</g>
	<rect x="50.9" y="310.2" class="st2" width="1202.6" height="70.2"/>
	<rect x="50.9" y="340.4" class="st3" width="1280.2" height="41.6"/>
	<rect x="50.9" y="310.2" class="st0" width="30.2" height="71.8"/>
	<g>
		<path class="st4" d="M1180.1,358.3h8.1v4.4h-8.1v7.3h-5.4v-20h14.2v4.4h-8.8V358.3z"/>
		<path class="st4" d="M1221.5,370h-5.3l0.4-15.3h-0.2l-5,15.3h-4.6l-5.1-15.3h-0.2l0.5,15.3h-5.3v-20h8.5l3.8,12.6h0.2l3.6-12.6
			h8.7V370z"/>
		<path class="st4" d="M1247.2,362.5v0.6c0,0.6,0,1.3-0.1,1.8c0,0.6-0.1,1.1-0.2,1.7c-0.1,0.5-0.3,1-0.7,1.5s-0.8,0.8-1.4,1.2
			c-0.3,0.2-0.6,0.4-1,0.5c-0.3,0.1-0.7,0.2-1.1,0.3c-0.2,0-0.4,0-0.5,0.1c-0.2,0-0.4,0-0.5,0.1c-0.2,0-0.4,0-0.6,0
			c-0.2,0-0.4,0-0.5,0c0,0-0.1,0-0.1,0c-0.1,0-0.1,0-0.1,0s-0.1,0-0.1,0s-0.1,0-0.1,0c-0.2,0-0.4,0-0.6,0c-0.2,0-0.4,0-0.6,0
			c-0.1,0-0.2,0-0.3,0s-0.2,0-0.3,0c-0.1,0-0.2,0-0.3,0s-0.2,0-0.3,0c-0.1,0-0.2,0-0.3,0c-0.1,0-0.2,0-0.3,0c-0.1,0-0.2,0-0.3,0
			c-0.1,0-0.2,0-0.3,0c-0.2,0-0.4,0-0.6,0c-0.2,0-0.4,0-0.6,0c-1.3-0.1-2.4-0.4-3.2-0.9c-0.8-0.5-1.4-1.2-1.7-2
			c-0.3-0.8-0.6-1.8-0.7-2.7c-0.2-1-0.2-2-0.3-3.1l0-2.6c0-1.7,0.2-3.1,0.5-4.3c0.3-1.2,0.8-2,1.5-2.7c0.7-0.6,1.6-1.1,2.7-1.4
			c1.2-0.3,2.6-0.5,4.3-0.5l1.7-0.1c0.1,0,0.1,0.1,0.2,0.1s0.1,0,0.2,0c0.1,0,0.2,0,0.2,0s0.1,0,0.2,0c0.5,0,1,0.1,1.5,0.1
			c0.5,0.1,1,0.2,1.5,0.4c0.5,0.1,0.9,0.4,1.3,0.7s0.7,0.7,1,1.2c0.1,0.2,0.3,0.5,0.3,0.7c0.1,0.3,0.2,0.5,0.2,0.8
			c0,0.1,0,0.3,0.1,0.4c0,0.1,0,0.3,0.1,0.4c0,0.1,0,0.3,0,0.4c0,0.1,0,0.3,0,0.4c0,0.1,0,0.2,0,0.2s0,0.2,0,0.2c0,0,0,0.1,0,0.1
			s0,0.1,0,0.1c0,0,0,0.1,0,0.1s0,0.1,0,0.1c0,0,0,0,0,0.1c0,0,0,0,0,0.1c0,0,0,0,0,0.1c0,0,0,0,0,0c0,0,0,0,0,0c0,0,0,0,0,0
			c0,0,0,0,0,0v0.3h-5.4c0-0.5,0-0.9-0.2-1.2c-0.1-0.3-0.2-0.6-0.4-0.8c-0.2-0.2-0.5-0.3-0.8-0.5c-0.4-0.1-0.8-0.1-1.3-0.1l-0.9-0.1
			c0,0-0.1,0-0.1,0c0,0-0.1,0-0.1,0c0,0-0.1,0-0.1,0s-0.1,0-0.1,0s-0.1,0-0.1,0s-0.1,0-0.1,0c0,0-0.1,0-0.1,0c0,0-0.1,0-0.1,0
			c-0.2,0-0.3,0-0.5,0.1c-0.2,0-0.3,0.1-0.5,0.1c-0.1,0.1-0.3,0.1-0.4,0.2c-0.1,0.1-0.2,0.2-0.3,0.3c-0.1,0.1-0.2,0.2-0.3,0.4
			c-0.1,0.1-0.1,0.2-0.2,0.4c0,0.1,0,0.3-0.1,0.4c0,0.1,0,0.3,0,0.4c0,0,0,0,0,0.1c0,0,0,0,0,0.1c0,0,0,0,0,0.1c0,0,0,0,0,0.1
			c0,0,0,0,0,0.1c0,0,0,0,0,0.1c0,0,0,0,0,0.1c0,0.1,0,0.2,0,0.2c0,0.1,0,0.1,0,0.2c0,0.1,0,0.2,0,0.2s0,0.1,0,0.2
			c0,0.1,0,0.2,0,0.2s0,0.1,0,0.2c0,0.1,0,0.2,0,0.2s0,0.1,0,0.2c0,0.1,0,0.3,0,0.4c0,0.2,0,0.3,0,0.5c0,0.1,0,0.3,0,0.4
			s0,0.3,0,0.4c0,0,0,0.1,0,0.1c0,0,0,0.1,0,0.1c0,0,0,0.1,0,0.1c0,0,0,0.1,0,0.1c0,0.1,0,0.1,0,0.2c0,0,0,0.1,0,0.1s0,0.1,0,0.1
			c0,0.1,0,0.1,0,0.1c0,0.7,0.1,1.4,0.2,1.9c0.1,0.5,0.3,0.9,0.5,1.2c0.2,0.3,0.6,0.5,1,0.6s1.1,0.2,1.8,0.2c0.5,0,1,0,1.4-0.1
			s0.8-0.2,1.1-0.3c0.3-0.2,0.5-0.4,0.7-0.8c0.2-0.4,0.2-0.8,0.2-1.4c0,0,0,0,0-0.1c0,0,0,0,0-0.1c0,0,0,0,0-0.1s0,0,0-0.1
			c0,0,0,0,0-0.1c0,0,0,0,0-0.1s0,0,0-0.1s0,0,0-0.1v-0.1H1247.2z"/>
		<path class="st4" d="M1266.3,356.1c0-0.5-0.1-0.8-0.2-1.1c-0.1-0.3-0.2-0.5-0.4-0.6c-0.2-0.1-0.4-0.2-0.7-0.2s-0.7-0.1-1-0.1
			l-0.5-0.1c-0.5,0-1,0.1-1.4,0.1c-0.4,0.1-0.7,0.1-0.9,0.2c-0.3,0.1-0.4,0.4-0.6,0.7c-0.1,0.4-0.2,0.8-0.2,1.4l0,0.5v2.9
			c0.2-0.5,0.4-0.8,0.7-1.1s0.5-0.5,0.8-0.6c0.3-0.1,0.6-0.2,1-0.2c0.4,0,0.8-0.1,1.2-0.1c1.1,0,2,0.1,2.9,0.2
			c0.8,0.2,1.6,0.4,2.3,0.7c0.7,0.3,1.2,0.9,1.5,1.6c0.3,0.8,0.5,1.8,0.5,3c0,1.4-0.2,2.6-0.5,3.5c-0.3,0.9-0.8,1.6-1.4,2
			c-0.6,0.4-1.4,0.7-2.4,0.9c-1,0.2-2.2,0.3-3.5,0.3c-1.5,0-2.7-0.1-3.7-0.3c-1-0.2-1.9-0.6-2.5-1.1c-0.6-0.5-1.1-1.2-1.4-2.2
			c-0.3-1-0.5-2.3-0.5-3.9c0-0.1,0-0.2,0-0.3c0-0.1,0-0.2,0-0.3s0-0.2,0-0.3c0-0.1,0-0.2,0-0.3c0-0.1,0-0.2,0-0.3c0-0.1,0-0.2,0-0.3
			c0-0.1,0-0.2,0-0.3c0-0.1,0-0.2,0-0.3l0-3.4c0-1.3,0.2-2.5,0.5-3.4c0.3-0.9,0.8-1.6,1.4-2c0.6-0.5,1.4-0.8,2.3-1
			c0.9-0.2,2-0.4,3.3-0.4c1.2,0,2.3,0.1,3.3,0.2s1.9,0.4,2.7,0.7c0.8,0.3,1.4,0.9,1.8,1.8c0.4,0.9,0.6,2.1,0.6,3.5v-0.1H1266.3z
			 M1260.5,364.7c0,0.3,0.1,0.5,0.2,0.7c0.1,0.2,0.3,0.4,0.5,0.5c0.2,0.1,0.5,0.2,0.9,0.2l1.3-0.1c0,0,0,0.1,0.1,0.1c0,0,0,0,0.1,0
			c0,0,0,0,0.1,0c0,0,0,0,0.1,0c0.5,0,0.9-0.1,1.2-0.2c0.3-0.1,0.6-0.2,0.8-0.3c0.2-0.1,0.3-0.3,0.4-0.6c0.1-0.3,0.1-0.7,0.1-1.3
			c0-0.4,0-0.7-0.1-1c-0.1-0.3-0.2-0.4-0.4-0.5c-0.2-0.1-0.4-0.2-0.6-0.2c-0.2,0-0.5-0.1-0.8-0.1l-1.6-0.1c-0.5,0-0.9,0.1-1.2,0.2
			c-0.3,0.1-0.5,0.2-0.6,0.3c-0.1,0.1-0.2,0.3-0.3,0.6s-0.1,0.5-0.1,0.9v-0.1C1260.4,364.1,1260.5,364.4,1260.5,364.7z"/>
		<path class="st4" d="M1294.8,353.9h-9.8v3.9c0.3-0.3,0.6-0.6,0.9-0.8c0.3-0.2,0.6-0.3,0.9-0.4c0.3-0.1,0.7-0.1,1-0.2
			s0.8-0.1,1.2-0.1c1.2,0,2.2,0.1,3.1,0.4c0.9,0.2,1.5,0.6,2,1.1c0.5,0.5,0.9,1.1,1.2,2c0.3,0.8,0.4,1.9,0.4,3.1v0.6
			c0,0.1,0,0.2,0,0.3c0,0.1,0,0.2,0,0.3c0,0,0,0.1,0,0.1s0,0.1,0,0.1c0,0,0,0.1,0,0.1c0,0.1,0,0.1,0,0.1c0,0.4,0,0.7-0.1,1
			s-0.1,0.7-0.2,1c-0.1,0.3-0.2,0.6-0.4,0.9c-0.2,0.3-0.4,0.6-0.6,0.8c-0.3,0.3-0.7,0.6-1,0.8s-0.8,0.4-1.2,0.5s-0.8,0.2-1.3,0.3
			c-0.4,0.1-0.9,0.1-1.3,0.1c-0.1,0-0.2,0-0.3,0s-0.2,0-0.3,0c-0.1,0-0.2,0-0.3,0s-0.2,0-0.2,0c-0.1,0-0.2,0-0.3,0
			c-0.1,0-0.2,0-0.3,0c-0.1,0-0.2,0-0.3,0c-0.1,0-0.2,0-0.2,0c-0.1,0-0.3,0-0.4,0c-0.2,0-0.3,0-0.5,0c-0.1,0-0.2,0-0.2,0
			s-0.1,0-0.2,0c-0.1,0-0.2,0-0.2,0s-0.1,0-0.2,0c-0.5,0-1-0.1-1.4-0.1c-0.5-0.1-0.9-0.2-1.3-0.3c-0.4-0.1-0.8-0.3-1.2-0.6
			c-0.4-0.3-0.7-0.6-1-1c-0.2-0.2-0.3-0.4-0.4-0.6c-0.1-0.2-0.2-0.5-0.3-0.7c-0.1-0.2-0.1-0.5-0.1-0.8c0-0.3-0.1-0.5-0.1-0.8
			c0-0.1,0-0.1,0-0.2s0-0.1,0-0.2c0,0,0-0.1,0-0.1c0,0,0-0.1,0-0.1c0,0,0,0,0-0.1s0-0.1,0-0.1c0,0,0,0,0-0.1s0,0,0,0c0,0,0,0,0,0
			l5.1-0.1c0,0.4,0.1,0.7,0.2,1c0.1,0.2,0.2,0.4,0.4,0.5c0.2,0.1,0.4,0.2,0.6,0.3c0.3,0,0.6,0.1,0.9,0.1c0.8,0,1.4,0,1.9-0.1
			c0.5-0.1,0.8-0.2,1-0.4c0.2-0.2,0.3-0.5,0.4-0.9c0.1-0.4,0.2-1,0.2-1.8c0-0.6-0.1-1.1-0.2-1.5c-0.1-0.4-0.3-0.6-0.5-0.7
			c-0.2-0.1-0.5-0.2-0.9-0.3c-0.4-0.1-0.9-0.1-1.5-0.1c0,0,0,0-0.1,0c0,0-0.1,0-0.1,0c0,0-0.1,0-0.1,0c0,0-0.1,0-0.1,0
			c-0.1,0-0.1,0-0.2,0c-0.1,0-0.1,0-0.1,0c-0.1,0-0.1,0-0.2,0c-0.1,0-0.1,0-0.2,0c-0.1,0-0.1,0-0.2,0c-0.1,0-0.1,0-0.2,0
			c-0.1,0-0.2,0-0.3,0c-0.1,0-0.2,0-0.3,0c-0.1,0-0.3,0.1-0.3,0.1c-0.1,0.1-0.2,0.1-0.2,0.2c-0.1,0.1-0.1,0.2-0.1,0.3
			c0,0.1-0.1,0.2-0.1,0.3l-4.6-0.1V350h14.5V353.9z"/>
		<path class="st4" d="M1304.2,358c0-0.8,0-1.5,0.1-2.3c0.1-0.7,0.2-1.5,0.4-2.1c0.2-0.7,0.5-1.3,1-1.8c0.5-0.5,1.2-1,2-1.3
			c0.2-0.1,0.4-0.2,0.7-0.2c0.2-0.1,0.5-0.1,0.7-0.1c0.3,0,0.5-0.1,0.8-0.1c0.3,0,0.5,0,0.8-0.1c0,0,0.1,0,0.1,0s0.1,0,0.1,0
			c0,0,0,0,0.1,0c0,0,0.1,0,0.1,0c0,0,0.1,0,0.1,0c0,0,0.1,0,0.1,0c0,0,0,0,0.1,0s0.1,0,0.1,0l1.1-0.1c0.3,0,0.6,0.1,1,0.1
			c0.3,0,0.6,0,1,0c0.2,0,0.3,0,0.5,0s0.3,0,0.5,0c0.2,0,0.3,0,0.5,0.1c0.2,0,0.3,0,0.5,0.1c0.5,0.1,0.9,0.2,1.3,0.4
			s0.8,0.5,1.1,0.8c0.3,0.4,0.6,0.7,0.9,1.1c0.2,0.4,0.5,0.8,0.6,1.3c0.1,0.2,0.1,0.5,0.2,0.7c0.1,0.2,0.1,0.5,0.1,0.8
			c0,0.1,0,0.3,0,0.4c0,0.1,0,0.3,0,0.4c0,0.1,0,0.3,0,0.4c0,0.1,0,0.3,0,0.4c0,0.1,0,0.1,0,0.2c0,0.1,0,0.1,0,0.1s0,0.1,0,0.1
			s0,0.1,0,0.1c0,0.2,0,0.4,0,0.5s0,0.3,0,0.5c0,0.1,0,0.2,0,0.2s0,0.2,0,0.2c0,0.1,0,0.1,0,0.2s0,0.2,0,0.2l-0.1,4.4
			c-0.1,1.4-0.3,2.5-0.7,3.4c-0.4,0.9-0.9,1.5-1.6,1.9c-0.7,0.4-1.5,0.7-2.5,0.8c-1,0.2-2.1,0.3-3.3,0.3h-1c-0.1,0-0.2,0-0.3,0
			c-0.1,0-0.2,0-0.3,0c-0.1,0-0.1,0-0.2,0s-0.1,0-0.1,0c-0.1,0-0.1,0-0.2,0s-0.1,0-0.1,0c-0.3,0-0.5,0-0.8-0.1c-0.3,0-0.5,0-0.8-0.1
			c-0.3,0-0.5-0.1-0.8-0.2s-0.5-0.2-0.7-0.3c-0.5-0.3-1-0.6-1.3-0.9c-0.4-0.4-0.7-0.8-0.9-1.3c-0.2-0.5-0.4-1-0.5-1.5
			c-0.1-0.5-0.2-1.1-0.3-1.6c0,0,0-0.1,0-0.1s0-0.1,0-0.1c0,0,0-0.1,0-0.1c0,0,0-0.1,0-0.1c0,0,0-0.1,0-0.1s0-0.1,0-0.2
			c0,0,0-0.1,0-0.1s0-0.1,0-0.1v-3.8V358z M1309.3,362.5c0,0.7,0,1.3,0.2,1.7c0.1,0.5,0.2,0.8,0.5,1c0.2,0.2,0.5,0.4,1,0.5
			c0.5,0.1,1,0.2,1.7,0.2c0.7,0,1.3-0.1,1.8-0.2c0.4-0.1,0.7-0.4,0.9-0.7c0.2-0.3,0.3-0.7,0.3-1.1s0.1-1,0.1-1.6c0-0.2,0-0.4,0-0.6
			c0-0.2,0-0.4,0-0.6c0-0.2,0-0.4,0-0.6s0-0.4,0-0.6c0-0.2,0-0.4,0-0.6c0-0.2,0-0.4,0-0.6c0-0.1,0-0.2,0-0.3c0-0.1,0-0.2,0-0.3
			c0-0.1,0-0.2,0-0.3c0-0.1,0-0.2,0-0.3c0-0.6,0-1-0.1-1.4c-0.1-0.4-0.2-0.7-0.4-1c-0.2-0.2-0.4-0.4-0.8-0.5s-0.9-0.2-1.5-0.2
			c-0.1,0-0.2,0-0.2,0s-0.1,0-0.2,0s-0.2,0-0.2,0c-0.1,0-0.1,0-0.2,0c-0.1,0-0.2,0-0.2,0s-0.1,0-0.2,0c-0.1,0-0.2,0-0.2,0
			c-0.1,0-0.1,0-0.2,0c-0.4,0.1-0.7,0.2-0.9,0.4c-0.3,0.2-0.4,0.4-0.5,0.7c-0.1,0.3-0.2,0.6-0.3,0.9c-0.1,0.3-0.1,0.6-0.1,0.9
			c0,0.1,0,0.1,0,0.2c0,0.1,0,0.1,0,0.2c0,0.1,0,0.1,0,0.2c0,0.1,0,0.1,0,0.2c0,0.1,0,0.2,0,0.2c0,0.1,0,0.1,0,0.2s0,0.2,0,0.2
			c0,0.1,0,0.1,0,0.2c0,0.1,0,0.2,0,0.2s0,0.1,0,0.2c0,0.1,0,0.2,0,0.2s0,0.1,0,0.2v-0.1V362.5z"/>
	</g>
</g>
<g id="CABINA">
	<polygon class="st2" points="425.7,-0.1 156.5,-0.1 156.5,91.1 199.7,91.1 199.7,97.7 229.7,97.7 229.7,137.5 244.7,123.5 
		244.7,97.7 244.7,91.1 425.7,91.1 	"/>
	<g>
		<path class="st0" d="M455.8,45.6H317V-0.1h-51.7v45.7H126.4c-14.3,0-26,11.7-26,26v268.8h16V71.6c0-5.5,4.5-10,10-10h329.4
			c5.5,0,10,4.5,10,10v268.8h16V71.6C481.8,57.3,470.1,45.6,455.8,45.6z"/>
		<path id="Path_3169_1_" class="st4" d="M289.8,25.9l23.2-8.1l-5.6-0.1c-5.3,1.7-10.8,2.8-16.3,3.2c-2.7-0.1-5.5-0.4-8.2-0.8
			l-0.8-0.1l7.3,5.5c0,0-15.9,5.6-24.1,9.9v2.4C273,33.2,281.3,29.2,289.8,25.9z"/>
	</g>
	<rect x="116.4" y="299.4" class="st2" width="349.4" height="41"/>
</g>
<g data-highlighted="FMC650_spindle">
	<path class="st1" d="M158.4,201.4v-4.3c0-9.9,8.1-18,18-18h10.3l-5-18.7V91.1c0-9.9,8.1-18,18-18h30c9.9,0,18,8.1,18,18v69.3
		l-5,18.7H253c9.9,0,18,8.1,18,18v4.3c0,9.9-8.1,18-18,18h-76.6C166.4,219.4,158.4,211.3,158.4,201.4z"/>
</g>
<g data-group="FMC650_spindle">
	<g>
		<g>
			<polygon class="st2" points="216.7,196.1 216.7,184.6 216.7,180.6 220.8,180.6 220.8,174.1 215.6,174.1 213.8,174.1 208.6,174.1 
				208.6,180.6 212.8,180.6 212.8,184.6 212.8,196.1 213,197.1 176.4,197.1 176.4,201.4 253,201.4 253,197.1 216.4,197.1 			"/>
			<g>
				<polygon class="st0" points="199.7,158 203.9,174.1 225.4,174.1 229.7,158 229.7,91.1 199.7,91.1 				"/>
			</g>
		</g>
	</g>
</g>
<g data-highlighted="FMC650_tools">
	<path class="st1" d="M138.5,299.4V244c0-9.9,8.1-18,18-18h269.3c9.9,0,18,8.1,18,18v55.4c0,9.9-8.1,18-18,18H156.5
		C146.5,317.4,138.5,309.3,138.5,299.4z"/>
</g>
<g data-group="FMC650_tools">
	<g>
		<g>
			<rect x="166.4" y="244" class="st5" width="249.4" height="55.5"/>
			<rect x="405.8" y="244" class="st5" width="19.9" height="55.5"/>
			<rect x="156.5" y="244" class="st5" width="19.9" height="55.5"/>
		</g>
		<rect x="166.4" y="260.5" class="st0" width="249.4" height="39"/>
		<g>
			<g>
				<path class="st2" d="M236.9,267h4.4v4v7.5c0,0.8,0.6,1.4,1.4,1.4s1.4-0.6,1.4-1.4V271v-4h4.9v-6.4h-12.1L236.9,267L236.9,267z"
					/>
				<polygon class="st2" points="256.3,267 259.7,267 259.7,271 259.7,282 264.7,275.6 264.7,271 264.7,267 268.5,267 268.5,260.5 
					256.3,260.5 				"/>
				<polygon class="st2" points="203.1,260.5 200,260.5 195.5,260.5 195.5,267 198.9,267 198.9,271 198.9,274.5 201.6,279.5 
					203.8,275.3 204.2,274.5 204.2,271 204.2,267 207.6,267 207.6,260.5 203.8,260.5 				"/>
				<polygon class="st2" points="224.3,282.5 224.3,271 224.3,267 228.4,267 228.4,260.5 223.2,260.5 221.4,260.5 216.2,260.5 
					216.2,267 220.4,267 220.4,271 220.4,282.5 220.6,283.5 184,283.5 184,287.8 260.6,287.8 260.6,283.5 224,283.5 				"/>
				<polygon class="st2" points="302.5,260.5 299.4,260.5 294.9,260.5 294.9,267 298.3,267 298.3,271 298.3,274.5 301,279.5 
					303.2,275.3 303.6,274.5 303.6,271 303.6,267 307,267 307,260.5 303.2,260.5 				"/>
				<polygon class="st2" points="323.7,282.5 323.7,271 323.7,267 327.8,267 327.8,260.5 322.6,260.5 320.8,260.5 315.6,260.5 
					315.6,267 319.8,267 319.8,271 319.8,282.5 320,283.5 293.4,283.5 293.4,287.8 350,287.8 350,283.5 323.4,283.5 				"/>
				<polygon class="st2" points="283.8,274.5 283.8,271 283.8,267 287.9,267 287.9,260.5 282.7,260.5 280.9,260.5 275.8,260.5 
					275.8,267 279.9,267 279.9,271 279.9,274.5 280.2,275.5 273.5,275.5 273.5,279.8 281.8,282.8 290.1,279.8 290.1,275.5 
					283.5,275.5 				"/>
				<polygon class="st2" points="362.7,260.5 362,260.5 358.9,260.5 354.4,260.5 354.4,267 357.9,267 357.9,271 357.9,283.5 
					362.7,275.3 363.1,274.5 363.1,271 363.1,267 366.6,267 366.6,260.5 				"/>
				<polygon class="st2" points="343,274.5 343,271 343,267 347.1,267 347.1,260.5 341.9,260.5 340.1,260.5 335,260.5 335,267 
					339.1,267 339.1,271 339.1,274.5 339.4,275.5 332.7,275.5 332.7,279.8 341,281.8 349.3,279.8 349.3,275.5 342.7,275.5 				"/>
				<polygon class="st2" points="381.9,282.5 381.9,271 381.9,267 386,267 386,260.5 380.8,260.5 379,260.5 373.9,260.5 373.9,267 
					378,267 378,271 378,282.5 378.3,283.5 361.6,283.5 361.6,287.8 379.9,289.8 398.2,287.8 398.2,283.5 381.6,283.5 				"/>
			</g>
		</g>
	</g>
</g>
<g data-highlighted="FMC650_Motor_Blade">
	<path class="st1" d="M368.7,216c-29.2,1.8-54.4-17-62.5-43.2H292v-18c0-21.2,9.2-41.1,24.9-54.9V63.6c0-9.9,8.1-18,18-18h30
		c9.9,0,18,8.1,18,18v32.4c26.2,8.1,45,33.3,43.2,62.5C424.3,189.3,399.4,214.1,368.7,216z"/>
</g>
<g data-group="FMC650_Motor_Blade">
	<g>
		<g>
			<g>
				<circle class="st0" cx="364.9" cy="154.7" r="43.4"/>
				<path class="st2" d="M310,154.7c0-30.3,24.6-54.9,54.9-54.9v54.9L310,154.7z"/>
				<rect x="334.9" y="63.6" class="st2" width="30" height="91.1"/>
			</g>
		</g>
	</g>
</g>
</svg>
