<?xml version="1.0" encoding="utf-8"?>
<!-- Generator: Adobe Illustrator 25.0.0, SVG Export Plug-In . SVG Version: 6.00 Build 0)  -->
<svg version="1.1" xmlns="http://www.w3.org/2000/svg" xmlns:xlink="http://www.w3.org/1999/xlink" x="0px" y="0px"
	 viewBox="0 0 1410 420" style="enable-background:new 0 0 1410 420;" xml:space="preserve">
<style type="text/css">
	.st0{fill:#005140;}
	.st1{fill:#497D68;}
	.st2{fill:#246047;}
	.st3{fill:#4A7E68;}
	.st4{fill:#215F46;}
	.st5{fill:#FFFFFF;}
	.st6{fill:none;}
</style>
<g id="FMC120">
	<g>
		<rect x="8" y="134.79" class="st0" width="96" height="56"/>
		<path class="st1" d="M0,210.79h112v-84H0V210.79z M8,134.79h96v56H8V134.79z"/>
		<rect x="8" y="222.79" class="st1" width="96" height="12"/>
		<polygon class="st1" points="120.58,40.99 119.47,234.79 140.58,234.79 140.58,40.99 		"/>
		<rect x="140.58" y="40.99" class="st2" width="35.4" height="36.5"/>
	</g>
</g>
<g data-group="FMC1_spindles">
	<rect x="683.64" y="46.74" class="st2" width="56.16" height="66.79"/>
	<polygon class="st3" points="683.64,116.53 683.64,174.32 718.69,174.32 739.8,174.32 739.8,173.32 739.8,116.53 	"/>
	<path class="st0" d="M743.8,113.53V42.74h-64.16v135.58h39.05v18.61h6.49h12.13h6.49v-18.61v-5v-56.79h0L743.8,113.53L743.8,113.53
		z M683.64,46.74h56.16v66.79l-56.16,0V46.74z M739.8,173.32v1h-21.11h-35.05v-57.79l56.16,0V173.32z"/>
	<polygon class="st1" points="725.19,203.35 728.63,203.35 728.63,219.93 733.48,211.68 733.87,210.93 733.87,203.35 737.31,203.35 
		737.31,196.93 725.19,196.93 	"/>
</g>
<g data-group="FMC1_axes">
	<g>
		<rect x="203.94" y="278.85" class="st0" width="1178.11" height="100.15"/>
		<polygon class="st0" points="1382.05,246.85 1318.84,246.85 1258.8,246.85 1219.95,246.85 1159.91,246.85 519.84,246.85 
			459.8,246.85 420.95,246.85 360.91,246.85 203.94,246.85 203.94,262.85 1382.05,262.85 		"/>
	</g>
	<g>
		<polygon class="st4" points="408.69,220.62 360.97,220.62 353.06,220.62 353.06,228.53 353.95,230.61 360.91,246.85 
			420.95,246.85 420.95,230.61 420.95,220.62 408.69,220.62 		"/>
		<polygon class="st4" points="408.69,216.85 408.69,210.85 408.69,210.85 360.97,210.85 360.97,216.85 408.69,216.85 		"/>
		<polygon class="st4" points="507.58,220.62 459.86,220.62 451.95,220.62 451.95,228.53 452.84,230.61 459.8,246.85 519.84,246.85 
			519.84,230.61 519.84,220.62 507.58,220.62 		"/>
		<polygon class="st4" points="507.58,216.85 507.58,210.85 507.58,210.85 459.86,210.85 459.86,216.85 507.58,216.85 		"/>
		<polygon class="st4" points="1207.69,220.62 1159.97,220.62 1152.06,220.62 1152.06,228.53 1152.95,230.61 1159.91,246.85 
			1219.95,246.85 1219.95,230.61 1219.95,220.62 1207.69,220.62 		"/>
		<polygon class="st4" points="1207.7,216.85 1207.7,210.85 1207.69,210.85 1159.97,210.85 1159.97,216.85 1207.69,216.85 		"/>
		<polygon class="st4" points="1306.58,220.62 1306.58,220.62 1258.86,220.62 1250.95,220.62 1250.95,228.53 1251.84,230.61 
			1258.8,246.85 1318.84,246.85 1318.84,230.61 1318.84,220.62 		"/>
		<polygon class="st4" points="1306.58,216.85 1306.58,210.85 1306.58,210.85 1258.86,210.85 1258.86,216.85 1306.58,216.85 		"/>
	</g>
	<g>
		<polygon class="st3" points="1382.05,262.85 203.94,262.85 203.94,278.85 1382.05,278.85 1382.05,278.85 1382.05,262.85 		"/>
		<polygon class="st3" points="408.69,210.85 408.69,210.85 408.69,216.85 408.69,216.85 408.69,220.62 408.69,220.62 
			420.95,220.62 420.95,220.62 420.95,210.85 416.6,210.85 416.6,202.74 416.6,194.74 408.69,194.74 388.6,194.74 388.6,202.74 
			408.69,202.74 		"/>
		<polygon class="st3" points="360.97,202.74 367.06,202.74 367.06,194.74 360.97,194.74 353.06,194.74 353.06,202.74 
			353.06,220.62 360.97,220.62 		"/>
		<polygon class="st3" points="507.58,210.85 507.58,210.85 507.58,216.85 507.58,216.85 507.58,220.62 507.58,220.62 
			519.84,220.62 519.84,220.62 519.84,210.85 515.49,210.85 515.49,202.74 515.49,194.74 507.58,194.74 487.49,194.74 
			487.49,202.74 507.58,202.74 		"/>
		<polygon class="st3" points="459.86,202.74 465.95,202.74 465.95,194.74 459.86,194.74 451.95,194.74 451.95,202.74 
			451.95,220.62 459.86,220.62 		"/>
		<polygon class="st3" points="1207.69,210.85 1207.7,210.85 1207.7,216.85 1207.69,216.85 1207.69,220.62 1207.69,220.62 
			1219.95,220.62 1219.95,220.62 1219.95,210.85 1215.61,210.85 1215.61,202.74 1215.61,194.74 1207.69,194.74 1187.61,194.74 
			1187.61,202.74 1207.69,202.74 		"/>
		<polygon class="st3" points="1159.97,202.74 1166.06,202.74 1166.06,194.74 1159.97,194.74 1152.06,194.74 1152.06,202.74 
			1152.06,220.62 1159.97,220.62 		"/>
		<polygon class="st3" points="1306.58,210.85 1306.58,210.85 1306.58,216.85 1306.58,216.85 1306.58,220.62 1306.58,220.62 
			1318.84,220.62 1318.84,220.62 1318.84,210.85 1314.5,210.85 1314.5,202.74 1314.5,194.74 1306.58,194.74 1286.5,194.74 
			1286.5,202.74 1306.58,202.74 		"/>
		<polygon class="st3" points="1258.86,202.74 1264.95,202.74 1264.95,194.74 1258.86,194.74 1250.95,194.74 1250.95,202.74 
			1250.95,220.62 1258.86,220.62 		"/>
	</g>
	<g>
		<g>
			<path class="st5" d="M1259.4,348.61h-10.71v4.68h8.94v4.53h-8.94v6.63h-4.92v-20.4h15.63V348.61z"/>
			<path class="st5" d="M1288.38,364.45h-4.95v-10.41l-4.89,10.41h-5.49l-4.89-10.41v10.41h-4.92v-20.4h5.46l7.11,14.97l7.08-14.97
				h5.49V364.45z"/>
			<path class="st5" d="M1311.9,359.5c-1.83,3.06-5.22,5.31-9.54,5.31c-6.39,0-11.04-4.68-11.04-10.71
				c0-5.67,4.65-10.41,11.04-10.41c4.35,0,7.77,2.04,9.6,5.1l-4.17,2.43c-0.96-1.86-2.85-3.09-5.43-3.09
				c-3.57,0-6.06,2.61-6.06,5.97c0,3.24,2.49,6.09,6.06,6.09c2.52,0,4.38-1.29,5.37-3.09L1311.9,359.5z"/>
			<path class="st5" d="M1331.49,364.45h-4.98v-13.74c-1.17,1.38-4.14,2.22-4.23,2.28l-1.05-4.56c1.23-0.63,4.2-1.89,5.28-4.38h4.98
				V364.45z"/>
			<path class="st5" d="M1350.6,350.77c0,5.49-8.31,9.27-8.31,9.27h7.98v4.41h-15v-4.41c0,0,10.38-5.52,10.38-9.27
				c0-1.62-1.14-2.58-2.73-2.58c-1.62,0-2.67,1.32-2.67,3.06h-5.01c0-4.17,2.94-7.56,7.68-7.56
				C1348.05,343.69,1350.6,347.05,1350.6,350.77z"/>
			<path class="st5" d="M1372.77,354.25c0,5.97-3.78,10.56-9.72,10.56c-6.03,0-9.75-4.59-9.75-10.56c0-6.03,3.72-10.56,9.75-10.56
				C1368.96,343.69,1372.77,348.22,1372.77,354.25z M1367.79,354.25c0-4.02-2.49-6.03-4.74-6.03s-4.77,2.01-4.77,6.03
				c0,4.05,2.52,6.03,4.77,6.03S1367.79,358.3,1367.79,354.25z"/>
		</g>
	</g>
</g>
<g data-group="FMC1_tools">
	<g>
		<polygon class="st2" points="265.75,77.49 231.13,77.49 231.13,88.3 265.75,88.3 274.45,88.3 274.45,77.49 		"/>
		<path class="st0" d="M265.75,88.3h-34.62v93.84h34.62h8.7V88.3H265.75z M236.35,95.75h4.5h3.12h0.67h3.84v6.42h-3.44v7.58
			l-0.39,0.75l-2.23,4.23l-2.62-4.98v-7.58h-3.44V95.75z M236.35,124.43h12.13v6.42h-3.82v8.66l-4.98,6.34v-14.99h-3.33V124.43z
			 M250.69,175.43l-8.27,3l-8.27-3v-4.39h6.61l-0.29-0.92v-7.58h-4.1v-6.42h12.13v6.42h-4.1v7.58l-0.29,0.92h6.61V175.43z
			 M269.23,162.54h-3.47h-1.41V174c0,0.79-0.64,1.43-1.43,1.43s-1.43-0.64-1.43-1.43v-11.46h-4.39v-6.42h8.65h3.47V162.54z
			 M257.1,130.85v-6.42h8.65h3.47v6.42h-3.44v7.58l-0.03,0.06l-0.36,0.69l-4.85,8.25v-16.58H257.1z M271.44,115.06h-5.69h-10.86
			v-4.39h6.61l-0.29-0.92v-7.58h-4.1v-6.42h5.17h1.79h1.69h3.47v6.42h-3.47h-0.63v7.58l-0.29,0.92h0.92h5.69V115.06z"/>
		<g>
			<polygon class="st1" points="163.91,182.14 231.13,182.14 231.13,88.3 231.13,77.49 163.91,77.49 			"/>
			<path class="st1" d="M257.1,156.12v6.42h4.39V174c0,0.79,0.64,1.43,1.43,1.43s1.43-0.64,1.43-1.43v-11.46h1.41h3.47v-6.42h-3.47
				H257.1z"/>
			<polygon class="st1" points="239.68,145.85 244.66,139.51 244.66,130.85 248.48,130.85 248.48,124.43 236.35,124.43 
				236.35,130.85 239.68,130.85 			"/>
			<polygon class="st1" points="239.79,109.75 242.41,114.73 244.64,110.5 245.04,109.75 245.04,102.17 248.48,102.17 248.48,95.75 
				244.64,95.75 243.97,95.75 240.86,95.75 236.35,95.75 236.35,102.17 239.79,102.17 			"/>
			<polygon class="st1" points="265.75,110.67 264.84,110.67 265.13,109.75 265.13,102.17 265.75,102.17 269.23,102.17 
				269.23,95.75 265.75,95.75 264.06,95.75 262.27,95.75 257.1,95.75 257.1,102.17 261.21,102.17 261.21,109.75 261.5,110.67 
				254.89,110.67 254.89,115.06 265.75,115.06 271.44,115.06 271.44,110.67 			"/>
			<polygon class="st1" points="265.39,139.18 265.75,138.5 265.79,138.43 265.79,130.85 269.23,130.85 269.23,124.43 
				265.75,124.43 257.1,124.43 257.1,130.85 260.54,130.85 260.54,147.43 			"/>
			<polygon class="st1" points="244.37,170.12 244.37,162.54 248.48,162.54 248.48,156.12 236.35,156.12 236.35,162.54 
				240.46,162.54 240.46,170.12 240.75,171.04 234.14,171.04 234.14,175.43 242.41,178.43 250.69,175.43 250.69,171.04 
				244.08,171.04 			"/>
		</g>
	</g>
</g>
<g id="FMC120">
	<path class="st0" d="M1410,25.6c0-14.01-11.4-25.4-25.4-25.4H201.38c-14.01,0-25.4,11.4-25.4,25.4v219.3v19.72v116.47
		c0,6.29,2.3,12.04,6.1,16.48h-3.89c-1.22,0-2.21,0.99-2.21,2.21v17.68c0,1.22,0.99,2.21,2.21,2.21h34.72
		c1.22,0,2.21-0.99,2.21-2.21v-10.97h361.23v10.97c0,1.22,0.99,2.21,2.21,2.21h34.72c1.22,0,2.21-0.99,2.21-2.21v-10.97h360.68
		v10.97c0,1.22,0.99,2.21,2.21,2.21h34.72c1.22,0,2.21-0.99,2.21-2.21v-10.97h355.58v11.2c0,1.22,0.99,2.21,2.21,2.21h34.72
		c1.22,0,2.21-0.99,2.21-2.21v-17.68c0-1.22-0.99-2.21-2.21-2.21h-4.09c3.92-4.47,6.3-10.32,6.3-16.72V25.6z M1394,381.08
		c0,5.19-4.21,9.4-9.4,9.4H201.38c-5.19,0-9.4-4.21-9.4-9.4V264.62V244.9V25.6c0-5.19,4.21-9.4,9.4-9.4h2.56v241.75h12.04v-9.47
		V16.19h363.81h84.72h19h61.98h367.41h17.89h239.21v232.28v9.44v0.03h12.04V16.19h2.55c5.19,0,9.4,4.21,9.4,9.4V381.08z"/>
</g>
<g data-highlighted="FMC1_spindles">
	<path class="st6" d="M743.82,24.74h-64.19c-9.93,0-17.99,8.05-17.99,17.99v135.61c0,9.93,8.05,17.99,17.99,17.99h21.06v23.63
		c0,9.93,8.05,17.99,17.99,17.99h25.14c9.93,0,17.99-8.05,17.99-17.99V42.72C761.8,32.79,753.75,24.74,743.82,24.74z M743.8,173.32
		v5v18.61h-6.49v6.42h-3.44v7.58l-0.39,0.75l-4.85,8.25v-16.58h-3.44v-6.42h-6.49v-18.61h-39.05V42.74h64.16V173.32z"/>
</g>
<g data-highlighted="FMC1_axes">
	<path class="st6" d="M1382.08,228.85h-45.24v-34.14c0-9.92-8.05-17.97-17.97-17.97h-166.84c-9.92,0-17.97,8.04-17.97,17.97v34.14
		H537.84v-34.14c0-9.92-8.04-17.97-17.97-17.97H353.03c-9.92,0-17.97,8.04-17.97,17.97l0,34.14H203.91
		c-9.92,0-17.97,8.04-17.97,17.97v132.21c0,9.92,8.04,17.97,17.97,17.97h1178.17c9.92,0,17.97-8.05,17.97-17.97l0-132.21
		C1400.05,236.89,1392,228.85,1382.08,228.85z M203.94,379V246.85h156.97l-6.96-16.23l-0.89-2.08v-7.91v-17.89v-8h7.91h6.09v8h-6.09
		v17.89h47.72v-3.77h-47.72v-6h47.72v-8.11H388.6v-8h20.09h7.91v8v8.11h4.35v9.77v0v9.99v16.23h38.85l-6.96-16.23l-0.89-2.08v-7.91
		v-17.89v-8h7.91h6.09v8h-6.09v17.89h47.72v-3.77h-47.72v-6h47.72v-8.11h-20.09v-8h20.09h7.91v8v8.11h4.35v9.77v0v9.99v16.23h640.08
		l-6.96-16.23l-0.89-2.08v-7.91v-17.89v-8h7.91h6.09v8h-6.09v17.89h47.72v-3.77h-47.72v-6h47.72v-8.11h-20.09v-8h20.09h7.91v8v8.11
		h4.35v9.77v0v9.99v16.23h38.85l-6.96-16.23l-0.89-2.08v-7.91v-17.89v-8h7.91h6.09v8h-6.09v17.89h47.72v-3.77h-47.72v-6h47.72v-8.11
		h-20.09v-8h20.09h7.91v8v8.11h4.35v9.77v0v9.99v16.23h63.21l0,132.15H203.94z"/>
</g>
<g data-highlighted="FMC1_tools">
	<path class="st6" d="M274.42,59.49H163.94c-9.96,0-18.03,8.07-18.03,18.03v104.59c0,9.96,8.07,18.03,18.03,18.03h110.48
		c9.96,0,18.03-8.07,18.03-18.03V77.52C292.45,67.56,284.38,59.49,274.42,59.49z M274.45,182.14H163.91V77.49h110.54V182.14z"/>
</g>
</svg>
