<?xml version="1.0" encoding="utf-8"?>
<!-- Generator: Adobe Illustrator 25.0.0, SVG Export Plug-In . SVG Version: 6.00 Build 0)  -->
<svg version="1.1" xmlns="http://www.w3.org/2000/svg" xmlns:xlink="http://www.w3.org/1999/xlink" x="0px" y="0px"
	 viewBox="0 0 1364 407" style="enable-background:new 0 0 1364 407;" xml:space="preserve">
<style type="text/css">
	.st0{fill:#005140;}
	.st1{fill:#246047;}
	.st2{fill:#4A7E68;}
	.st3{fill:#FFFFFF;}
	.st4{fill:none;}
	.st5{fill:#215F46;}
	.st6{fill:#497D68;}
</style>
<g data-group="FMC2_tools">
	<path class="st0" d="M335.2,112.4v3.6l-0.4,0.8l-4.9,8.2v-12.6h-14.8v3.6l-0.3,0.9h6.6v4.4l-8.3,3l-8.3-3v-4.4h6.6l-0.3-0.9v-3.6
		h-15.2v4.7l-5,6.3v-11h-15.5v7.5c0,0.8-0.6,1.4-1.4,1.4s-1.4-0.6-1.4-1.4v-7.5h-17v3.6l-0.3,0.9h6.6v4.4h-16.6v-4.4h6.6l-0.3-0.9
		v-3.6h-16.2v3.6l-0.4,0.8l-2.2,4.2l-2.6-5v-3.6H218l-7.5,14.6h7.5h121.7l7.5-14.6H335.2L335.2,112.4z"/>
	<polygon class="st1" points="218,98 218,112.4 230.2,112.4 230.2,108.4 226.8,108.4 226.8,101.9 231.3,101.9 234.4,101.9 
		235.1,101.9 238.9,101.9 238.9,108.4 235.5,108.4 235.5,112.4 251.7,112.4 251.7,108.4 247.5,108.4 247.5,101.9 252.7,101.9 
		254.5,101.9 259.7,101.9 259.7,108.4 255.6,108.4 255.6,112.4 272.6,112.4 272.6,108.4 268.2,108.4 268.2,101.9 280.3,101.9 
		280.3,108.4 275.4,108.4 275.4,112.4 291,112.4 291,108.4 287.6,108.4 287.6,101.9 299.8,101.9 299.8,108.4 296,108.4 296,112.4 
		311.2,112.4 311.2,108.4 307.1,108.4 307.1,101.9 312.2,101.9 314,101.9 319.2,101.9 319.2,108.4 315.1,108.4 315.1,112.4 
		330,112.4 330,108.4 326.5,108.4 326.5,101.9 331,101.9 334.1,101.9 334.8,101.9 338.7,101.9 338.7,108.4 335.2,108.4 335.2,112.4 
		347.2,112.4 347.2,98 	"/>
	<g>
		<polygon class="st2" points="168.1,127 210.5,127 218,112.4 218,98 168.1,98 		"/>
		<path class="st2" d="M268.2,108.4h4.4v4v7.5c0,0.8,0.6,1.4,1.4,1.4s1.4-0.6,1.4-1.4v-7.5v-4h4.9V102h-12.1L268.2,108.4
			L268.2,108.4z"/>
		<polygon class="st2" points="287.6,108.4 291,108.4 291,112.4 291,123.4 296,117 296,112.4 296,108.4 299.8,108.4 299.8,101.9 
			287.6,101.9 		"/>
		<polygon class="st2" points="234.4,101.9 231.3,101.9 226.8,101.9 226.8,108.4 230.2,108.4 230.2,112.4 230.2,115.9 232.9,120.9 
			235.1,116.7 235.5,115.9 235.5,112.4 235.5,108.4 238.9,108.4 238.9,101.9 235.1,101.9 		"/>
		<polygon class="st2" points="334.8,101.9 334.1,101.9 331,101.9 326.5,101.9 326.5,108.4 330,108.4 330,112.4 330,124.9 
			334.8,116.7 335.2,115.9 335.2,112.4 335.2,108.4 338.7,108.4 338.7,101.9 		"/>
		<polygon class="st2" points="255.6,115.9 255.6,112.4 255.6,108.4 259.7,108.4 259.7,101.9 254.5,101.9 252.7,101.9 247.5,101.9 
			247.5,108.4 251.7,108.4 251.7,112.4 251.7,115.9 251.9,116.9 245.3,116.9 245.3,121.2 261.9,121.2 261.9,116.9 255.3,116.9 		"/>
		<polygon class="st2" points="315.1,115.9 315.1,112.4 315.1,108.4 319.2,108.4 319.2,101.9 314,101.9 312.2,101.9 307.1,101.9 
			307.1,108.4 311.2,108.4 311.2,112.4 311.2,115.9 311.5,116.9 304.8,116.9 304.8,121.2 313.1,124.2 321.4,121.2 321.4,116.9 
			314.8,116.9 		"/>
	</g>
</g>
<g id="FMC230">
	<g id="FMC230">
		<g>
			<g>
				<rect x="1328.5" y="253.2" class="st2" width="36.1" height="68.7"/>
				<path class="st2" d="M0.1,221.9h112v-84H0.1V221.9z M8.1,145.9h96v56h-96L8.1,145.9z"/>
				<rect x="8.1" y="233.9" class="st2" width="96" height="12"/>
				<polygon class="st2" points="119.6,245.9 140.7,245.9 140.7,120.9 140.7,98.2 120.7,98.2 				"/>
			</g>
			<rect x="140.7" y="98.2" class="st1" width="11.4" height="22.7"/>
			<path class="st3" d="M737.6,30.2l23.3-8.2l-5.6-0.1c-0.1,0-9.9,3.2-16.4,3.2c-3.2,0-8.2-0.8-8.2-0.8l-0.8-0.1l7.3,5.6
				c0,0-15.9,5.7-24.2,10v2.4C719.6,38,728,34,737.6,30.2z"/>
			<g>
				<path class="st0" d="M754,64.8H180v203.3h1120.5V64.8H754L754,64.8z M764.8,76.8h523.6V256H192.1V76.8H764.8L764.8,76.8z"/>
				<rect x="8.1" y="145.9" class="st0" width="96" height="56"/>
				<path class="st0" d="M1328.5,343.3l36.1-14.4v-7h-36.1v-68.7V25.4c0-14-11.4-25.4-27.5-25.4H175.4c-11.9,0-23.3,11.4-23.3,25.4
					v72.8v22.7V232v19.7v116.5c0,6.3,2.3,12,6.1,16.5h-13.5c-1.2,0-2.2,1-2.2,2.2v17.7c0,1.2,1,2.2,2.2,2.2h34.7
					c1.2,0,2.2-1,2.2-2.2v-11h348.8v11c0,1.2,1,2.2,2.2,2.2h34.7c1.2,0,2.2-1,2.2-2.2v-11h346.8v11c0,1.2,1,2.2,2.2,2.2h34.8
					c1.2,0,2.2-1,2.2-2.2v-11H1301v11c0,1.2,1,2.2,2.2,2.2h34.7c1.2,0,2.2-1,2.2-2.2v-17.7c0-1.2-1-2.2-2.2-2.2h-15.7
					c3.8-4.4,6.1-10.2,6.1-16.5L1328.5,343.3L1328.5,343.3z M1312.5,368.2c0,5.2-4.2,9.4-9.4,9.4H177.5c-5.2,0-9.4-4.2-9.4-9.4
					V251.7V232V25.4c0-5.2,4.2-9.4,9.4-9.4h446H708c2.7,0,4.9,2.2,5,4.9v18.9c8.3-4.3,24.2-10,24.2-10l-7.3-5.6l0.8,0.1
					c0,0,5,0.8,8.2,0.8c6.5,0,16.3-3.2,16.4-3.2L761,22l-23.3,8.2c-9.7,3.8-18,7.8-24.7,12V51c0,2.8,2.3,5,5,5h41.9c2.8,0,5-2.3,5-5
					V21c0-2.8,2.2-5,5-5H1303c5.2,0,9.4,4.2,9.4,9.4L1312.5,368.2L1312.5,368.2z"/>
			</g>
		</g>
	</g>
</g>
<g data-group="FMC2_axes">
	<g>
		<polygon class="st4" points="214.1,198.8 213.8,199.2 223.7,199.2 224,198.8 			"/>
		<polygon class="st4" points="243.3,198.2 243.3,198.8 234,198.8 234.3,199.2 244.2,199.2 243.5,198.4 			"/>
		<polygon class="st3" points="214.6,198.2 214.1,198.8 224,198.8 224.4,198.3 229,193 233.6,198.4 234,198.8 243.3,198.8 
			243.3,198.2 233.9,187.2 243.3,176.1 243.3,175.1 234.3,175.1 229,181.4 223.7,175.1 213.7,175.1 224,187.2 			"/>
		<g>
			<path class="st0" d="M1281.2,347.5c2.2,0,4.7-2,4.7-6s-2.5-6-4.7-6s-4.8,2-4.8,6S1279,347.5,1281.2,347.5z"/>
			<path class="st0" d="M180,268.1h1120.5v-12L213,256l0.1-44.9H257v-11.9h-12.8h-9.9h-10.6h-9.9H201V256h-21v110.1l1120.5-2.4
				v-75.6H180v-16V268.1z M1281.2,330.9c5.9,0,9.7,4.5,9.7,10.6c0,6-3.8,10.6-9.7,10.6c-6,0-9.8-4.6-9.8-10.6
				C1271.5,335.5,1275.2,330.9,1281.2,330.9z M1258.1,342.6l-1.1-3l5.3-3.9h-8.8v-4.4h14.7v4.1l-5,4.3c3.2,0.6,5.7,2.4,5.7,5.7
				c0,3.5-2.6,6.7-8,6.7c-5.2,0-8.2-3.6-8.2-7.4h5c0,1.9,1.5,2.9,3.2,2.9s3-0.8,3-2.1C1263.9,343,1261.7,342.6,1258.1,342.6z
				 M1242,330.9c5.1,0,7.7,3.4,7.7,7.1c0,5.5-8.3,9.3-8.3,9.3h8v4.4h-15v-4.4c0,0,10.4-5.5,10.4-9.3c0-1.6-1.1-2.6-2.7-2.6
				s-2.7,1.3-2.7,3.1h-5C1234.3,334.3,1237.2,330.9,1242,330.9z M1215.1,330.9c4.3,0,7.8,2,9.6,5.1l-4.2,2.4
				c-1-1.9-2.8-3.1-5.4-3.1c-3.6,0-6.1,2.6-6.1,6c0,3.2,2.5,6.1,6.1,6.1c2.5,0,4.4-1.3,5.4-3.1l4.2,2.4c-1.8,3.1-5.2,5.3-9.5,5.3
				c-6.4,0-11-4.7-11-10.7C1204,335.7,1208.7,330.9,1215.1,330.9z M1175.9,331.3h5.5l7.1,15l7.1-15h5.5v20.4h-5v-10.4l-4.9,10.4
				h-5.5l-4.9-10.4v10.4h-4.9L1175.9,331.3L1175.9,331.3z M1156.5,331.3h15.6v4.6h-10.7v4.7h8.9v4.5h-8.9v6.6h-4.9V331.3
				L1156.5,331.3z"/>
		</g>
		<g>
			<polygon class="st5" points="233.6,198.4 229,193 224.4,198.3 224,198.8 223.7,199.2 234.3,199.2 234,198.8 				"/>
			<polygon class="st5" points="243.3,176.1 233.9,187.2 243.3,198.2 243.5,198.4 244.2,199.2 257,199.2 257,175.1 244.2,175.1 
								"/>
			<polygon class="st5" points="320.1,230.3 272.3,230.3 264.4,230.3 264.4,238.2 265.3,240.3 272.1,256 272.3,256.5 332.3,256.5 
				332.3,256 332.3,240.3 332.3,230.3 				"/>
			<polygon class="st5" points="320.1,226.5 320.1,220.5 320.1,220.5 272.3,220.5 272.3,226.5 				"/>
			<polygon class="st5" points="403.9,230.3 356.2,230.3 348.3,230.3 348.3,238.2 349.2,240.3 356,256 356.2,256.5 416.2,256.5 
				416.2,256 416.2,240.3 416.2,230.3 				"/>
			<polygon class="st5" points="403.9,226.5 403.9,220.5 403.9,220.5 356.2,220.5 356.2,226.5 				"/>
			<polygon class="st5" points="1185.2,230.3 1137.5,230.3 1129.6,230.3 1129.6,238.2 1130.5,240.3 1137.2,256 1137.5,256.5 
				1197.5,256.5 1197.5,256 1197.5,240.3 1197.5,230.3 				"/>
			<polygon class="st5" points="1185.2,226.5 1185.2,220.5 1185.2,220.5 1137.5,220.5 1137.5,226.5 				"/>
			<polygon class="st5" points="1269.1,230.3 1269.1,230.3 1221.4,230.3 1213.5,230.3 1213.5,238.2 1214.4,240.3 1221.1,256 
				1221.3,256.5 1281.4,256.5 1281.4,256 1281.4,240.3 1281.4,230.3 				"/>
			<polygon class="st5" points="1269.1,226.5 1269.1,220.5 1269.1,220.5 1221.4,220.5 1221.4,226.5 				"/>
		</g>
		<g>
			<polygon class="st2" points="214.1,198.8 214.6,198.2 224,187.2 213.7,175.1 201,175.1 201,199.2 213.8,199.2 				"/>
			<polygon class="st2" points="234.3,175.1 223.7,175.1 229,181.4 				"/>
			<rect x="180" y="272.1" class="st2" width="1120.5" height="16"/>
			<polygon class="st2" points="320.1,220.5 320.1,220.5 320.1,226.5 320.1,226.5 320.1,230.3 320.1,230.3 332.3,230.3 
				332.3,230.3 332.3,220.5 328,220.5 328,212.4 328,204.4 320.1,204.4 300,204.4 300,212.4 320.1,212.4 				"/>
			<polygon class="st2" points="272.3,212.4 278.4,212.4 278.4,204.4 272.3,204.4 264.4,204.4 264.4,212.4 264.4,230.3 
				272.3,230.3 				"/>
			<polygon class="st2" points="403.9,220.5 403.9,220.5 403.9,226.5 403.9,226.5 403.9,230.3 403.9,230.3 416.2,230.3 
				416.2,230.3 416.2,220.5 411.9,220.5 411.9,212.4 411.9,204.4 403.9,204.4 383.9,204.4 383.9,212.4 403.9,212.4 				"/>
			<polygon class="st2" points="356.2,212.4 362.3,212.4 362.3,204.4 356.2,204.4 348.3,204.4 348.3,212.4 348.3,230.3 
				356.2,230.3 				"/>
			<polygon class="st2" points="1185.2,220.5 1185.2,220.5 1185.2,226.5 1185.2,226.5 1185.2,230.3 1185.2,230.3 1197.5,230.3 
				1197.5,230.3 1197.5,220.5 1193.2,220.5 1193.2,212.4 1193.2,204.4 1185.2,204.4 1165.2,204.4 1165.2,212.4 1185.2,212.4 				
				"/>
			<polygon class="st2" points="1137.5,212.4 1143.6,212.4 1143.6,204.4 1137.5,204.4 1129.6,204.4 1129.6,212.4 1129.6,230.3 
				1137.5,230.3 				"/>
			<polygon class="st2" points="1269.1,220.5 1269.1,220.5 1269.1,226.5 1269.1,226.5 1269.1,230.3 1269.1,230.3 1281.4,230.3 
				1281.4,230.3 1281.4,220.5 1277,220.5 1277,212.4 1277,204.4 1269.1,204.4 1249,204.4 1249,212.4 1269.1,212.4 				"/>
			<polygon class="st2" points="1221.4,212.4 1227.5,212.4 1227.5,204.4 1221.4,204.4 1213.5,204.4 1213.5,212.4 1213.5,230.3 
				1221.4,230.3 				"/>
		</g>
		<g>
			<rect x="180" y="268.1" class="st3" width="1120.5" height="4"/>
			<polygon class="st3" points="1156.5,351.7 1161.4,351.7 1161.4,345 1170.3,345 1170.3,340.5 1161.4,340.5 1161.4,335.8 
				1172.1,335.8 1172.1,331.3 1156.5,331.3 				"/>
			<polygon class="st3" points="1188.5,346.2 1181.4,331.3 1175.9,331.3 1175.9,351.7 1180.9,351.7 1180.9,341.3 1185.7,351.7 
				1191.2,351.7 1196.1,341.3 1196.1,351.7 1201.1,351.7 1201.1,331.3 1195.6,331.3 				"/>
			<path class="st3" d="M1215.1,335.4c2.6,0,4.5,1.2,5.4,3.1l4.2-2.4c-1.8-3.1-5.2-5.1-9.6-5.1c-6.4,0-11,4.7-11,10.4
				c0,6,4.7,10.7,11,10.7c4.3,0,7.7-2.2,9.5-5.3l-4.2-2.4c-1,1.8-2.8,3.1-5.4,3.1c-3.6,0-6.1-2.9-6.1-6.1
				C1209,338,1211.5,335.4,1215.1,335.4z"/>
			<path class="st3" d="M1249.7,338c0-3.7-2.5-7.1-7.7-7.1c-4.7,0-7.7,3.4-7.7,7.6h5c0-1.7,1-3.1,2.7-3.1c1.6,0,2.7,1,2.7,2.6
				c0,3.8-10.4,9.3-10.4,9.3v4.4h15v-4.4h-8C1241.3,347.3,1249.7,343.5,1249.7,338z"/>
			<path class="st3" d="M1263.2,339.7l5-4.3v-4.1h-14.7v4.4h8.8l-5.3,3.9l1.1,3c3.5,0,5.8,0.4,5.8,2.8c0,1.4-1.3,2.1-3,2.1
				s-3.2-0.9-3.2-2.9h-5c0,3.8,3,7.4,8.2,7.4c5.3,0,8-3.1,8-6.7C1268.9,342.1,1266.4,340.2,1263.2,339.7z"/>
			<path class="st3" d="M1281.2,330.9c-6,0-9.8,4.5-9.8,10.6c0,6,3.7,10.6,9.8,10.6c5.9,0,9.7-4.6,9.7-10.6
				S1287.1,330.9,1281.2,330.9z M1281.2,347.5c-2.2,0-4.8-2-4.8-6s2.5-6,4.8-6s4.7,2,4.7,6S1283.5,347.5,1281.2,347.5z"/>
		</g>
	</g>
</g>
<g data-group="FMC2_spindles">
	<g>
		<g>
			<rect x="852" y="203.5" class="st0" width="40.6" height="52.5"/>
			<rect x="867.5" y="167.9" class="st2" width="25" height="35.6"/>
			<rect x="848.2" y="158.6" class="st0" width="44.4" height="9.3"/>
			<polygon class="st5" points="852,256 842.8,256 843.5,47.9 852.8,47.9 			"/>
		</g>
		<g>
			<polygon class="st6" points="812.5,203.8 815.6,203.8 815.6,215.6 820,213.6 820,203.8 823.1,203.8 823.1,199.2 812.5,199.2 			
				"/>
			<polygon class="st5" points="801.6,183.2 806.2,199.2 829.5,199.2 834,183.2 834,160 801.6,160 			"/>
			<rect x="801.6" y="156" class="st0" width="32.3" height="4"/>
			<rect x="797" y="47.9" class="st0" width="41.7" height="108.1"/>
			<rect x="801" y="51.9" class="st2" width="33.7" height="100.1"/>
		</g>
	</g>
	<rect x="838.6" y="47.9" class="st5" width="5.5" height="16.9"/>
	<rect x="838.6" y="76.8" class="st5" width="5.5" height="79.2"/>
	<rect x="838.6" y="64.8" class="st5" width="5.5" height="12"/>
</g>
<g data-highlighted="FMC2_axes">
	<g>
		<rect x="356.2" y="226.5" class="st4" width="47.7" height="3.8"/>
		<rect x="272.3" y="226.5" class="st4" width="47.8" height="3.8"/>
		<rect x="1137.5" y="226.5" class="st4" width="47.7" height="3.8"/>
		<rect x="1221.4" y="226.5" class="st4" width="47.7" height="3.8"/>
		<path class="st4" d="M1300.5,238.1h-1.1v-33.7c0-9.9-8.1-18-18-18h-151.8c-9.9,0-18,8.1-18,18v33.7H434.2v-33.7
			c0-9.9-8.1-18-18-18H275v-11.3c0-9.9-8.1-18-18-18h-56c-9.9,0-18,8.1-18,18V238h-3c-9.9,0-18,8.1-18,18v110.1c0,10,8.1,18,18,18
			l1120.5-2.4c9.9,0,18-8.1,18-18V256.1C1318.5,246.2,1310.4,238.1,1300.5,238.1z M1300.5,268.1v4v16v75.6L180,366.1v-78v-16v-4V256
			h21v-56.8v-24.1h12.7h10h10.6h9v1l0.9-1H257v24.1v11.9h-43.9L213,256l59.1,0l0,0l-6.8-15.7l-0.9-2.1v-7.9v-17.9v-8h7.9h6.1v8h-6.1
			v8.1h47.8v-8.1H300v-8h20.1h7.9v8v8.1h4.3v9.8v10V256v0l23.7,0l0,0l-6.8-15.7l-0.9-2.1v-7.9v-17.9v-8h7.9h6.1v8h-6.1v8.1h47.7
			v-8.1h-20v-8h20h8v8v8.1h4.3v9.8v10V256v0l721.1,0.1l-0.1-0.1l-6.7-15.7l-0.9-2.1v-7.9v-17.9v-8h7.9h6.1v8h-6.1v8.1h47.7v-8.1h-20
			v-8h20h8v8v8.1h4.3v9.8v10V256v0.1l23.6,0l0-0.1l-6.7-15.7l-0.9-2.1v-7.9v-17.9v-8h7.9h6.1v8h-6.1v8.1h47.7v-8.1H1249v-8h20.1h7.9
			v8v8.1h4.4v9.8v10V256v0.1l19.1,0V268.1z"/>
	</g>
</g>
<g data-highlighted="FMC2_tools">
	<path class="st4" d="M347.3,80H169.9C160,80,152,88,152,97.9v29c0,9.9,8,17.9,17.9,17.9h169.8c6.7,0,12.9-3.8,16-9.7l7.5-14.6
		c1.3-2.5,2-5.3,2-8.2V98C365.2,88.1,357.2,80,347.3,80z M347.2,112.4l-7.5,14.6H169.9V98h177.3V112.4L347.2,112.4z"/>
</g>
<g data-highlighted="FMC2_spindles">
	<path class="st4" d="M838.8,29.9H797c-9.9,0-18,8-18,18v167.8c0,9.9,8,18,18,18h41.8c9.9,0,18-8,18-18V47.9
		C856.6,38,848.6,29.9,838.8,29.9z M838.6,156h-4.7v4v23.2l-4.6,16h-6.2v4.6H820v9.7l-4.5,2.1v-11.8h-3.1v-4.6h-6.2l-4.6-16V160v-4
		H797V47.9h41.7L838.6,156L838.6,156z"/>
</g>
</svg>
