<?xml version="1.0" encoding="utf-8"?>
<!-- Generator: Adobe Illustrator 25.1.0, SVG Export Plug-In . SVG Version: 6.00 Build 0)  -->
<svg version="1.1" xmlns="http://www.w3.org/2000/svg" xmlns:xlink="http://www.w3.org/1999/xlink" x="0px" y="0px"
	 viewBox="0 0 1050 400" style="enable-background:new 0 0 1050 400;" xml:space="preserve">
<style type="text/css">
	.st0{fill:#005140;}
	.st1{fill:none;}
	.st2{fill:#4A7E68;}
	.st3{fill:#215F46;}
	.st4{fill:#FFFFFF;}
	.st5{fill:#246047;}
</style>
<g id="out">
	<path class="st0" d="M909,371.8l127.1-63.2c4.9-2.5,10.9-0.4,13.4,4.5c2.5,4.9,0.4,10.9-4.5,13.4l-106.3,52.9
		C937.6,379.9,904.1,374.2,909,371.8z"/>
</g>
<g id="FMC650">
</g>
<g data-highlighted="FMC650_axes">
	<path class="st1" d="M34.5,382v-71.8c0-9.9,8.1-18,18-18h49.5v48.2h381.4V240.1h360.9c9.9,0,18,8.1,18,18v34.1h32
		c9.9,0,18,8.1,18,18v12.2h59.7c9.9,0,18,8.1,18,18V382c0,9.9-8.1,18-18,18H52.5C42.5,400,34.5,391.9,34.5,382z"/>
</g>
<g data-group="FMC650_axes">
	<g>
		<polygon class="st0" points="598.5,260.3 598.5,273.3 598.5,316.3 606.5,316.3 606.5,276.3 618.5,276.3 618.5,224.3 598.5,224.3 
					"/>
		<polygon class="st0" points="884.3,260.3 884.3,273.3 884.3,316.3 876.3,316.3 876.3,276.3 864.3,276.3 864.3,224.3 884.3,224.3 
					"/>
		<polygon class="st0" points="591.1,260.3 591.1,273.3 591.1,316.3 583.1,316.3 583.1,276.3 571.1,276.3 571.1,224.3 591.1,224.3 
					"/>
	</g>
	
		<rect x="51.8" y="310.9" transform="matrix(-1.836970e-16 1 -1 -1.836970e-16 421.0314 309.3841)" class="st2" width="8" height="108.6"/>
	<g>
		<g>
			<g>
				<polygon class="st3" points="839.9,284 839.9,284 792.2,284 784.3,284 784.3,291.9 785.2,294 792.1,310.2 852.2,310.2 
					852.2,294 852.2,284 				"/>
				<polygon class="st3" points="839.9,280.2 839.9,274.2 839.9,274.2 792.2,274.2 792.2,280.2 				"/>
				<polygon class="st2" points="839.9,274.2 839.9,274.2 839.9,280.2 839.9,280.2 839.9,284 839.9,284 852.2,284 852.2,284 
					852.2,274.2 847.8,274.2 847.8,266.1 847.8,258.1 839.9,258.1 819.8,258.1 819.8,266.1 839.9,266.1 				"/>
				<polygon class="st2" points="792.2,266.1 798.3,266.1 798.3,258.1 792.2,258.1 784.3,258.1 784.3,266.1 784.3,284 792.2,284 
									"/>
			</g>
			<g>
				<polygon class="st3" points="762,284 762,284 714.3,284 706.4,284 706.4,291.9 707.3,294 714.2,310.2 774.3,310.2 774.3,294 
					774.3,284 				"/>
				<polygon class="st3" points="762,280.2 762,274.2 762,274.2 714.3,274.2 714.3,280.2 				"/>
				<polygon class="st2" points="762,274.2 762,274.2 762,280.2 762,280.2 762,284 762,284 774.3,284 774.3,284 774.3,274.2 
					769.9,274.2 769.9,266.1 769.9,258.1 762,258.1 741.9,258.1 741.9,266.1 762,266.1 				"/>
				<polygon class="st2" points="714.3,266.1 720.4,266.1 720.4,258.1 714.3,258.1 706.4,258.1 706.4,266.1 706.4,284 714.3,284 
									"/>
			</g>
			<g>
				<polygon class="st3" points="684.1,284 684.1,284 636.4,284 628.5,284 628.5,291.9 629.4,294 636.3,310.2 696.4,310.2 
					696.4,294 696.4,284 				"/>
				<polygon class="st3" points="684.1,280.2 684.1,274.2 684.1,274.2 636.4,274.2 636.4,280.2 				"/>
				<polygon class="st2" points="684.1,274.2 684.1,274.2 684.1,280.2 684.1,280.2 684.1,284 684.1,284 696.4,284 696.4,284 
					696.4,274.2 692,274.2 692,266.1 692,258.1 684.1,258.1 664,258.1 664,266.1 684.1,266.1 				"/>
				<polygon class="st2" points="636.4,266.1 642.5,266.1 642.5,258.1 636.4,258.1 628.5,258.1 628.5,266.1 628.5,284 636.4,284 
									"/>
			</g>
		</g>
		<g>
			<polygon class="st3" points="548.8,284 548.8,284 501.1,284 493.2,284 493.2,291.9 494.1,294 501,310.2 561.1,310.2 561.1,294 
				561.1,284 			"/>
			<polygon class="st3" points="548.8,280.2 548.8,274.2 548.8,274.2 501.1,274.2 501.1,280.2 			"/>
			<polygon class="st2" points="548.8,274.2 548.8,274.2 548.8,280.2 548.8,280.2 548.8,284 548.8,284 561.1,284 561.1,284 
				561.1,274.2 556.7,274.2 556.7,266.1 556.7,258.1 548.8,258.1 528.7,258.1 528.7,266.1 548.8,266.1 			"/>
			<polygon class="st2" points="501.1,266.1 507.2,266.1 507.2,258.1 501.1,258.1 493.2,258.1 493.2,266.1 493.2,284 501.1,284 			
				"/>
		</g>
	</g>
	<rect x="52.5" y="310.2" class="st2" width="841.8" height="70.2"/>
	<rect x="52.5" y="340.4" class="st3" width="919.4" height="41.6"/>
	<rect x="52.5" y="310.2" class="st0" width="30.2" height="71.8"/>
	<g>
		<path class="st4" d="M820.8,358.3h8.1v4.4h-8.1v7.3h-5.4v-20h14.2v4.4h-8.8V358.3z"/>
		<path class="st4" d="M862.2,370h-5.3l0.4-15.3h-0.2l-5,15.3h-4.6l-5.1-15.3h-0.2l0.5,15.3h-5.3v-20h8.5l3.8,12.6h0.2l3.6-12.6h8.7
			V370z"/>
		<path class="st4" d="M888,362.5v0.6c0,0.6,0,1.3-0.1,1.8c0,0.6-0.1,1.1-0.2,1.7c-0.1,0.5-0.3,1-0.7,1.5s-0.8,0.8-1.4,1.2
			c-0.3,0.2-0.6,0.4-1,0.5c-0.3,0.1-0.7,0.2-1.1,0.3c-0.2,0-0.4,0-0.5,0.1c-0.2,0-0.4,0-0.5,0.1c-0.2,0-0.4,0-0.6,0
			c-0.2,0-0.4,0-0.5,0c0,0-0.1,0-0.1,0c-0.1,0-0.1,0-0.1,0s-0.1,0-0.1,0s-0.1,0-0.1,0c-0.2,0-0.4,0-0.6,0c-0.2,0-0.4,0-0.6,0
			c-0.1,0-0.2,0-0.3,0s-0.2,0-0.3,0c-0.1,0-0.2,0-0.3,0s-0.2,0-0.3,0c-0.1,0-0.2,0-0.3,0c-0.1,0-0.2,0-0.3,0c-0.1,0-0.2,0-0.3,0
			c-0.1,0-0.2,0-0.3,0c-0.2,0-0.4,0-0.6,0c-0.2,0-0.4,0-0.6,0c-1.3-0.1-2.4-0.4-3.2-0.9c-0.8-0.5-1.4-1.2-1.7-2
			c-0.3-0.8-0.6-1.8-0.7-2.7c-0.2-1-0.2-2-0.3-3.1l0-2.6c0-1.7,0.2-3.1,0.5-4.3c0.3-1.2,0.8-2,1.5-2.7c0.7-0.6,1.6-1.1,2.7-1.4
			c1.2-0.3,2.6-0.5,4.3-0.5l1.7-0.1c0.1,0,0.1,0.1,0.2,0.1s0.1,0,0.2,0c0.1,0,0.2,0,0.2,0s0.1,0,0.2,0c0.5,0,1,0.1,1.5,0.1
			c0.5,0.1,1,0.2,1.5,0.4c0.5,0.1,0.9,0.4,1.3,0.7s0.7,0.7,1,1.2c0.1,0.2,0.3,0.5,0.3,0.7c0.1,0.3,0.2,0.5,0.2,0.8
			c0,0.1,0,0.3,0.1,0.4c0,0.1,0,0.3,0.1,0.4c0,0.1,0,0.3,0,0.4c0,0.1,0,0.3,0,0.4c0,0.1,0,0.2,0,0.2s0,0.2,0,0.2c0,0,0,0.1,0,0.1
			s0,0.1,0,0.1c0,0,0,0.1,0,0.1s0,0.1,0,0.1c0,0,0,0,0,0.1c0,0,0,0,0,0.1c0,0,0,0,0,0.1c0,0,0,0,0,0c0,0,0,0,0,0c0,0,0,0,0,0
			c0,0,0,0,0,0v0.3h-5.4c0-0.5,0-0.9-0.2-1.2c-0.1-0.3-0.2-0.6-0.4-0.8c-0.2-0.2-0.5-0.3-0.8-0.5c-0.4-0.1-0.8-0.1-1.3-0.1l-0.9-0.1
			c0,0-0.1,0-0.1,0c0,0-0.1,0-0.1,0c0,0-0.1,0-0.1,0s-0.1,0-0.1,0s-0.1,0-0.1,0s-0.1,0-0.1,0c0,0-0.1,0-0.1,0c0,0-0.1,0-0.1,0
			c-0.2,0-0.3,0-0.5,0.1c-0.2,0-0.3,0.1-0.5,0.1c-0.1,0.1-0.3,0.1-0.4,0.2c-0.1,0.1-0.2,0.2-0.3,0.3c-0.1,0.1-0.2,0.2-0.3,0.4
			c-0.1,0.1-0.1,0.2-0.2,0.4c0,0.1,0,0.3-0.1,0.4c0,0.1,0,0.3,0,0.4c0,0,0,0,0,0.1c0,0,0,0,0,0.1c0,0,0,0,0,0.1c0,0,0,0,0,0.1
			c0,0,0,0,0,0.1c0,0,0,0,0,0.1c0,0,0,0,0,0.1c0,0.1,0,0.2,0,0.2c0,0.1,0,0.1,0,0.2c0,0.1,0,0.2,0,0.2s0,0.1,0,0.2
			c0,0.1,0,0.2,0,0.2s0,0.1,0,0.2c0,0.1,0,0.2,0,0.2s0,0.1,0,0.2c0,0.1,0,0.3,0,0.4c0,0.2,0,0.3,0,0.5c0,0.1,0,0.3,0,0.4
			s0,0.3,0,0.4c0,0,0,0.1,0,0.1c0,0,0,0.1,0,0.1c0,0,0,0.1,0,0.1c0,0,0,0.1,0,0.1c0,0.1,0,0.1,0,0.2c0,0,0,0.1,0,0.1s0,0.1,0,0.1
			c0,0.1,0,0.1,0,0.1c0,0.7,0.1,1.4,0.2,1.9c0.1,0.5,0.3,0.9,0.5,1.2c0.2,0.3,0.6,0.5,1,0.6s1.1,0.2,1.8,0.2c0.5,0,1,0,1.4-0.1
			s0.8-0.2,1.1-0.3c0.3-0.2,0.5-0.4,0.7-0.8c0.2-0.4,0.2-0.8,0.2-1.4c0,0,0,0,0-0.1c0,0,0,0,0-0.1c0,0,0,0,0-0.1s0,0,0-0.1
			c0,0,0,0,0-0.1c0,0,0,0,0-0.1s0,0,0-0.1s0,0,0-0.1v-0.1H888z"/>
		<path class="st4" d="M907,356.1c0-0.5-0.1-0.8-0.2-1.1c-0.1-0.3-0.2-0.5-0.4-0.6c-0.2-0.1-0.4-0.2-0.7-0.2s-0.7-0.1-1-0.1
			l-0.5-0.1c-0.5,0-1,0.1-1.4,0.1c-0.4,0.1-0.7,0.1-0.9,0.2c-0.3,0.1-0.4,0.4-0.6,0.7c-0.1,0.4-0.2,0.8-0.2,1.4l0,0.5v2.9
			c0.2-0.5,0.4-0.8,0.7-1.1s0.5-0.5,0.8-0.6c0.3-0.1,0.6-0.2,1-0.2c0.4,0,0.8-0.1,1.2-0.1c1.1,0,2,0.1,2.9,0.2
			c0.8,0.2,1.6,0.4,2.3,0.7c0.7,0.3,1.2,0.9,1.5,1.6c0.3,0.8,0.5,1.8,0.5,3c0,1.4-0.2,2.6-0.5,3.5c-0.3,0.9-0.8,1.6-1.4,2
			c-0.6,0.4-1.4,0.7-2.4,0.9c-1,0.2-2.2,0.3-3.5,0.3c-1.5,0-2.7-0.1-3.7-0.3c-1-0.2-1.9-0.6-2.5-1.1c-0.6-0.5-1.1-1.2-1.4-2.2
			c-0.3-1-0.5-2.3-0.5-3.9c0-0.1,0-0.2,0-0.3c0-0.1,0-0.2,0-0.3s0-0.2,0-0.3c0-0.1,0-0.2,0-0.3c0-0.1,0-0.2,0-0.3c0-0.1,0-0.2,0-0.3
			c0-0.1,0-0.2,0-0.3c0-0.1,0-0.2,0-0.3l0-3.4c0-1.3,0.2-2.5,0.5-3.4c0.3-0.9,0.8-1.6,1.4-2c0.6-0.5,1.4-0.8,2.3-1
			c0.9-0.2,2-0.4,3.3-0.4c1.2,0,2.3,0.1,3.3,0.2s1.9,0.4,2.7,0.7c0.8,0.3,1.4,0.9,1.8,1.8c0.4,0.9,0.6,2.1,0.6,3.5v-0.1H907z
			 M901.2,364.7c0,0.3,0.1,0.5,0.2,0.7c0.1,0.2,0.3,0.4,0.5,0.5c0.2,0.1,0.5,0.2,0.9,0.2l1.3-0.1c0,0,0,0.1,0.1,0.1c0,0,0,0,0.1,0
			c0,0,0,0,0.1,0c0,0,0,0,0.1,0c0.5,0,0.9-0.1,1.2-0.2c0.3-0.1,0.6-0.2,0.8-0.3c0.2-0.1,0.3-0.3,0.4-0.6c0.1-0.3,0.1-0.7,0.1-1.3
			c0-0.4,0-0.7-0.1-1c-0.1-0.3-0.2-0.4-0.4-0.5c-0.2-0.1-0.4-0.2-0.6-0.2c-0.2,0-0.5-0.1-0.8-0.1l-1.6-0.1c-0.5,0-0.9,0.1-1.2,0.2
			c-0.3,0.1-0.5,0.2-0.6,0.3c-0.1,0.1-0.2,0.3-0.3,0.6s-0.1,0.5-0.1,0.9v-0.1C901.2,364.1,901.2,364.4,901.2,364.7z"/>
		<path class="st4" d="M935.5,353.9h-9.8v3.9c0.3-0.3,0.6-0.6,0.9-0.8c0.3-0.2,0.6-0.3,0.9-0.4c0.3-0.1,0.7-0.1,1-0.2
			s0.8-0.1,1.2-0.1c1.2,0,2.2,0.1,3.1,0.4c0.9,0.2,1.5,0.6,2,1.1c0.5,0.5,0.9,1.1,1.2,2c0.3,0.8,0.4,1.9,0.4,3.1v0.6
			c0,0.1,0,0.2,0,0.3c0,0.1,0,0.2,0,0.3c0,0,0,0.1,0,0.1s0,0.1,0,0.1c0,0,0,0.1,0,0.1c0,0.1,0,0.1,0,0.1c0,0.4,0,0.7-0.1,1
			s-0.1,0.7-0.2,1c-0.1,0.3-0.2,0.6-0.4,0.9c-0.2,0.3-0.4,0.6-0.6,0.8c-0.3,0.3-0.7,0.6-1,0.8s-0.8,0.4-1.2,0.5s-0.8,0.2-1.3,0.3
			c-0.4,0.1-0.9,0.1-1.3,0.1c-0.1,0-0.2,0-0.3,0s-0.2,0-0.3,0c-0.1,0-0.2,0-0.3,0s-0.2,0-0.2,0c-0.1,0-0.2,0-0.3,0
			c-0.1,0-0.2,0-0.3,0c-0.1,0-0.2,0-0.3,0c-0.1,0-0.2,0-0.2,0c-0.1,0-0.3,0-0.4,0c-0.2,0-0.3,0-0.5,0c-0.1,0-0.2,0-0.2,0
			s-0.1,0-0.2,0c-0.1,0-0.2,0-0.2,0s-0.1,0-0.2,0c-0.5,0-1-0.1-1.4-0.1c-0.5-0.1-0.9-0.2-1.3-0.3c-0.4-0.1-0.8-0.3-1.2-0.6
			c-0.4-0.3-0.7-0.6-1-1c-0.2-0.2-0.3-0.4-0.4-0.6c-0.1-0.2-0.2-0.5-0.3-0.7c-0.1-0.2-0.1-0.5-0.1-0.8c0-0.3-0.1-0.5-0.1-0.8
			c0-0.1,0-0.1,0-0.2s0-0.1,0-0.2c0,0,0-0.1,0-0.1c0,0,0-0.1,0-0.1c0,0,0,0,0-0.1s0-0.1,0-0.1c0,0,0,0,0-0.1s0,0,0,0c0,0,0,0,0,0
			l5.1-0.1c0,0.4,0.1,0.7,0.2,1c0.1,0.2,0.2,0.4,0.4,0.5c0.2,0.1,0.4,0.2,0.6,0.3c0.3,0,0.6,0.1,0.9,0.1c0.8,0,1.4,0,1.9-0.1
			c0.5-0.1,0.8-0.2,1-0.4c0.2-0.2,0.3-0.5,0.4-0.9c0.1-0.4,0.2-1,0.2-1.8c0-0.6-0.1-1.1-0.2-1.5c-0.1-0.4-0.3-0.6-0.5-0.7
			c-0.2-0.1-0.5-0.2-0.9-0.3c-0.4-0.1-0.9-0.1-1.5-0.1c0,0,0,0-0.1,0c0,0-0.1,0-0.1,0c0,0-0.1,0-0.1,0c0,0-0.1,0-0.1,0
			c-0.1,0-0.1,0-0.2,0c-0.1,0-0.1,0-0.1,0c-0.1,0-0.1,0-0.2,0c-0.1,0-0.1,0-0.2,0c-0.1,0-0.1,0-0.2,0c-0.1,0-0.1,0-0.2,0
			c-0.1,0-0.2,0-0.3,0c-0.1,0-0.2,0-0.3,0c-0.1,0-0.3,0.1-0.3,0.1c-0.1,0.1-0.2,0.1-0.2,0.2c-0.1,0.1-0.1,0.2-0.1,0.3
			c0,0.1-0.1,0.2-0.1,0.3l-4.6-0.1V350h14.5V353.9z"/>
		<path class="st4" d="M945,358c0-0.8,0-1.5,0.1-2.3c0.1-0.7,0.2-1.5,0.4-2.1c0.2-0.7,0.5-1.3,1-1.8c0.5-0.5,1.2-1,2-1.3
			c0.2-0.1,0.4-0.2,0.7-0.2c0.2-0.1,0.5-0.1,0.7-0.1c0.3,0,0.5-0.1,0.8-0.1c0.3,0,0.5,0,0.8-0.1c0,0,0.1,0,0.1,0s0.1,0,0.1,0
			c0,0,0,0,0.1,0c0,0,0.1,0,0.1,0c0,0,0.1,0,0.1,0c0,0,0.1,0,0.1,0c0,0,0,0,0.1,0s0.1,0,0.1,0l1.1-0.1c0.3,0,0.6,0.1,1,0.1
			c0.3,0,0.6,0,1,0c0.2,0,0.3,0,0.5,0s0.3,0,0.5,0c0.2,0,0.3,0,0.5,0.1c0.2,0,0.3,0,0.5,0.1c0.5,0.1,0.9,0.2,1.3,0.4
			s0.8,0.5,1.1,0.8c0.3,0.4,0.6,0.7,0.9,1.1c0.2,0.4,0.5,0.8,0.6,1.3c0.1,0.2,0.1,0.5,0.2,0.7c0.1,0.2,0.1,0.5,0.1,0.8
			c0,0.1,0,0.3,0,0.4c0,0.1,0,0.3,0,0.4c0,0.1,0,0.3,0,0.4c0,0.1,0,0.3,0,0.4c0,0.1,0,0.1,0,0.2c0,0.1,0,0.1,0,0.1s0,0.1,0,0.1
			s0,0.1,0,0.1c0,0.2,0,0.4,0,0.5s0,0.3,0,0.5c0,0.1,0,0.2,0,0.2s0,0.2,0,0.2c0,0.1,0,0.1,0,0.2s0,0.2,0,0.2l-0.1,4.4
			c-0.1,1.4-0.3,2.5-0.7,3.4c-0.4,0.9-0.9,1.5-1.6,1.9c-0.7,0.4-1.5,0.7-2.5,0.8c-1,0.2-2.1,0.3-3.3,0.3h-1c-0.1,0-0.2,0-0.3,0
			c-0.1,0-0.2,0-0.3,0c-0.1,0-0.1,0-0.2,0s-0.1,0-0.1,0c-0.1,0-0.1,0-0.2,0s-0.1,0-0.1,0c-0.3,0-0.5,0-0.8-0.1c-0.3,0-0.5,0-0.8-0.1
			c-0.3,0-0.5-0.1-0.8-0.2s-0.5-0.2-0.7-0.3c-0.5-0.3-1-0.6-1.3-0.9c-0.4-0.4-0.7-0.8-0.9-1.3c-0.2-0.5-0.4-1-0.5-1.5
			c-0.1-0.5-0.2-1.1-0.3-1.6c0,0,0-0.1,0-0.1s0-0.1,0-0.1c0,0,0-0.1,0-0.1c0,0,0-0.1,0-0.1c0,0,0-0.1,0-0.1s0-0.1,0-0.2
			c0,0,0-0.1,0-0.1s0-0.1,0-0.1v-3.8V358z M950.1,362.5c0,0.7,0,1.3,0.2,1.7c0.1,0.5,0.2,0.8,0.5,1c0.2,0.2,0.5,0.4,1,0.5
			c0.5,0.1,1,0.2,1.7,0.2c0.7,0,1.3-0.1,1.8-0.2c0.4-0.1,0.7-0.4,0.9-0.7c0.2-0.3,0.3-0.7,0.3-1.1s0.1-1,0.1-1.6c0-0.2,0-0.4,0-0.6
			c0-0.2,0-0.4,0-0.6c0-0.2,0-0.4,0-0.6s0-0.4,0-0.6c0-0.2,0-0.4,0-0.6c0-0.2,0-0.4,0-0.6c0-0.1,0-0.2,0-0.3c0-0.1,0-0.2,0-0.3
			c0-0.1,0-0.2,0-0.3c0-0.1,0-0.2,0-0.3c0-0.6,0-1-0.1-1.4c-0.1-0.4-0.2-0.7-0.4-1c-0.2-0.2-0.4-0.4-0.8-0.5s-0.9-0.2-1.5-0.2
			c-0.1,0-0.2,0-0.2,0s-0.1,0-0.2,0s-0.2,0-0.2,0c-0.1,0-0.1,0-0.2,0c-0.1,0-0.2,0-0.2,0s-0.1,0-0.2,0c-0.1,0-0.2,0-0.2,0
			c-0.1,0-0.1,0-0.2,0c-0.4,0.1-0.7,0.2-0.9,0.4c-0.3,0.2-0.4,0.4-0.5,0.7c-0.1,0.3-0.2,0.6-0.3,0.9c-0.1,0.3-0.1,0.6-0.1,0.9
			c0,0.1,0,0.1,0,0.2c0,0.1,0,0.1,0,0.2c0,0.1,0,0.1,0,0.2c0,0.1,0,0.1,0,0.2c0,0.1,0,0.2,0,0.2c0,0.1,0,0.1,0,0.2s0,0.2,0,0.2
			c0,0.1,0,0.1,0,0.2c0,0.1,0,0.2,0,0.2s0,0.1,0,0.2c0,0.1,0,0.2,0,0.2s0,0.1,0,0.2v-0.1V362.5z"/>
	</g>
</g>
<g id="CABINA">
	<polygon class="st2" points="427.3,-0.1 158,-0.1 158,91.1 201.2,91.1 201.2,97.7 231.2,97.7 231.2,137.5 246.2,123.5 246.2,97.7 
		246.2,91.1 427.3,91.1 	"/>
	<g>
		<path class="st0" d="M457.3,45.6H318.5V-0.1h-51.7v45.7H127.9c-14.3,0-26,11.7-26,26v268.8h16V71.6c0-5.5,4.5-10,10-10h329.4
			c5.5,0,10,4.5,10,10v268.8h16V71.6C483.3,57.3,471.7,45.6,457.3,45.6z"/>
		<path id="Path_3169_2_" class="st4" d="M291.3,25.9l23.2-8.1l-5.6-0.1c-5.3,1.7-10.8,2.8-16.3,3.2c-2.7-0.1-5.5-0.4-8.2-0.8
			l-0.8-0.1l7.3,5.5c0,0-15.9,5.6-24.1,9.9v2.4C274.6,33.2,282.8,29.2,291.3,25.9z"/>
	</g>
	<rect x="117.9" y="299.4" class="st2" width="349.4" height="41"/>
</g>
<g data-highlighted="FMC650_spindle">
	<path class="st1" d="M159.9,201.4v-4.3c0-9.9,8.1-18,18-18h10.3l-5-18.7V91.1c0-9.9,8.1-18,18-18h30c9.9,0,18,8.1,18,18v69.3
		l-5,18.7h10.3c9.9,0,18,8.1,18,18v4.3c0,9.9-8.1,18-18,18h-76.6C168,219.4,159.9,211.3,159.9,201.4z"/>
</g>
<g data-group="FMC650_spindle">
	<g>
		<g>
			<polygon class="st2" points="218.2,196.1 218.2,184.6 218.2,180.6 222.3,180.6 222.3,174.1 217.1,174.1 215.3,174.1 210.1,174.1 
				210.1,180.6 214.3,180.6 214.3,184.6 214.3,196.1 214.5,197.1 177.9,197.1 177.9,201.4 254.5,201.4 254.5,197.1 217.9,197.1 			
				"/>
			<g>
				<polygon class="st0" points="201.2,158 205.5,174.1 227,174.1 231.2,158 231.2,91.1 201.2,91.1 				"/>
			</g>
		</g>
	</g>
</g>
<g data-highlighted="FMC650_tools">
	<path class="st1" d="M140,299.4V244c0-9.9,8.1-18,18-18h269.3c9.9,0,18,8.1,18,18v55.4c0,9.9-8.1,18-18,18H158
		C148.1,317.4,140,309.3,140,299.4z"/>
</g>
<g data-group="FMC650_tools">
	<g>
		<g>
			<rect x="168" y="244" class="st5" width="249.4" height="55.5"/>
			<rect x="407.4" y="244" class="st5" width="19.9" height="55.5"/>
			<rect x="158" y="244" class="st5" width="19.9" height="55.5"/>
		</g>
		<rect x="168" y="260.5" class="st0" width="249.4" height="39"/>
		<g>
			<g>
				<path class="st2" d="M238.4,267h4.4v4v7.5c0,0.8,0.6,1.4,1.4,1.4s1.4-0.6,1.4-1.4V271v-4h4.9v-6.4h-12.1L238.4,267L238.4,267z"
					/>
				<polygon class="st2" points="257.8,267 261.2,267 261.2,271 261.2,282 266.2,275.6 266.2,271 266.2,267 270,267 270,260.5 
					257.8,260.5 				"/>
				<polygon class="st2" points="204.6,260.5 201.5,260.5 197,260.5 197,267 200.4,267 200.4,271 200.4,274.5 203.1,279.5 
					205.3,275.3 205.7,274.5 205.7,271 205.7,267 209.1,267 209.1,260.5 205.3,260.5 				"/>
				<polygon class="st2" points="225.8,282.5 225.8,271 225.8,267 229.9,267 229.9,260.5 224.7,260.5 222.9,260.5 217.7,260.5 
					217.7,267 221.9,267 221.9,271 221.9,282.5 222.1,283.5 185.5,283.5 185.5,287.8 262.1,287.8 262.1,283.5 225.5,283.5 				"/>
				<polygon class="st2" points="304,260.5 300.9,260.5 296.4,260.5 296.4,267 299.8,267 299.8,271 299.8,274.5 302.5,279.5 
					304.7,275.3 305.1,274.5 305.1,271 305.1,267 308.5,267 308.5,260.5 304.7,260.5 				"/>
				<polygon class="st2" points="325.2,282.5 325.2,271 325.2,267 329.3,267 329.3,260.5 324.1,260.5 322.3,260.5 317.1,260.5 
					317.1,267 321.3,267 321.3,271 321.3,282.5 321.5,283.5 294.9,283.5 294.9,287.8 351.5,287.8 351.5,283.5 324.9,283.5 				"/>
				<polygon class="st2" points="285.3,274.5 285.3,271 285.3,267 289.4,267 289.4,260.5 284.2,260.5 282.4,260.5 277.3,260.5 
					277.3,267 281.4,267 281.4,271 281.4,274.5 281.7,275.5 275,275.5 275,279.8 283.3,282.8 291.6,279.8 291.6,275.5 285,275.5 
									"/>
				<polygon class="st2" points="364.2,260.5 363.5,260.5 360.4,260.5 355.9,260.5 355.9,267 359.4,267 359.4,271 359.4,283.5 
					364.2,275.3 364.6,274.5 364.6,271 364.6,267 368.1,267 368.1,260.5 				"/>
				<polygon class="st2" points="344.5,274.5 344.5,271 344.5,267 348.6,267 348.6,260.5 343.4,260.5 341.6,260.5 336.5,260.5 
					336.5,267 340.6,267 340.6,271 340.6,274.5 340.9,275.5 334.2,275.5 334.2,279.8 342.5,281.8 350.8,279.8 350.8,275.5 
					344.2,275.5 				"/>
				<polygon class="st2" points="383.4,282.5 383.4,271 383.4,267 387.5,267 387.5,260.5 382.3,260.5 380.5,260.5 375.4,260.5 
					375.4,267 379.5,267 379.5,271 379.5,282.5 379.8,283.5 363.1,283.5 363.1,287.8 381.4,289.8 399.7,287.8 399.7,283.5 
					383.1,283.5 				"/>
			</g>
		</g>
	</g>
</g>
<g data-highlighted="FMC650_Motor_Blade">
	<path class="st1" d="M370.2,216c-29.2,1.8-54.4-17-62.5-43.2h-14.3v-18c0-21.2,9.2-41.1,24.9-54.9V63.6c0-9.9,8.1-18,18-18h30
		c9.9,0,18,8.1,18,18v32.4c26.2,8.1,45,33.3,43.2,62.5C425.8,189.3,401,214.1,370.2,216z"/>
</g>
<g data-group="FMC650_Motor_Blade">
	<g>
		<g>
			<g>
				<circle class="st0" cx="366.4" cy="154.7" r="43.4"/>
				<path class="st2" d="M366.4,99.8C366.4,99.8,366.4,99.8,366.4,99.8l0-36.1h-30v45.1c-15,9.8-24.9,26.8-24.9,46l24.9,0v0h30l0,0
					h0V99.8z"/>
			</g>
		</g>
	</g>
</g>
</svg>
