<?xml version="1.0" encoding="utf-8"?>
<!-- Generator: Adobe Illustrator 25.0.0, SVG Export Plug-In . SVG Version: 6.00 Build 0)  -->
<svg version="1.1" xmlns="http://www.w3.org/2000/svg" xmlns:xlink="http://www.w3.org/1999/xlink" x="0px" y="0px"
	 viewBox="0 0 1130 407" style="enable-background:new 0 0 1130 407;" xml:space="preserve">
<style type="text/css">
	.st0{fill:#005140;}
	.st1{fill:#246047;}
	.st2{fill:#4A7E68;}
	.st3{fill:#FFFFFF;}
	.st4{fill:none;}
	.st5{fill:#215F46;}
	.st6{fill:#497D68;}
</style>
<g data-group="FMC2_tools">
	<path class="st0" d="M335.1,112.4v3.6l-0.4,0.8l-4.9,8.2v-12.6H315v3.6l-0.3,0.9h6.6v4.4l-8.3,3l-8.3-3v-4.4h6.6L311,116v-3.6
		h-15.2v4.7l-5,6.3v-11h-15.5v7.5c0,0.8-0.6,1.4-1.4,1.4s-1.4-0.6-1.4-1.4v-7.5h-17v3.6l-0.3,0.9h6.6v4.4h-16.6v-4.4h6.6l-0.3-0.9
		v-3.6h-16.2v3.6l-0.4,0.8l-2.2,4.2l-2.6-5v-3.6h-12.2l-7.5,14.6h7.5h121.7l7.5-14.6H335.1L335.1,112.4z"/>
	<polygon class="st1" points="217.9,98 217.9,112.4 230.1,112.4 230.1,108.4 226.7,108.4 226.7,101.9 231.2,101.9 234.3,101.9 
		235,101.9 238.8,101.9 238.8,108.4 235.4,108.4 235.4,112.4 251.6,112.4 251.6,108.4 247.4,108.4 247.4,101.9 252.6,101.9 
		254.4,101.9 259.6,101.9 259.6,108.4 255.5,108.4 255.5,112.4 272.5,112.4 272.5,108.4 268.1,108.4 268.1,101.9 280.2,101.9 
		280.2,108.4 275.3,108.4 275.3,112.4 290.9,112.4 290.9,108.4 287.5,108.4 287.5,101.9 299.7,101.9 299.7,108.4 295.9,108.4 
		295.9,112.4 311.1,112.4 311.1,108.4 307,108.4 307,101.9 312.1,101.9 313.9,101.9 319.1,101.9 319.1,108.4 315,108.4 315,112.4 
		329.9,112.4 329.9,108.4 326.4,108.4 326.4,101.9 330.9,101.9 334,101.9 334.7,101.9 338.6,101.9 338.6,108.4 335.1,108.4 
		335.1,112.4 347.1,112.4 347.1,98 	"/>
	<polygon class="st2" points="168,127 210.4,127 217.9,112.4 217.9,98 168,98 	"/>
	<path class="st2" d="M268.1,108.4h4.4v4v7.5c0,0.8,0.6,1.4,1.4,1.4s1.4-0.6,1.4-1.4v-7.5v-4h4.9V102h-12.1L268.1,108.4L268.1,108.4
		z"/>
	<polygon class="st2" points="287.5,108.4 290.9,108.4 290.9,112.4 290.9,123.4 295.9,117 295.9,112.4 295.9,108.4 299.7,108.4 
		299.7,101.9 287.5,101.9 	"/>
	<polygon class="st2" points="234.3,101.9 231.2,101.9 226.7,101.9 226.7,108.4 230.1,108.4 230.1,112.4 230.1,115.9 232.8,120.9 
		235,116.7 235.4,115.9 235.4,112.4 235.4,108.4 238.8,108.4 238.8,101.9 235,101.9 	"/>
	<polygon class="st2" points="334.7,101.9 334,101.9 330.9,101.9 326.4,101.9 326.4,108.4 329.9,108.4 329.9,112.4 329.9,124.9 
		334.7,116.7 335.1,115.9 335.1,112.4 335.1,108.4 338.6,108.4 338.6,101.9 	"/>
	<polygon class="st2" points="255.5,115.9 255.5,112.4 255.5,108.4 259.6,108.4 259.6,101.9 254.4,101.9 252.6,101.9 247.4,101.9 
		247.4,108.4 251.6,108.4 251.6,112.4 251.6,115.9 251.8,116.9 245.2,116.9 245.2,121.2 261.8,121.2 261.8,116.9 255.2,116.9 	"/>
	<polygon class="st2" points="315,115.9 315,112.4 315,108.4 319.1,108.4 319.1,101.9 313.9,101.9 312.1,101.9 307,101.9 307,108.4 
		311.1,108.4 311.1,112.4 311.1,115.9 311.4,116.9 304.7,116.9 304.7,121.2 313,124.2 321.3,121.2 321.3,116.9 314.7,116.9 	"/>
</g>
<g id="FMC230">
	<rect x="1093.4" y="253.2" class="st2" width="36.1" height="68.7"/>
	<path class="st2" d="M0,221.9h112v-84H0V221.9z M8,145.9h96v56H8V145.9z"/>
	<rect x="8" y="233.9" class="st2" width="96" height="12"/>
	<polygon class="st2" points="119.5,245.9 140.6,245.9 140.6,120.9 140.6,98.2 120.6,98.2 	"/>
	<rect x="140.6" y="98.2" class="st1" width="11.4" height="22.7"/>
	<path class="st3" d="M624.9,30.2l23.3-8.2l-5.6-0.1c-0.1,0-9.9,3.2-16.4,3.2c-3.2,0-8.2-0.8-8.2-0.8l-0.8-0.1l7.3,5.6
		c0,0-15.9,5.7-24.2,10v2.4C606.9,38,615.3,34,624.9,30.2z"/>
	<path class="st0" d="M641.3,64.8H179.9v203.3h885.5V64.8H641.3L641.3,64.8z M652,76.8h401.3V256H192V76.8H652L652,76.8z"/>
	<rect x="8" y="145.9" class="st0" width="96" height="56"/>
	<path class="st0" d="M1093.4,343.3l36.1-14.4v-7h-36.1v-68.7V25.4c0-14-11.4-25.4-27.5-25.4H175.3C163.4,0,152,11.4,152,25.4v72.8
		v22.7V232v19.7v116.5c0,6.3,2.3,12,6.1,16.5h-13.5c-1.2,0-2.2,1-2.2,2.2v17.7c0,1.2,1,2.2,2.2,2.2h34.7c1.2,0,2.2-1,2.2-2.2v-11
		h268v11c0,1.2,1,2.2,2.2,2.2h34.7c1.2,0,2.2-1,2.2-2.2v-11h268.1v11c0,1.2,1,2.2,2.2,2.2h34.7c1.2,0,2.2-1,2.2-2.2v-11h270.1v11
		c0,1.2,1,2.2,2.2,2.2h34.7c1.2,0,2.2-1,2.2-2.2v-17.7c0-1.2-1-2.2-2.2-2.2h-15.7c3.8-4.4,6.1-10.2,6.1-16.5L1093.4,343.3
		L1093.4,343.3z M1077.4,368.2c0,5.2-4.2,9.4-9.4,9.4H177.4c-5.2,0-9.4-4.2-9.4-9.4V251.7V232V25.4c0-5.2,4.2-9.4,9.4-9.4h333.3
		h84.6c2.7,0,4.9,2.2,5,4.9v18.9c8.3-4.3,24.2-10,24.2-10l-7.3-5.6l0.8,0.1c0,0,5,0.8,8.2,0.8c6.5,0,16.3-3.2,16.4-3.2l5.6,0.1
		l-23.3,8.2c-9.7,3.8-18,7.8-24.7,12V51c0,2.8,2.3,5,5,5h41.9c2.8,0,5-2.3,5-5V21c0-2.8,2.2-5,5-5h410.8c5.2,0,9.4,4.2,9.4,9.4
		L1077.4,368.2L1077.4,368.2z"/>
</g>
<g data-group="FMC2_axes">
	<g>
		<polygon class="st4" points="214,198.8 213.7,199.2 223.6,199.2 223.9,198.8 		"/>
		<polygon class="st4" points="243.2,198.2 243.2,198.8 233.9,198.8 234.2,199.2 244.1,199.2 243.4,198.4 		"/>
		<polygon class="st3" points="214.5,198.2 214,198.8 223.9,198.8 224.3,198.3 228.9,193 233.5,198.4 233.9,198.8 243.2,198.8 
			243.2,198.2 233.8,187.2 243.2,176.1 243.2,175.1 234.2,175.1 228.9,181.4 223.6,175.1 213.6,175.1 223.9,187.2 		"/>
		<path class="st0" d="M1046.1,347.5c2.2,0,4.7-2,4.7-6s-2.5-6-4.7-6s-4.8,2-4.8,6S1043.9,347.5,1046.1,347.5z"/>
		<path class="st0" d="M179.9,268.1h885.5v-12h-19.1v0.5h-60l-0.2-0.5h-23.6v0.5h-60l-0.2-0.5H416.1v0.5h-60l-0.2-0.5h-23.6v0.5h-60
			L272,256h-59.1l0.1-44.9h43.9v-11.9h-12.8h-9.9h-10.6h-9.9h-12.8V256h-21v110.1l885.5-2.4v-75.6H179.9v-16V268.1z M1046.1,330.9
			c5.9,0,9.7,4.5,9.7,10.6c0,6-3.8,10.6-9.7,10.6c-6,0-9.8-4.6-9.8-10.6C1036.4,335.5,1040.1,330.9,1046.1,330.9z M1023,342.6
			l-1.1-3l5.3-3.9h-8.8v-4.4h14.7v4.1l-5,4.3c3.2,0.6,5.7,2.4,5.7,5.7c0,3.5-2.6,6.7-8,6.7c-5.2,0-8.2-3.6-8.2-7.4h5
			c0,1.9,1.5,2.9,3.2,2.9s3-0.8,3-2.1C1028.8,343,1026.6,342.6,1023,342.6z M1006.9,330.9c5.1,0,7.7,3.4,7.7,7.1
			c0,5.5-8.3,9.3-8.3,9.3h8v4.4h-15v-4.4c0,0,10.4-5.5,10.4-9.3c0-1.6-1.1-2.6-2.7-2.6s-2.7,1.3-2.7,3.1h-5
			C999.2,334.3,1002.1,330.9,1006.9,330.9z M980,330.9c4.3,0,7.8,2,9.6,5.1l-4.2,2.4c-1-1.9-2.8-3.1-5.4-3.1c-3.6,0-6.1,2.6-6.1,6
			c0,3.2,2.5,6.1,6.1,6.1c2.5,0,4.4-1.3,5.4-3.1l4.2,2.4c-1.8,3.1-5.2,5.3-9.5,5.3c-6.4,0-11-4.7-11-10.7
			C968.9,335.7,973.6,330.9,980,330.9z M940.8,331.3h5.5l7.1,15l7.1-15h5.5v20.4h-5v-10.4l-4.9,10.4h-5.5l-4.9-10.4v10.4h-4.9
			L940.8,331.3L940.8,331.3z M921.4,331.3H937v4.6h-10.7v4.7h8.9v4.5h-8.9v6.6h-4.9L921.4,331.3L921.4,331.3z"/>
		<polygon class="st5" points="233.5,198.4 228.9,193 224.3,198.3 223.9,198.8 223.6,199.2 234.2,199.2 233.9,198.8 		"/>
		<polygon class="st5" points="243.2,176.1 233.8,187.2 243.2,198.2 243.4,198.4 244.1,199.2 256.9,199.2 256.9,175.1 244.1,175.1 
					"/>
		<polygon class="st5" points="320,230.3 272.2,230.3 264.3,230.3 264.3,238.2 265.2,240.3 272,256 272.2,256.5 332.2,256.5 
			332.2,256 332.2,240.3 332.2,230.3 		"/>
		<polygon class="st5" points="320,226.5 320,220.5 320,220.5 272.2,220.5 272.2,226.5 		"/>
		<polygon class="st5" points="403.8,230.3 356.1,230.3 348.2,230.3 348.2,238.2 349.1,240.3 355.9,256 356.1,256.5 416.1,256.5 
			416.1,256 416.1,240.3 416.1,230.3 		"/>
		<polygon class="st5" points="403.8,226.5 403.8,220.5 403.8,220.5 356.1,220.5 356.1,226.5 		"/>
		<polygon class="st5" points="950.1,230.3 902.4,230.3 894.5,230.3 894.5,238.2 895.4,240.3 902.1,256 902.4,256.5 962.4,256.5 
			962.4,256 962.4,240.3 962.4,230.3 		"/>
		<polygon class="st5" points="950.1,226.5 950.1,220.5 950.1,220.5 902.4,220.5 902.4,226.5 		"/>
		<polygon class="st5" points="1034,230.3 1034,230.3 986.3,230.3 978.4,230.3 978.4,238.2 979.3,240.3 986,256 986.2,256.5 
			1046.3,256.5 1046.3,256 1046.3,240.3 1046.3,230.3 		"/>
		<polygon class="st5" points="1034,226.5 1034,220.5 1034,220.5 986.3,220.5 986.3,226.5 		"/>
		<polygon class="st2" points="214,198.8 214.5,198.2 223.9,187.2 213.6,175.1 200.9,175.1 200.9,199.2 213.7,199.2 		"/>
		<polygon class="st2" points="234.2,175.1 223.6,175.1 228.9,181.4 		"/>
		<rect x="179.9" y="272.1" class="st2" width="885.5" height="16"/>
		<polygon class="st2" points="320,220.5 320,220.5 320,226.5 320,226.5 320,230.3 320,230.3 332.2,230.3 332.2,230.3 332.2,220.5 
			327.9,220.5 327.9,212.4 327.9,204.4 320,204.4 299.9,204.4 299.9,212.4 320,212.4 		"/>
		<polygon class="st2" points="272.2,212.4 278.3,212.4 278.3,204.4 272.2,204.4 264.3,204.4 264.3,212.4 264.3,230.3 272.2,230.3 
					"/>
		<polygon class="st2" points="403.8,220.5 403.8,220.5 403.8,226.5 403.8,226.5 403.8,230.3 403.8,230.3 416.1,230.3 416.1,230.3 
			416.1,220.5 411.8,220.5 411.8,212.4 411.8,204.4 403.8,204.4 383.8,204.4 383.8,212.4 403.8,212.4 		"/>
		<polygon class="st2" points="356.1,212.4 362.2,212.4 362.2,204.4 356.1,204.4 348.2,204.4 348.2,212.4 348.2,230.3 356.1,230.3 
					"/>
		<polygon class="st2" points="950.1,220.5 950.1,220.5 950.1,226.5 950.1,226.5 950.1,230.3 950.1,230.3 962.4,230.3 962.4,230.3 
			962.4,220.5 958.1,220.5 958.1,212.4 958.1,204.4 950.1,204.4 930.1,204.4 930.1,212.4 950.1,212.4 		"/>
		<polygon class="st2" points="902.4,212.4 908.5,212.4 908.5,204.4 902.4,204.4 894.5,204.4 894.5,212.4 894.5,230.3 902.4,230.3 
					"/>
		<polygon class="st2" points="1034,220.5 1034,220.5 1034,226.5 1034,226.5 1034,230.3 1034,230.3 1046.3,230.3 1046.3,230.3 
			1046.3,220.5 1041.9,220.5 1041.9,212.4 1041.9,204.4 1034,204.4 1013.9,204.4 1013.9,212.4 1034,212.4 		"/>
		<polygon class="st2" points="986.3,212.4 992.4,212.4 992.4,204.4 986.3,204.4 978.4,204.4 978.4,212.4 978.4,230.3 986.3,230.3 
					"/>
		<rect x="179.9" y="268.1" class="st3" width="885.5" height="4"/>
		<polygon class="st3" points="921.4,351.7 926.3,351.7 926.3,345 935.2,345 935.2,340.5 926.3,340.5 926.3,335.8 937,335.8 
			937,331.3 921.4,331.3 		"/>
		<polygon class="st3" points="953.4,346.2 946.3,331.3 940.8,331.3 940.8,351.7 945.8,351.7 945.8,341.3 950.6,351.7 956.1,351.7 
			961,341.3 961,351.7 966,351.7 966,331.3 960.5,331.3 		"/>
		<path class="st3" d="M980,335.4c2.6,0,4.5,1.2,5.4,3.1l4.2-2.4c-1.8-3.1-5.2-5.1-9.6-5.1c-6.4,0-11,4.7-11,10.4
			c0,6,4.7,10.7,11,10.7c4.3,0,7.7-2.2,9.5-5.3l-4.2-2.4c-1,1.8-2.8,3.1-5.4,3.1c-3.6,0-6.1-2.9-6.1-6.1
			C973.9,338,976.4,335.4,980,335.4z"/>
		<path class="st3" d="M1014.6,338c0-3.7-2.5-7.1-7.7-7.1c-4.7,0-7.7,3.4-7.7,7.6h5c0-1.7,1-3.1,2.7-3.1c1.6,0,2.7,1,2.7,2.6
			c0,3.8-10.4,9.3-10.4,9.3v4.4h15v-4.4h-8C1006.2,347.3,1014.6,343.5,1014.6,338z"/>
		<path class="st3" d="M1028.1,339.7l5-4.3v-4.1h-14.7v4.4h8.8l-5.3,3.9l1.1,3c3.5,0,5.8,0.4,5.8,2.8c0,1.4-1.3,2.1-3,2.1
			s-3.2-0.9-3.2-2.9h-5c0,3.8,3,7.4,8.2,7.4c5.3,0,8-3.1,8-6.7C1033.8,342.1,1031.3,340.2,1028.1,339.7z"/>
		<path class="st3" d="M1046.1,330.9c-6,0-9.8,4.5-9.8,10.6c0,6,3.7,10.6,9.8,10.6c5.9,0,9.7-4.6,9.7-10.6S1052,330.9,1046.1,330.9z
			 M1046.1,347.5c-2.2,0-4.8-2-4.8-6s2.5-6,4.8-6s4.7,2,4.7,6S1048.4,347.5,1046.1,347.5z"/>
	</g>
</g>
<g data-group="FMC2_spindles">
	<g>
		<g>
			<rect x="739.2" y="203.5" class="st0" width="40.6" height="52.5"/>
			<rect x="754.8" y="167.9" class="st2" width="25" height="35.6"/>
			<rect x="735.5" y="158.6" class="st0" width="44.4" height="9.3"/>
			<polygon class="st5" points="739.3,256 730,256 730.8,47.9 740.1,47.9 			"/>
		</g>
		<g>
			<polygon class="st6" points="699.7,203.8 702.9,203.8 702.9,215.6 707.3,213.6 707.3,203.8 710.4,203.8 710.4,199.2 699.7,199.2 
							"/>
			<polygon class="st5" points="688.9,183.2 693.5,199.2 716.7,199.2 721.3,183.2 721.3,160 688.9,160 			"/>
			<rect x="688.9" y="156" class="st0" width="32.3" height="4"/>
			<rect x="684.2" y="47.9" class="st0" width="41.7" height="108.1"/>
			<rect x="688.2" y="51.9" class="st2" width="33.7" height="100.1"/>
		</g>
	</g>
	<rect x="725.9" y="47.9" class="st5" width="5.5" height="16.9"/>
	<rect x="725.9" y="76.8" class="st5" width="5.5" height="79.2"/>
	<rect x="725.9" y="64.8" class="st5" width="5.5" height="12"/>
</g>
<g data-highlighted="FMC2_tools">
	<path class="st4" d="M347.2,80H169.8c-9.9,0-17.9,8-17.9,17.9v29c0,9.9,8,17.9,17.9,17.9h169.8c6.7,0,12.9-3.8,16-9.7l7.5-14.6
		c1.3-2.5,2-5.3,2-8.2V98C365.1,88.1,357.1,80,347.2,80z M347.1,112.4l-7.5,14.6H169.8V98h177.3V112.4L347.1,112.4z"/>
</g>
<g data-highlighted="FMC2_spindles">
	<path class="st4" d="M726,29.9h-41.8c-9.9,0-18,8-18,18v167.8c0,9.9,8,18,18,18H726c9.9,0,18-8,18-18V47.9
		C743.9,38,735.9,29.9,726,29.9z M725.9,156h-4.7v4v23.2l-4.6,16h-6.2v4.6h-3.1v9.7l-4.5,2.1v-11.8h-3.1v-4.6h-6.2l-4.6-16V160v-4
		h-4.7V47.9h41.7L725.9,156L725.9,156z"/>
</g>
<g data-highlighted="FMC2_axes">
	<path class="st4" d="M950.1,230.3h-47.7v-3.8h47.7V230.3z M356.1,230.3h47.7v-3.8h-47.7V230.3z M1034,226.5h-47.7v3.8h47.7V226.5z
		 M320,226.5h-47.8v3.8H320V226.5z M986.3,256.6h60v-0.1h-60L986.3,256.6z M1083.4,256.1v107.7c0,9.9-8,17.9-17.9,18l-885.6,2.4
		c-9.9,0-18-8-18-18V256c0-9.9,8-18,18-18h3v-62.9c0-9.9,8-18,18-18h56.1c9.9,0,18,8,18,18v11.3h141.2c9.9,0,18,8,18,18v33.7h442.4
		v-33.7c0-9.9,8-18,18-18h151.9c9.9,0,18,8,18,18v33.7h1.1C1075.4,238.1,1083.4,246.1,1083.4,256.1z M1065.4,256.1h-19.1V256v-15.7
		v-10v-9.8h-4.4v-8.1v-8h-7.9h-20.1v8h20.1v8.1h-47.7v-8.1h6.1v-8h-6.1h-7.9v8v17.9v7.9l0.9,2.1L986,256l0,0.1h-23.5v0.5h-60l0-0.1
		h59.9V256v-15.7v-10v-9.8h-4.3v-8.1v-8h-8h-20v8h20v8.1h-47.7v-8.1h6.1v-8h-6.1h-7.9v8v17.9v7.9l0.9,2.1l6.7,15.7l0.1,0.1H416.1
		V256v-15.7v-10v-9.8h-4.3v-8.1v-8h-8h-20v8h20v8.1h-47.7v-8.1h6.1v-8h-6.1h-7.9v8v17.9v7.9l0.9,2.1l6.8,15.7l0.2,0.5h60v0.1h-60
		l-0.2-0.5h-23.6v0.5h-60l0-0.1h60V256v-15.7v-10v-9.8h-4.3v-8.1v-8H320h-20.1v8H320v8.1h-47.8v-8.1h6.1v-8h-6.1h-7.9v8v17.9v7.9
		l0.9,2.1L272,256h-59.1l0.1-44.9h43.9v-11.9v-24.1h-12.8l-0.9,1v-1h-9h-10.6h-10h-12.7v24.1V256h-21v12.1v4v16v78l885.5-2.4v-75.6
		v-16v-4V256.1z"/>
</g>
</svg>
