<?xml version="1.0" encoding="utf-8"?>
<!-- Generator: Adobe Illustrator 25.0.0, SVG Export Plug-In . SVG Version: 6.00 Build 0)  -->
<svg version="1.1" xmlns="http://www.w3.org/2000/svg" xmlns:xlink="http://www.w3.org/1999/xlink" x="0px" y="0px"
	 viewBox="0 0 1050 407" style="enable-background:new 0 0 1050 407;" xml:space="preserve">
<style type="text/css">
	.st0{fill:#005140;}
	.st1{fill:#497D68;}
	.st2{fill:#246047;}
	.st3{fill:#4A7E68;}
	.st4{fill:#215F46;}
	.st5{fill:#FFFFFF;}
	.st6{fill:none;}
</style>
<g id="FMC120">
	<g>
		<rect x="8" y="121.9" class="st0" width="96" height="56"/>
		<path class="st1" d="M0,197.9h112v-84H0V197.9z M8,121.9h96v56H8V121.9z"/>
		<rect x="8" y="209.9" class="st1" width="96" height="12"/>
		<polygon class="st1" points="120.58,28.09 119.47,221.9 140.58,221.9 140.58,28.09 		"/>
		<rect x="140.58" y="28.09" class="st2" width="35.4" height="36.5"/>
	</g>
</g>
<g data-group="FMC1_spindles">
	<rect x="612.99" y="37.84" class="st2" width="56.16" height="66.79"/>
	<polygon class="st3" points="612.99,107.63 612.99,165.43 648.04,165.43 669.15,165.43 669.15,164.43 669.15,107.63 	"/>
	<path class="st0" d="M673.15,104.63V33.84h-64.16v135.58h39.05v18.61h6.49h12.13h6.49v-18.61v-5v-56.79h0L673.15,104.63
		L673.15,104.63z M612.99,37.84h56.16v66.79l-56.16,0V37.84z M669.15,164.43v1h-21.11h-35.05v-57.79l56.16,0V164.43z"/>
	<polygon class="st1" points="654.53,194.46 657.97,194.46 657.97,211.04 662.82,202.79 663.21,202.04 663.21,194.46 666.66,194.46 
		666.66,188.04 654.53,188.04 	"/>
</g>
<g data-group="FMC1_axes">
	<g>
		<rect x="203.94" y="265.95" class="st0" width="818.11" height="100.15"/>
		<polygon class="st0" points="1022.05,233.95 979.84,233.95 919.8,233.95 880.95,233.95 820.91,233.95 478.84,233.95 418.8,233.95 
			379.95,233.95 319.91,233.95 203.94,233.95 203.94,249.95 1022.05,249.95 		"/>
	</g>
	<g>
		<polygon class="st4" points="367.69,207.73 319.97,207.73 312.06,207.73 312.06,215.64 312.95,217.72 319.91,233.95 
			379.95,233.95 379.95,217.72 379.95,207.73 367.69,207.73 		"/>
		<polygon class="st4" points="367.69,203.96 367.69,197.96 367.69,197.96 319.97,197.96 319.97,203.96 367.69,203.96 		"/>
		<polygon class="st4" points="466.58,207.73 418.86,207.73 410.95,207.73 410.95,215.64 411.84,217.72 418.8,233.95 478.84,233.95 
			478.84,217.72 478.84,207.73 466.58,207.73 		"/>
		<polygon class="st4" points="466.58,203.96 466.58,197.96 466.58,197.96 418.86,197.96 418.86,203.96 466.58,203.96 		"/>
		<polygon class="st4" points="868.69,207.73 820.97,207.73 813.06,207.73 813.06,215.64 813.95,217.72 820.91,233.95 
			880.95,233.95 880.95,217.72 880.95,207.73 868.69,207.73 		"/>
		<polygon class="st4" points="868.7,203.96 868.7,197.96 868.69,197.96 820.97,197.96 820.97,203.96 868.69,203.96 		"/>
		<polygon class="st4" points="967.58,207.73 967.58,207.73 919.86,207.73 911.95,207.73 911.95,215.64 912.84,217.72 919.8,233.95 
			979.84,233.95 979.84,217.72 979.84,207.73 		"/>
		<polygon class="st4" points="967.58,203.96 967.58,197.96 967.58,197.96 919.86,197.96 919.86,203.96 967.58,203.96 		"/>
	</g>
	<g>
		<polygon class="st3" points="1022.05,249.95 203.94,249.95 203.94,265.95 1022.05,265.95 1022.05,265.95 1022.05,249.95 		"/>
		<polygon class="st3" points="367.69,197.96 367.69,197.96 367.69,203.96 367.69,203.96 367.69,207.73 367.69,207.73 
			379.95,207.73 379.95,207.73 379.95,197.96 375.6,197.96 375.6,189.84 375.6,181.84 367.69,181.84 347.6,181.84 347.6,189.84 
			367.69,189.84 		"/>
		<polygon class="st3" points="319.97,189.84 326.06,189.84 326.06,181.84 319.97,181.84 312.06,181.84 312.06,189.84 
			312.06,207.73 319.97,207.73 		"/>
		<polygon class="st3" points="466.58,197.96 466.58,197.96 466.58,203.96 466.58,203.96 466.58,207.73 466.58,207.73 
			478.84,207.73 478.84,207.73 478.84,197.96 474.49,197.96 474.49,189.84 474.49,181.84 466.58,181.84 446.49,181.84 
			446.49,189.84 466.58,189.84 		"/>
		<polygon class="st3" points="418.86,189.84 424.95,189.84 424.95,181.84 418.86,181.84 410.95,181.84 410.95,189.84 
			410.95,207.73 418.86,207.73 		"/>
		<polygon class="st3" points="868.69,197.96 868.7,197.96 868.7,203.96 868.69,203.96 868.69,207.73 868.69,207.73 880.95,207.73 
			880.95,207.73 880.95,197.96 876.61,197.96 876.61,189.84 876.61,181.84 868.69,181.84 848.61,181.84 848.61,189.84 
			868.69,189.84 		"/>
		<polygon class="st3" points="820.97,189.84 827.06,189.84 827.06,181.84 820.97,181.84 813.06,181.84 813.06,189.84 
			813.06,207.73 820.97,207.73 		"/>
		<polygon class="st3" points="967.58,197.96 967.58,197.96 967.58,203.96 967.58,203.96 967.58,207.73 967.58,207.73 
			979.84,207.73 979.84,207.73 979.84,197.96 975.5,197.96 975.5,189.84 975.5,181.84 967.58,181.84 947.5,181.84 947.5,189.84 
			967.58,189.84 		"/>
		<polygon class="st3" points="919.86,189.84 925.95,189.84 925.95,181.84 919.86,181.84 911.95,181.84 911.95,189.84 
			911.95,207.73 919.86,207.73 		"/>
	</g>
	<g>
		<g>
			<path class="st5" d="M899.4,335.71h-10.71v4.68h8.94v4.53h-8.94v6.63h-4.92v-20.4h15.63V335.71z"/>
			<path class="st5" d="M928.38,351.55h-4.95v-10.41l-4.89,10.41h-5.49l-4.89-10.41v10.41h-4.92v-20.4h5.46l7.11,14.97l7.08-14.97
				h5.49V351.55z"/>
			<path class="st5" d="M951.9,346.6c-1.83,3.06-5.22,5.31-9.54,5.31c-6.39,0-11.04-4.68-11.04-10.71c0-5.67,4.65-10.41,11.04-10.41
				c4.35,0,7.77,2.04,9.6,5.1l-4.17,2.43c-0.96-1.86-2.85-3.09-5.43-3.09c-3.57,0-6.06,2.61-6.06,5.97c0,3.24,2.49,6.09,6.06,6.09
				c2.52,0,4.38-1.29,5.37-3.09L951.9,346.6z"/>
			<path class="st5" d="M971.49,351.55h-4.98v-13.74c-1.17,1.38-4.14,2.22-4.23,2.28l-1.05-4.56c1.23-0.63,4.2-1.89,5.28-4.38h4.98
				V351.55z"/>
			<path class="st5" d="M990.6,337.87c0,5.49-8.31,9.27-8.31,9.27h7.98v4.41h-15v-4.41c0,0,10.38-5.52,10.38-9.27
				c0-1.62-1.14-2.58-2.73-2.58c-1.62,0-2.67,1.32-2.67,3.06h-5.01c0-4.17,2.94-7.56,7.68-7.56
				C988.05,330.79,990.6,334.15,990.6,337.87z"/>
			<path class="st5" d="M1012.77,341.35c0,5.97-3.78,10.56-9.72,10.56c-6.03,0-9.75-4.59-9.75-10.56c0-6.03,3.72-10.56,9.75-10.56
				C1008.96,330.79,1012.77,335.32,1012.77,341.35z M1007.79,341.35c0-4.02-2.49-6.03-4.74-6.03s-4.77,2.01-4.77,6.03
				c0,4.05,2.52,6.03,4.77,6.03S1007.79,345.4,1007.79,341.35z"/>
		</g>
	</g>
</g>
<g data-group="FMC1_tools">
	<g>
		<polygon class="st2" points="265.75,64.59 231.13,64.59 231.13,75.4 265.75,75.4 274.45,75.4 274.45,64.59 		"/>
		<path class="st0" d="M265.75,75.4h-34.62v93.84h34.62h8.7V75.4H265.75z M236.35,82.85h4.5h3.12h0.67h3.84v6.42h-3.44v7.58
			l-0.39,0.75l-2.23,4.23l-2.62-4.98v-7.58h-3.44V82.85z M236.35,111.54h12.13v6.42h-3.82v8.66l-4.98,6.34v-14.99h-3.33V111.54z
			 M250.69,162.53l-8.27,3l-8.27-3v-4.39h6.61l-0.29-0.92v-7.58h-4.1v-6.42h12.13v6.42h-4.1v7.58l-0.29,0.92h6.61V162.53z
			 M269.23,149.64h-3.47h-1.41v11.46c0,0.79-0.64,1.43-1.43,1.43s-1.43-0.64-1.43-1.43v-11.46h-4.39v-6.42h8.65h3.47V149.64z
			 M257.1,117.96v-6.42h8.65h3.47v6.42h-3.44v7.58l-0.03,0.06l-0.36,0.69l-4.85,8.25v-16.58H257.1z M271.44,102.16h-5.69h-10.86
			v-4.39h6.61l-0.29-0.92v-7.58h-4.1v-6.42h5.17h1.79h1.69h3.47v6.42h-3.47h-0.63v7.58l-0.29,0.92h0.92h5.69V102.16z"/>
		<g>
			<polygon class="st1" points="163.91,169.24 231.13,169.24 231.13,75.4 231.13,64.59 163.91,64.59 			"/>
			<path class="st1" d="M257.1,143.22v6.42h4.39v11.46c0,0.79,0.64,1.43,1.43,1.43s1.43-0.64,1.43-1.43v-11.46h1.41h3.47v-6.42
				h-3.47H257.1z"/>
			<polygon class="st1" points="239.68,132.95 244.66,126.62 244.66,117.96 248.48,117.96 248.48,111.54 236.35,111.54 
				236.35,117.96 239.68,117.96 			"/>
			<polygon class="st1" points="239.79,96.85 242.41,101.83 244.64,97.6 245.04,96.85 245.04,89.27 248.48,89.27 248.48,82.85 
				244.64,82.85 243.97,82.85 240.86,82.85 236.35,82.85 236.35,89.27 239.79,89.27 			"/>
			<polygon class="st1" points="265.75,97.78 264.84,97.78 265.13,96.85 265.13,89.27 265.75,89.27 269.23,89.27 269.23,82.85 
				265.75,82.85 264.06,82.85 262.27,82.85 257.1,82.85 257.1,89.27 261.21,89.27 261.21,96.85 261.5,97.78 254.89,97.78 
				254.89,102.16 265.75,102.16 271.44,102.16 271.44,97.78 			"/>
			<polygon class="st1" points="265.39,126.29 265.75,125.6 265.79,125.54 265.79,117.96 269.23,117.96 269.23,111.54 
				265.75,111.54 257.1,111.54 257.1,117.96 260.54,117.96 260.54,134.54 			"/>
			<polygon class="st1" points="244.37,157.22 244.37,149.64 248.48,149.64 248.48,143.22 236.35,143.22 236.35,149.64 
				240.46,149.64 240.46,157.22 240.75,158.15 234.14,158.15 234.14,162.53 242.41,165.53 250.69,162.53 250.69,158.15 
				244.08,158.15 			"/>
		</g>
	</g>
</g>
<g id="FMC120">
	<path class="st0" d="M1050,25.4c0-14.01-11.4-25.4-25.4-25.4H201.38c-14.01,0-25.4,11.4-25.4,25.4V232v19.72v116.47
		c0,6.29,2.3,12.04,6.1,16.48h-3.89c-1.22,0-2.21,0.99-2.21,2.21v17.68c0,1.22,0.99,2.21,2.21,2.21h34.72
		c1.22,0,2.21-0.99,2.21-2.21v-10.97h236.64v10.97c0,1.22,0.99,2.21,2.21,2.21h34.72c1.22,0,2.21-0.99,2.21-2.21v-10.97h240.2v10.97
		c0,1.22,0.99,2.21,2.21,2.21h34.72c1.22,0,2.21-0.99,2.21-2.21v-10.97h240.65v11.2c0,1.22,0.99,2.21,2.21,2.21h34.72
		c1.22,0,2.21-0.99,2.21-2.21v-17.68c0-1.22-0.99-2.21-2.21-2.21h-4.09c3.92-4.47,6.3-10.32,6.3-16.72V25.4z M1034,368.19
		c0,5.19-4.21,9.4-9.4,9.4H201.38c-5.19,0-9.4-4.21-9.4-9.4V251.72V232V25.4c0-5.19,4.21-9.4,9.4-9.4h2.56v229.05h12.04v-9.47V16
		h334.57h43.3h19h61.98h79.38h17.89h237.89v219.58v9.44v0.03h12.04V16h2.55c5.19,0,9.4,4.21,9.4,9.4V368.19z"/>
</g>
<g data-highlighted="FMC1_spindles">
	<path class="st6" d="M673.16,15.84h-64.19c-9.93,0-17.99,8.05-17.99,17.99v135.61c0,9.93,8.05,17.99,17.99,17.99h21.06v23.63
		c0,9.93,8.05,17.99,17.99,17.99h25.14c9.93,0,17.99-8.05,17.99-17.99V33.83C691.15,23.89,683.1,15.84,673.16,15.84z M673.15,164.43
		v5v18.61h-6.49v6.42h-3.44v7.58l-0.39,0.75l-4.85,8.25v-16.58h-3.44v-6.42h-6.49v-18.61h-39.05V33.84h64.16V164.43z"/>
</g>
<g data-highlighted="FMC1_axes">
	<path class="st6" d="M1022.08,215.95h-24.24v-34.14c0-9.92-8.04-17.97-17.97-17.97H813.03c-9.92,0-17.97,8.04-17.97,17.97v34.14
		H496.84v-34.14c0-9.92-8.05-17.97-17.97-17.97H312.03c-9.92,0-17.97,8.04-17.97,17.97l0,34.14h-90.15
		c-9.92,0-17.97,8.04-17.97,17.97v132.21c0,9.92,8.04,17.97,17.97,17.97h818.17c9.92,0,17.97-8.05,17.97-17.97l0-132.21
		C1040.05,223.99,1032,215.95,1022.08,215.95z M203.94,366.1V233.95h115.97l-6.96-16.23l-0.89-2.08v-7.91v-17.89v-8h7.91h6.09v8
		h-6.09v17.89h47.72v-3.77h-47.72v-6h47.72v-8.11H347.6v-8h20.09h7.91v8v8.11h4.35v9.77v0v9.99v16.23h38.85l-6.96-16.23l-0.89-2.08
		v-7.91v-17.89v-8h7.91h6.09v8h-6.09v17.89h47.72v-3.77h-47.72v-6h47.72v-8.11h-20.09v-8h20.09h7.91v8v8.11h4.35v9.77v0v9.99v16.23
		h342.08l-6.96-16.23l-0.89-2.08v-7.91v-17.89v-8h7.91h6.09v8h-6.09v17.89h47.72v-3.77h-47.72v-6h47.72v-8.11h-20.09v-8h20.09h7.91
		v8v8.11h4.35v9.77v0v9.99v16.23h38.85l-6.96-16.23l-0.89-2.08v-7.91v-17.89v-8h7.91h6.09v8h-6.09v17.89h47.72v-3.77h-47.72v-6
		h47.72v-8.11H947.5v-8h20.09h7.91v8v8.11h4.35v9.77v0v9.99v16.23h42.21l0,132.15H203.94z"/>
</g>
<g data-highlighted="FMC1_tools">
	<path class="st6" d="M274.42,46.59H163.94c-9.96,0-18.03,8.07-18.03,18.03v104.59c0,9.96,8.07,18.03,18.03,18.03h110.48
		c9.96,0,18.03-8.07,18.03-18.03V64.62C292.45,54.66,284.38,46.59,274.42,46.59z M274.45,169.24H163.91V64.59h110.54V169.24z"/>
</g>
</svg>
