<?xml version="1.0" encoding="utf-8"?>
<!-- Generator: Adobe Illustrator 25.0.0, SVG Export Plug-In . SVG Version: 6.00 Build 0)  -->
<svg version="1.1" xmlns="http://www.w3.org/2000/svg" xmlns:xlink="http://www.w3.org/1999/xlink" x="0px" y="0px"
	 viewBox="0 0 1190 407" style="enable-background:new 0 0 1190 407;" xml:space="preserve">
<style type="text/css">
	.st0{fill:#005140;}
	.st1{fill:#497D68;}
	.st2{fill:#246047;}
	.st3{fill:#4A7E68;}
	.st4{fill:#215F46;}
	.st5{fill:#FFFFFF;}
	.st6{fill:none;}
</style>
<g id="FMC120">
	<g>
		<rect x="7.34" y="121.9" class="st0" width="96" height="56"/>
		<path class="st1" d="M-0.66,197.9h112v-84h-112V197.9z M7.34,121.9h96v56h-96V121.9z"/>
		<rect x="7.34" y="209.9" class="st1" width="96" height="12"/>
		<polygon class="st1" points="119.92,28.09 118.81,221.9 139.92,221.9 139.92,28.09 		"/>
		<rect x="139.92" y="28.09" class="st2" width="35.4" height="36.5"/>
	</g>
</g>
<g data-group="FMC1_spindles">
	<rect x="682.99" y="37.84" class="st2" width="56.16" height="66.79"/>
	<polygon class="st3" points="682.99,107.63 682.99,165.43 718.04,165.43 739.15,165.43 739.15,164.43 739.15,107.63 	"/>
	<path class="st0" d="M743.15,104.63V33.84h-64.16v135.58h39.05v18.61h6.49h12.13h6.49v-18.61v-5v-56.79h0L743.15,104.63
		L743.15,104.63z M682.99,37.84h56.16v66.79l-56.16,0V37.84z M739.15,164.43v1h-21.11h-35.05v-57.79l56.16,0V164.43z"/>
	<polygon class="st1" points="724.53,194.46 727.97,194.46 727.97,211.04 732.82,202.79 733.21,202.04 733.21,194.46 736.66,194.46 
		736.66,188.04 724.53,188.04 	"/>
</g>
<g data-group="FMC1_axes">
	<g>
		<rect x="203.28" y="265.95" class="st0" width="955.92" height="100.15"/>
		<polygon class="st0" points="1159.21,233.95 1117,233.95 1056.96,233.95 1018.11,233.95 958.07,233.95 478.18,233.95 
			418.14,233.95 379.29,233.95 319.25,233.95 203.28,233.95 203.28,249.95 1159.21,249.95 		"/>
	</g>
	<g>
		<polygon class="st4" points="367.04,207.73 319.31,207.73 311.4,207.73 311.4,215.64 312.29,217.72 319.25,233.95 379.29,233.95 
			379.29,217.72 379.29,207.73 367.04,207.73 		"/>
		<polygon class="st4" points="367.04,203.96 367.04,197.96 367.04,197.96 319.32,197.96 319.32,203.96 367.04,203.96 		"/>
		<polygon class="st4" points="465.92,207.73 418.2,207.73 410.29,207.73 410.29,215.64 411.18,217.72 418.14,233.95 478.18,233.95 
			478.18,217.72 478.18,207.73 465.92,207.73 		"/>
		<polygon class="st4" points="465.92,203.96 465.92,197.96 465.92,197.96 418.2,197.96 418.2,203.96 465.92,203.96 		"/>
		<polygon class="st4" points="1005.85,207.73 958.13,207.73 950.22,207.73 950.22,215.64 951.11,217.72 958.07,233.95 
			1018.11,233.95 1018.11,217.72 1018.11,207.73 1005.85,207.73 		"/>
		<polygon class="st4" points="1005.85,203.96 1005.85,197.96 1005.85,197.96 958.13,197.96 958.13,203.96 1005.85,203.96 		"/>
		<polygon class="st4" points="1104.74,207.73 1104.74,207.73 1057.02,207.73 1049.11,207.73 1049.11,215.64 1050,217.72 
			1056.96,233.95 1117,233.95 1117,217.72 1117,207.73 		"/>
		<polygon class="st4" points="1104.74,203.96 1104.74,197.96 1104.74,197.96 1057.02,197.96 1057.02,203.96 1104.74,203.96 		"/>
	</g>
	<g>
		<polygon class="st3" points="1159.21,249.95 203.28,249.95 203.28,265.95 1159.21,265.95 1159.21,265.95 1159.21,249.95 		"/>
		<polygon class="st3" points="367.04,197.96 367.04,197.96 367.04,203.96 367.04,203.96 367.04,207.73 367.04,207.73 
			379.29,207.73 379.29,207.73 379.29,197.96 374.95,197.96 374.95,189.84 374.95,181.84 367.04,181.84 346.95,181.84 
			346.95,189.84 367.04,189.84 		"/>
		<polygon class="st3" points="319.31,189.84 325.4,189.84 325.4,181.84 319.31,181.84 311.4,181.84 311.4,189.84 311.4,207.73 
			319.31,207.73 		"/>
		<polygon class="st3" points="465.92,197.96 465.92,197.96 465.92,203.96 465.92,203.96 465.92,207.73 465.92,207.73 
			478.18,207.73 478.18,207.73 478.18,197.96 473.84,197.96 473.84,189.84 473.84,181.84 465.92,181.84 445.84,181.84 
			445.84,189.84 465.92,189.84 		"/>
		<polygon class="st3" points="418.2,189.84 424.29,189.84 424.29,181.84 418.2,181.84 410.29,181.84 410.29,189.84 410.29,207.73 
			418.2,207.73 		"/>
		<polygon class="st3" points="1005.85,197.96 1005.85,197.96 1005.85,203.96 1005.85,203.96 1005.85,207.73 1005.85,207.73 
			1018.11,207.73 1018.11,207.73 1018.11,197.96 1013.76,197.96 1013.76,189.84 1013.76,181.84 1005.85,181.84 985.76,181.84 
			985.76,189.84 1005.85,189.84 		"/>
		<polygon class="st3" points="958.13,189.84 964.22,189.84 964.22,181.84 958.13,181.84 950.22,181.84 950.22,189.84 
			950.22,207.73 958.13,207.73 		"/>
		<polygon class="st3" points="1104.74,197.96 1104.74,197.96 1104.74,203.96 1104.74,203.96 1104.74,207.73 1104.74,207.73 
			1117,207.73 1117,207.73 1117,197.96 1112.65,197.96 1112.65,189.84 1112.65,181.84 1104.74,181.84 1084.65,181.84 
			1084.65,189.84 1104.74,189.84 		"/>
		<polygon class="st3" points="1057.02,189.84 1063.11,189.84 1063.11,181.84 1057.02,181.84 1049.11,181.84 1049.11,189.84 
			1049.11,207.73 1057.02,207.73 		"/>
	</g>
	<g>
		<g>
			<path class="st5" d="M1036.55,335.71h-10.71v4.68h8.94v4.53h-8.94v6.63h-4.92v-20.4h15.63V335.71z"/>
			<path class="st5" d="M1065.53,351.55h-4.95v-10.41l-4.89,10.41h-5.49l-4.89-10.41v10.41h-4.92v-20.4h5.46l7.11,14.97l7.08-14.97
				h5.49V351.55z"/>
			<path class="st5" d="M1089.05,346.6c-1.83,3.06-5.22,5.31-9.54,5.31c-6.39,0-11.04-4.68-11.04-10.71
				c0-5.67,4.65-10.41,11.04-10.41c4.35,0,7.77,2.04,9.6,5.1l-4.17,2.43c-0.96-1.86-2.85-3.09-5.43-3.09
				c-3.57,0-6.06,2.61-6.06,5.97c0,3.24,2.49,6.09,6.06,6.09c2.52,0,4.38-1.29,5.37-3.09L1089.05,346.6z"/>
			<path class="st5" d="M1108.64,351.55h-4.98v-13.74c-1.17,1.38-4.14,2.22-4.23,2.28l-1.05-4.56c1.23-0.63,4.2-1.89,5.28-4.38h4.98
				V351.55z"/>
			<path class="st5" d="M1127.75,337.87c0,5.49-8.31,9.27-8.31,9.27h7.98v4.41h-15v-4.41c0,0,10.38-5.52,10.38-9.27
				c0-1.62-1.14-2.58-2.73-2.58c-1.62,0-2.67,1.32-2.67,3.06h-5.01c0-4.17,2.94-7.56,7.68-7.56
				C1125.2,330.79,1127.75,334.15,1127.75,337.87z"/>
			<path class="st5" d="M1149.92,341.35c0,5.97-3.78,10.56-9.72,10.56c-6.03,0-9.75-4.59-9.75-10.56c0-6.03,3.72-10.56,9.75-10.56
				C1146.11,330.79,1149.92,335.32,1149.92,341.35z M1144.94,341.35c0-4.02-2.49-6.03-4.74-6.03s-4.77,2.01-4.77,6.03
				c0,4.05,2.52,6.03,4.77,6.03S1144.94,345.4,1144.94,341.35z"/>
		</g>
	</g>
</g>
<g data-group="FMC1_tools">
	<g>
		<polygon class="st2" points="265.1,64.59 230.47,64.59 230.47,75.4 265.1,75.4 273.79,75.4 273.79,64.59 		"/>
		<path class="st0" d="M265.1,75.4h-34.62v93.84h34.62h8.7V75.4H265.1z M235.7,82.85h4.5h3.12h0.67h3.84v6.42h-3.44v7.58l-0.39,0.75
			l-2.23,4.23l-2.62-4.98v-7.58h-3.44V82.85z M235.7,111.54h12.13v6.42H244v8.66l-4.98,6.34v-14.99h-3.33V111.54z M250.03,162.53
			l-8.27,3l-8.27-3v-4.39h6.61l-0.29-0.92v-7.58h-4.1v-6.42h12.13v6.42h-4.1v7.58l-0.29,0.92h6.61V162.53z M268.57,149.64h-3.47
			h-1.41v11.46c0,0.79-0.64,1.43-1.43,1.43s-1.43-0.64-1.43-1.43v-11.46h-4.39v-6.42h8.65h3.47V149.64z M256.45,117.96v-6.42h8.65
			h3.47v6.42h-3.44v7.58l-0.03,0.06l-0.36,0.69l-4.85,8.25v-16.58H256.45z M270.79,102.16h-5.69h-10.86v-4.39h6.61l-0.29-0.92v-7.58
			h-4.1v-6.42h5.17h1.79h1.69h3.47v6.42h-3.47h-0.63v7.58l-0.29,0.92h0.92h5.69V102.16z"/>
		<g>
			<polygon class="st1" points="163.26,169.24 230.47,169.24 230.47,75.4 230.47,64.59 163.26,64.59 			"/>
			<path class="st1" d="M256.45,143.22v6.42h4.39v11.46c0,0.79,0.64,1.43,1.43,1.43s1.43-0.64,1.43-1.43v-11.46h1.41h3.47v-6.42
				h-3.47H256.45z"/>
			<polygon class="st1" points="239.02,132.95 244,126.62 244,117.96 247.82,117.96 247.82,111.54 235.7,111.54 235.7,117.96 
				239.02,117.96 			"/>
			<polygon class="st1" points="239.14,96.85 241.76,101.83 243.99,97.6 244.38,96.85 244.38,89.27 247.82,89.27 247.82,82.85 
				243.99,82.85 243.32,82.85 240.2,82.85 235.7,82.85 235.7,89.27 239.14,89.27 			"/>
			<polygon class="st1" points="265.1,97.78 264.18,97.78 264.47,96.85 264.47,89.27 265.1,89.27 268.57,89.27 268.57,82.85 
				265.1,82.85 263.41,82.85 261.61,82.85 256.45,82.85 256.45,89.27 260.55,89.27 260.55,96.85 260.84,97.78 254.24,97.78 
				254.24,102.16 265.1,102.16 270.79,102.16 270.79,97.78 			"/>
			<polygon class="st1" points="264.74,126.29 265.1,125.6 265.13,125.54 265.13,117.96 268.57,117.96 268.57,111.54 265.1,111.54 
				256.45,111.54 256.45,117.96 259.89,117.96 259.89,134.54 			"/>
			<polygon class="st1" points="243.72,157.22 243.72,149.64 247.82,149.64 247.82,143.22 235.7,143.22 235.7,149.64 239.8,149.64 
				239.8,157.22 240.09,158.15 233.48,158.15 233.48,162.53 241.76,165.53 250.03,162.53 250.03,158.15 243.43,158.15 			"/>
		</g>
	</g>
</g>
<g id="FMC120_1_">
	<path class="st0" d="M1187.16,25.4c0-14.01-11.4-25.4-25.4-25.4H200.73c-14.01,0-25.4,11.4-25.4,25.4V232v19.72v116.47
		c0,6.29,2.3,12.04,6.1,16.48h-3.89c-1.22,0-2.21,0.99-2.21,2.21v17.68c0,1.22,0.99,2.21,2.21,2.21h34.72
		c1.22,0,2.21-0.99,2.21-2.21v-10.97h236.64v10.97c0,1.22,0.99,2.21,2.21,2.21h34.72c1.22,0,2.21-0.99,2.21-2.21v-10.97h378.02
		v10.97c0,1.22,0.99,2.21,2.21,2.21h34.72c1.22,0,2.21-0.99,2.21-2.21v-10.97h240.65v11.2c0,1.22,0.99,2.21,2.21,2.21h34.72
		c1.22,0,2.21-0.99,2.21-2.21v-17.68c0-1.22-0.99-2.21-2.21-2.21h-4.09c3.92-4.47,6.3-10.32,6.3-16.72V25.4z M1171.16,368.19
		c0,5.19-4.21,9.4-9.4,9.4H200.73c-5.19,0-9.4-4.21-9.4-9.4V251.72V232V25.4c0-5.19,4.21-9.4,9.4-9.4h2.56v229.05h12.04v-9.47V16
		h363.81h84.72h19h61.98h146.54h17.89h237.89v219.58v9.44v0.03h12.04V16h2.55c5.19,0,9.4,4.21,9.4,9.4V368.19z"/>
</g>
<g data-highlighted="FMC1_spindles">
	<path class="st6" d="M743.16,15.84h-64.19c-9.93,0-17.99,8.05-17.99,17.99v135.61c0,9.93,8.05,17.99,17.99,17.99h21.06v23.63
		c0,9.93,8.05,17.99,17.99,17.99h25.14c9.93,0,17.99-8.05,17.99-17.99V33.83C761.15,23.89,753.1,15.84,743.16,15.84z M743.15,164.43
		v5v18.61h-6.49v6.42h-3.44v7.58l-0.39,0.75l-4.85,8.25v-16.58h-3.44v-6.42h-6.49v-18.61h-39.05V33.84h64.16V164.43z"/>
</g>
<g data-highlighted="FMC1_axes">
	<path class="st6" d="M1159.24,215.95H1135v-34.14c0-9.92-8.05-17.97-17.97-17.97H950.19c-9.92,0-17.97,8.04-17.97,17.97v34.14
		H496.18v-34.14c0-9.92-8.05-17.97-17.97-17.97H311.37c-9.92,0-17.97,8.04-17.97,17.97l0,34.14h-90.15
		c-9.92,0-17.97,8.04-17.97,17.97v132.21c0,9.92,8.04,17.97,17.97,17.97h955.98c9.92,0,17.97-8.05,17.97-17.97l0-132.21
		C1177.21,223.99,1169.16,215.95,1159.24,215.95z M203.28,366.1V233.95h115.97l-6.96-16.23l-0.89-2.08v-7.91v-17.89v-8h7.91h6.09v8
		h-6.09v17.89h47.72v-3.77h-47.72v-6h47.72v-8.11h-20.09v-8h20.09h7.91v8v8.11h4.35v9.77v0v9.99v16.23h38.85l-6.96-16.23l-0.89-2.08
		v-7.91v-17.89v-8h7.91h6.09v8h-6.09v17.89h47.72v-3.77H418.2v-6h47.72v-8.11h-20.09v-8h20.09h7.91v8v8.11h4.35v9.77v0v9.99v16.23
		h479.89l-6.96-16.23l-0.89-2.08v-7.91v-17.89v-8h7.91h6.09v8h-6.09v17.89h47.72v-3.77h-47.72v-6h47.72v-8.11h-20.09v-8h20.09h7.91
		v8v8.11h4.35v9.77v0v9.99v16.23h38.85l-6.96-16.23l-0.89-2.08v-7.91v-17.89v-8h7.91h6.09v8h-6.09v17.89h47.72v-3.77h-47.72v-6
		h47.72v-8.11h-20.09v-8h20.09h7.91v8v8.11h4.35v9.77v0v9.99v16.23h42.21l0,132.15H203.28z"/>
</g>
<g data-highlighted="FMC1_tools">
	<path class="st6" d="M273.76,46.59H163.29c-9.96,0-18.03,8.07-18.03,18.03v104.59c0,9.96,8.07,18.03,18.03,18.03h110.48
		c9.96,0,18.03-8.07,18.03-18.03V64.62C291.79,54.66,283.72,46.59,273.76,46.59z M273.79,169.24H163.26V64.59h110.54V169.24z"/>
</g>
</svg>
