<?xml version="1.0" encoding="utf-8"?>
<!-- Generator: Adobe Illustrator 25.2.3, SVG Export Plug-In . SVG Version: 6.00 Build 0)  -->
<svg version="1.1" xmlns="http://www.w3.org/2000/svg" xmlns:xlink="http://www.w3.org/1999/xlink" x="0px" y="0px"
	 viewBox="0 0 1410 400" style="enable-background:new 0 0 1410 400;" xml:space="preserve">
<style type="text/css">
	.st0{fill:none;}
	.st1{fill:#246047;}
	.st2{fill:#005140;}
	.st3{fill:#4A7E68;}
	.st4{fill:#FFFFFF;}
	.st5{fill:#4B7B5E;}
</style>
<g data-highlighted="LMC650_StepIn_Out">
	<g>
		<path class="st0" d="M378.3,370.9V253.1c0,0,0,0-0.1,0l-182-0.3l0-8.9c0-9.9-8-18-18-18l-27,0c0-4.7-3.8-8.5-8.4-8.5l-5.5-0.1
			l0-6.8c0-7.1-5.8-12.8-12.9-12.8v-66.8c0-9.9-8-18-18-18L59,112.8c-10,0-18,8-18,18l0,66.9h0c-7,0-12.7,5.7-12.7,12.7l0,6.8
			l-10.5,0c-9.9,0-17.9,8.1-17.9,18v56c0,9.9,8,17.9,17.9,18l13.2,0.1l-0.3,28.4c-0.1,10,8,18.2,18,18.2l31.5,0l0,14.6
			c0,9.9,8,18,18,18l288.2,0.7C381.4,384.7,378.3,378.1,378.3,370.9z"/>
	</g>
	<path class="st0" d="M1391.8,253.1h-363v117.8c0,6.8-2.7,12.9-7,17.4h370c9.9,0,18-8.1,18-18v-99.3
		C1409.8,261.1,1401.8,253.1,1391.8,253.1z"/>
</g>
<g data-group="LMC650_StepIn_Out">
	<g id="STEP_IN_1_">
		<g id="Group_49_1_">
			<path id="Rectangle_32_1_" class="st1" d="M17.8,235.2h115.4v8.6l45,0l0,8.7H17.8V235.2z"/>
			<rect id="Rectangle_33_1_" x="65.9" y="130.8" class="st1" width="33.7" height="104.4"/>
			<g>
				<path class="st2" d="M117.4,219.8l-69.3,0l-1.9,0v32.8c0,1,0.8,1.9,1.9,1.9h69.3c1,0,1.9-0.8,1.9-1.9v-32.8L117.4,219.8z"/>
				<path class="st3" d="M117.4,216h-10.9v-15.2v-17v-17H59v17v17V216H48.1c-1,0-1.9,0.8-1.9,1.9v0v1.9l1.9,0l69.3,0l1.9,0v-1.9
					c0,0,0,0,0,0v0c0,0,0,0,0,0C119.2,216.8,118.4,216,117.4,216z"/>
			</g>
			<circle id="Ellipse_4_1_" class="st2" cx="82.7" cy="196.3" r="11.2"/>
		</g>
		<g id="Group_68_1_" transform="translate(0 53.973)">
			<path id="Path_154_1_" class="st3" d="M68.7,284L48.6,284l0.7-50.6l20.1,0.1L68.7,284z"/>
			<polygon class="st3" points="332.8,266.6 332.9,254.7 322.8,254.6 322.8,266.6 279.1,266.6 279.2,254.7 269.1,254.6 269,266.6 
				225.5,266.6 225.6,254.7 215.5,254.6 215.4,266.6 171.9,266.6 172,254.7 161.9,254.6 161.8,266.6 118.2,266.6 118.3,254.7 
				108.3,254.6 108.2,266.6 98.2,266.6 98.2,316.9 389.6,316.9 389.6,266.6 			"/>
			<rect id="Rectangle_52_1_" x="17.8" y="217.1" class="st2" width="375.4" height="20.1"/>
		</g>
		<rect x="98.1" y="354.3" class="st2" width="295.5" height="16.2"/>
	</g>
	<g>
		<rect x="1028.9" y="271.1" class="st2" width="363.4" height="20.1"/>
		<path class="st3" d="M1370.2,349c0,2.8,1.3,4.6,2.8,5.4h3.6c1.3-0.7,2.4-2,2.7-4.2l-6.2,0l-0.1-6.7
			C1371.6,344.3,1370.2,346.1,1370.2,349z"/>
		<polygon class="st3" points="1278.2,350.2 1275,350.2 1276.6,353.6 		"/>
		<path class="st3" d="M1326.1,351.9c0,1.1,0.5,1.9,1.4,2.4h3.2c0.8-0.5,1.4-1.4,1.4-2.4c0-0.7-0.3-1.3-0.7-1.8l-4.6,0
			C1326.3,350.6,1326.1,351.2,1326.1,351.9z"/>
		<polygon class="st3" points="1269.2,354.3 1271.8,354.3 1269.2,348.8 		"/>
		<polygon class="st3" points="1281.3,354.3 1283.9,354.3 1283.9,348.8 		"/>
		<path class="st3" d="M1379.3,350.2c0.1-0.4,0.1-0.8,0.1-1.2c0-3.9-2.4-5.8-4.6-5.8c-0.6,0-1.2,0.1-1.7,0.4l0.1,6.7L1379.3,350.2z"
			/>
		<path class="st3" d="M1329,349.2c-1,0-1.8,0.4-2.3,1l4.6,0C1330.8,349.6,1330,349.2,1329,349.2z"/>
		<path class="st3" d="M1325.8,347.3c0.7-0.8,1.8-1.9,4.4-1.9c0.7,0,1.4,0.1,2.2,0.3l0-2.3c-0.6-0.2-1.4-0.4-2.1-0.4
			C1327.2,343,1326.3,345.1,1325.8,347.3z"/>
		<path class="st3" d="M1383,320.6l-0.1-12l-10.1,0.1l0.1,11.9h-40.9l-0.1-12l-10.1,0.1l0.1,11.9h-40.9l-0.1-12l-10.1,0.1l0.1,11.9
			h-40.9l-0.1-12l-10.1,0.1l0.1,11.9h-40.9l-0.1-12l-10.1,0.1l0.1,11.9h-40.9l-0.1-12l-10.1,0.1l0.1,11.9h-40.9l-0.1-12l-10.1,0.1
			l0.1,11.9h-38.5v33.8H1242v-15.2h4.8v15.2h17.6v-15.2h5.3l1.5,3.3l3.7,7.9l3.2,0l3.1-6.6l2.1-4.4h5.3v15.2h8.3
			c-1-1.6-1.6-3.5-1.6-5.5c0-5.5,4.5-10.1,10.7-10.1c4.2,0,7.5,2,9.3,4.9l-4,2.3c-0.9-1.8-2.8-3-5.2-3c-3.5,0-5.9,2.5-5.9,5.8
			c0,2.5,1.5,4.7,3.8,5.5h4.2c1.4-0.5,2.4-1.4,3.1-2.6l4,2.3c-0.1,0.1-0.1,0.2-0.2,0.3h6.8c-0.6-1.3-0.9-2.9-0.9-4.8
			c0-2,0.3-4.1,1.1-5.9c1.2-2.8,3.6-5,7.7-5c0.9,0,1.6,0.1,2.4,0.3c2.2,0.5,3.7,1.5,4.3,1.9l-2.1,3.6c-0.2-0.2-1-0.7-2.2-1.1l0,2.3
			c2.4,0.8,4.6,2.9,4.6,6.3c0,0.9-0.1,1.6-0.3,2.4h7.4c-0.4-0.9-0.6-1.9-0.6-2.9h4.8c0,1.3,0.6,2.4,1.6,2.9h3.4
			c0.8-0.5,1.4-1.3,1.4-2.6c0-2.3-1.4-3.3-2.9-3.3c-1.8,0-2.8,0.8-3.5,1.5h-4.2v-10.9h14.2v4.4h-9.4v2.6c0.8-0.6,2.1-1.2,3.8-1.2
			c4.8,0,6.9,3.7,6.9,6.8c0,1-0.1,1.8-0.4,2.6h7.7c-0.8-1.5-1.2-3.4-1.2-5.4c0-5.2,2.9-9.3,7.7-10.1c0.6-0.1,1.1-0.2,1.8-0.2
			c3.9,0,6.9,2,8.3,5.2c0.7,1.5,1.1,3.2,1.1,5c0,2-0.4,3.8-1.3,5.4h9.2v16.2h-363.4v0.3h363.4v-50.3H1383z"/>
		<path class="st2" d="M1308.3,354.3h-4.2c0.6,0.2,1.3,0.4,2.1,0.4C1306.9,354.7,1307.6,354.6,1308.3,354.3z"/>
		<path class="st2" d="M1329,354.8c0.6,0,1.1-0.2,1.6-0.4h-3.2C1327.9,354.6,1328.4,354.8,1329,354.8z"/>
		<path class="st2" d="M1353.1,354.3h-3.4c0.5,0.3,1,0.5,1.7,0.5C1352,354.8,1352.6,354.6,1353.1,354.3z"/>
		<path class="st2" d="M1392.2,354.3h-9.2c-1.5,2.9-4.4,4.8-8.1,4.8c-3.8,0-6.7-1.9-8.2-4.8h-7.7c-1,3.1-3.9,4.8-7.6,4.8
			c-3.7,0-6.3-2.1-7.5-4.8h-7.4c-1,3.1-3.8,4.8-7.2,4.8c-3.3,0-6-1.7-7.4-4.8h-6.8c-1.8,2.8-5,4.8-9,4.8c-4,0-7.3-1.9-9.1-4.8h-8.3
			v4.5h-4.8v-4.5h-2.6l-2.1,4.5h-5.3l-2.1-4.5h-2.6v4.5h-4.8v-4.5h-17.6v0.1h10.4v4.4H1242v-4.5h-213.2v16.2h363.4V354.3z"/>
		<path class="st2" d="M1374.9,354.8c0.6,0,1.2-0.2,1.8-0.5h-3.6C1373.6,354.6,1374.2,354.8,1374.9,354.8z"/>
		<g>
			<polygon class="st4" points="1246.8,354.3 1246.8,339.1 1242,339.1 1242,354.3 1242,358.8 1257.1,358.8 1257.1,354.4 
				1246.8,354.4 			"/>
			<polygon class="st4" points="1281.3,343.5 1278.2,350.2 1276.6,353.6 1275,350.2 1271.2,342.4 1269.7,339.1 1264.4,339.1 
				1264.4,354.3 1264.4,358.8 1269.2,358.8 1269.2,354.3 1269.2,348.8 1271.8,354.3 1273.9,358.8 1279.2,358.8 1281.3,354.3 
				1283.9,348.8 1283.9,354.3 1283.9,358.8 1288.7,358.8 1288.7,354.3 1288.7,339.1 1283.4,339.1 			"/>
			<path class="st4" d="M1306.1,343c2.5,0,4.3,1.2,5.2,3l4-2.3c-1.8-3-5.1-4.9-9.3-4.9c-6.2,0-10.7,4.6-10.7,10.1
				c0,2.1,0.6,3.9,1.6,5.5c1.8,2.9,5.1,4.8,9.1,4.8c4,0,7.2-2,9-4.8c0.1-0.1,0.1-0.2,0.2-0.3l-4-2.3c-0.7,1.2-1.7,2.1-3.1,2.6
				c-0.6,0.2-1.3,0.4-2.1,0.4c-0.7,0-1.4-0.1-2.1-0.4c-2.3-0.8-3.8-3.1-3.8-5.5C1300.3,345.6,1302.7,343,1306.1,343z"/>
			<path class="st4" d="M1332.3,345.7c-0.7-0.2-1.4-0.3-2.2-0.3c-2.5,0-3.6,1.2-4.4,1.9c0.6-2.1,1.4-4.3,4.4-4.3
				c0.8,0,1.5,0.2,2.1,0.4c1.1,0.4,2,0.9,2.2,1.1l2.1-3.6c-0.7-0.3-2.2-1.4-4.3-1.9c-0.7-0.2-1.5-0.3-2.4-0.3c-4.1,0-6.4,2.1-7.7,5
				c-0.8,1.8-1.1,3.9-1.1,5.9c0,1.9,0.3,3.4,0.9,4.8c1.3,3.2,4.1,4.8,7.4,4.8c3.3,0,6.2-1.7,7.2-4.8c0.2-0.7,0.3-1.5,0.3-2.4
				C1336.8,348.5,1334.7,346.4,1332.3,345.7z M1329,354.8c-0.6,0-1.1-0.2-1.6-0.4c-0.8-0.5-1.4-1.4-1.4-2.4c0-0.7,0.2-1.3,0.6-1.7
				c0.5-0.6,1.3-1,2.3-1c0.9,0,1.7,0.4,2.3,0.9c0.4,0.5,0.7,1.1,0.7,1.8c0,1.1-0.6,1.9-1.4,2.4
				C1330.2,354.6,1329.6,354.8,1329,354.8z"/>
			<path class="st4" d="M1352.5,344.9c-1.7,0-2.9,0.6-3.8,1.2v-2.6h9.4v-4.4h-14.2V350h4.2c0.8-0.8,1.7-1.5,3.5-1.5
				c1.5,0,2.9,1,2.9,3.3c0,1.3-0.6,2.2-1.4,2.6c-0.5,0.3-1.2,0.5-1.8,0.5c-0.6,0-1.2-0.2-1.7-0.5c-1-0.6-1.6-1.7-1.6-2.9h-4.8
				c0,1,0.2,2,0.6,2.9c1.1,2.7,3.8,4.8,7.5,4.8c3.7,0,6.6-1.7,7.6-4.8c0.3-0.8,0.4-1.7,0.4-2.6
				C1359.3,348.6,1357.3,344.9,1352.5,344.9z"/>
			<path class="st4" d="M1383.2,344c-1.5-3.2-4.4-5.2-8.3-5.2c-0.6,0-1.2,0.1-1.8,0.2c-4.8,0.8-7.7,4.8-7.7,10.1
				c0,2,0.4,3.8,1.2,5.4c1.5,2.9,4.4,4.8,8.2,4.8c3.8,0,6.6-1.9,8.1-4.8c0.8-1.5,1.3-3.4,1.3-5.4
				C1384.3,347.1,1383.9,345.4,1383.2,344z M1374.9,354.8c-0.6,0-1.2-0.2-1.8-0.5c-1.5-0.8-2.8-2.6-2.8-5.4c0-2.9,1.3-4.7,2.9-5.4
				c0.6-0.3,1.2-0.4,1.7-0.4c2.2,0,4.6,1.9,4.6,5.8c0,0.4,0,0.8-0.1,1.2c-0.3,2.1-1.4,3.5-2.7,4.2
				C1376.1,354.6,1375.5,354.8,1374.9,354.8z"/>
		</g>
	</g>
</g>
<g data-group="CABINA">
	<g id="_x31_0_2_">
		<path class="st2" d="M1027.7,373.3l-5.2-351.2l-6.1-5l-0.6,0.1l-0.9-0.7L727.3,69.3l-3.6,0.7L703.5,70L683.4,70l-3.6-0.7
			L392.2,16.4l-0.9,0.7l-0.6-0.1l-6.1,5l-5.2,351.2l3,2.5l0,2.4l6.4,5.1l151.8-36.7L680.1,313l2.8-0.7l1.2,0l19.5-0.2l19.5,0.2
			l1.2,0l2.8,0.7l139.5,33.7l151.8,36.7l6.4-5.1l0-2.4L1027.7,373.3z M678.8,307.9l-139.4,33.7l-146.9,35.5l-5,1.2l0-0.2l0.1-5.3
			l3.7-350.3l287.5,52V307.9z M723,74.5v233.2l-19.5,0.2l-19.5-0.2V74.5v-0.1l19.5,0l19.5,0V74.5z M1014.5,377.1l-146.9-35.5
			l-139.4-33.7V74.5l287.5-52l3.7,350.3l0.1,5.3l0,0.2L1014.5,377.1z"/>
		<path id="Path_3170_1_" class="st2" d="M1003.6,9h-600c-14,0-25.3,11.3-25.3,25.3v336.6c0,14,11.3,25.3,25.3,25.3h600
			c14,0,25.3-11.3,25.3-25.3V34.3C1028.9,20.4,1017.5,9.1,1003.6,9z M1013,370.9c0,5.2-4.2,9.4-9.4,9.4h-600c-5.2,0-9.4-4.2-9.4-9.4
			v0V34.3c0-5.2,4.2-9.4,9.4-9.4l0,0h269.1c2.7,0,4.9,2.2,5,4.9v18.8c8.2-4.2,24.1-9.9,24.1-9.9l-7.3-5.5l0.8,0.1
			c2.7,0.4,5.4,0.7,8.2,0.8c5.6-0.4,11-1.5,16.3-3.2l5.6,0.1l-23.2,8.1c-8.5,3.2-16.8,7.2-24.6,12v8.7c0,2.8,2.2,5,5,5h41.7
			c2.8,0,5-2.2,5-5V29.9c0-2.7,2.2-5,5-5h269.2c5.2,0,9.4,4.2,9.4,9.4V370.9z"/>
		<path id="Path_3169_2_" class="st4" d="M702.2,39.1l23.2-8.1l-5.6-0.1c-5.3,1.7-10.8,2.8-16.3,3.2c-2.7-0.1-5.5-0.4-8.2-0.8
			l-0.8-0.1l7.3,5.5c0,0-15.9,5.6-24.1,9.9V51C685.5,46.3,693.7,42.3,702.2,39.1z"/>
	</g>
</g>
<g data-highlighted="LMC650_MM">
	<path class="st0" d="M683.2,126.2v-12.5c0-9.1-6.8-16.8-15.8-17.9l-21.6-2.6V64.1c0-8.7-6.2-16.1-14.7-17.7l-2.2-0.4
		c0-6.5-4.5-12.1-10.8-13.6L506.9,7.2c-8.3-1.9-16.2,4.4-16.2,13l-5.1-1c-11.1-2.1-21.3,6.4-21.3,17.7l0,34.2l-52.9-6.4
		c-10.7-1.3-20.2,7.1-20.2,17.9v25.3c-7.7-0.5-14.2,5.6-14.2,13.3v186.6c0,7.5,6.8,13.3,14.2,12.1c0,6.4,5.8,11.3,12.2,10.2l60.9-11
		v7.6l-77.6,17.5c-8.2,1.8-14,9.1-14,17.6v16.8c0,11.7,11,20.3,22.3,17.5l69.3-17.1c0,11.8,11.3,20.2,22.6,16.8l3.1-0.9
		c-0.1,2.9,2.7,5,5.5,4.1L624,358.9c2.5-0.8,4.2-3.1,4.3-5.7l4.7-1.4c7.6-2.3,12.8-9.3,12.8-17.2v-48.4l29.8-5.4
		c4.4-0.8,7.6-4.6,7.6-9.1c3.5-0.6,6.2-3.7,6.2-7.3V132.7C689.4,129.3,686.7,126.4,683.2,126.2z"/>
</g>
<g data-group="LMC650_MM">
	<path id="Path_159_1_" class="st1" d="M594.4,232.4l-60.7,5.8v13.7l60.7-7.1v71l-203.8,45.9v16.8l212.9-52.6v-94.2L594.4,232.4z"/>
	<g id="Group_77_1_" transform="translate(1.663 21.73)">
		<path id="Rectangle_62_1_" class="st3" d="M407.5,289V60.8l50.9,6.2v212.7L407.5,289z"/>
		<path id="Rectangle_63_1_" class="st1" d="M393.3,104.4l31.1,1.9v167.8l-31.1,5.1V104.4z"/>
		<g id="Group_688_1_" transform="translate(14.821 21.747)">
			<g id="Group_684_1_" transform="translate(0 42.79)">
				<path id="Path_3174_1_" class="st2" d="M483.8,179.7v-2.5l8.2-1.1l-1.4-3.4l-6.8,0.9v-2.5l-3.3,0.4v8.7L483.8,179.7z"/>
				<path id="Path_3175_1_" class="st2" d="M468.8,190.7l11.7-5.5v-18.8l-11.7-2.4l-51.9,5.8v28.8L468.8,190.7z"/>
			</g>
			<g id="Group_685_1_" transform="translate(0 28.751)">
				<path id="Path_3176_1_" class="st2" d="M483.8,158.1v-2.5l8.2-0.7l-1.4-3.5l-6.8,0.5v-2.5l-3.3,0.2v8.7L483.8,158.1z"/>
				<path id="Path_3177_1_" class="st2" d="M468.8,168.3l11.7-4.9v-18.8l-11.7-3l-51.9,3v28.8L468.8,168.3z"/>
			</g>
			<g id="Group_686_1_" transform="translate(0 14.765)">
				<path id="Path_3178_1_" class="st2" d="M483.8,136.5V134l8.2-0.2l-1.4-3.5l-6.8,0.1v-2.5l-3.3,0.1v8.7L483.8,136.5z"/>
				<path id="Path_3179_1_" class="st2" d="M468.8,145.9l11.7-4.2v-18.8l-11.7-3.7l-51.9,0.2v28.8L468.8,145.9z"/>
			</g>
			<g id="Group_687_1_" transform="translate(0.154)">
				<path id="Path_3180_1_" class="st2" d="M483.6,116.8v-2.5l8.2,0.2l-1.4-3.6l-6.8-0.2v-2.5l-3.3-0.1v8.7L483.6,116.8z"/>
				<path id="Path_3181_1_" class="st2" d="M469,124.8l11.7-3.6v-18.8L469,98.1l-51.8-2.5v28.8L469,124.8z"/>
			</g>
		</g>
	</g>
	<g id="Group_80_1_" transform="translate(83.963 32.57)">
		<g id="Group_79_1_" transform="translate(12.247)">
			<path id="Rectangle_68_1_" class="st3" d="M544.4,236.2V78.2l24.6,3v150.6L544.4,236.2z"/>
			<path id="Rectangle_69_1_" class="st5" d="M575.2,222.8l-13.6,2.3v-115l13.6,0.9V222.8z"/>
		</g>
		<g id="Group_693_1_" transform="translate(0 14.444)">
			<g id="Group_689_1_" transform="translate(0 32.005)">
				<path id="Path_3182_1_" class="st2" d="M530.6,171.1v-2.1l-5.8,0.8l1-3.2l4.8-0.6V164l2.2-0.3v7.1L530.6,171.1z"/>
				<path id="Path_3183_1_" class="st2" d="M540.4,176.9l-7.6-1.9v-15.4l7.6-3.9l28.8-3.2v20.1L540.4,176.9z"/>
			</g>
			<g id="Group_690_1_" transform="translate(0 21.445)">
				<path id="Path_3184_1_" class="st2" d="M530.6,152.2v-2.1l-5.8,0.5l1-3.1l4.8-0.4V145l2.2-0.2v7.1L530.6,152.2z"/>
				<path id="Path_3185_1_" class="st2" d="M540.4,158.5l-7.6-2.3v-15.4l7.6-3.5l28.8-1.7v20.1L540.4,158.5z"/>
			</g>
			<g id="Group_691_1_" transform="translate(0 10.925)">
				<path id="Path_3186_1_" class="st2" d="M530.6,133.3v-2.1l-5.8,0.2l1-3.1l4.8-0.1v-2.1l2.2,0v7.1L530.6,133.3z"/>
				<path id="Path_3187_1_" class="st2" d="M540.4,140.1l-7.6-2.7v-15.4l7.6-3.1l28.8-0.1v20.1L540.4,140.1z"/>
			</g>
			<g id="Group_692_1_">
				<path id="Path_3188_1_" class="st2" d="M530.6,115.7v-2.1l-5.8-0.1l1-3l4.8,0.1v-2.1l2.2,0.1v7.1L530.6,115.7z"/>
				<path id="Path_3189_1_" class="st2" d="M540.2,122.5l-7.6-3.1v-15.5l7.6-2.7l28.8,1.4v20.1L540.2,122.5z"/>
			</g>
		</g>
	</g>
	<g id="Group_700_1_" transform="translate(35.263)">
		<g id="Group_82_1_">
			<path id="Rectangle_61_1_" class="st3" d="M447,36.9l145.6,27.2v38.4L447,83L447,36.9z"/>
			<path id="Rectangle_74_1_" class="st1" d="M575.6,49.3v22.9L473.4,53.3V26.1L575.6,49.3z"/>
		</g>
		<g id="Group_699_1_" transform="translate(5.694 12.925)">
			<g id="Group_694_1_">
				<path id="Path_3190_1_" class="st2" d="M463.7,116.9l2.2,0.1v9.4l3.1-1.5v-7.8l2.1,0.1v-3.7l-7.4-0.5L463.7,116.9z"/>
				<path id="Path_3191_1_" class="st2" d="M456.1,99.6l3.3,13.3l16,1.2l3.1-12.4V50.6l-22.4-3.9L456.1,99.6z"/>
			</g>
			<g id="Group_695_1_" transform="translate(11.605 1.998)">
				<path id="Path_3192_1_" class="st2" d="M481.6,116.9l2,0.1v9l2.8-1.4v-7.4l1.9,0.1v-3.5l-6.8-0.5L481.6,116.9z"/>
				<path id="Path_3193_1_" class="st2" d="M474.6,100.4l3,12.7l14.6,1.1l2.8-11.8V53.5L474.6,50V100.4z"/>
			</g>
			<g id="Group_696_1_" transform="translate(22.165 3.815)">
				<path id="Path_3194_1_" class="st2" d="M497.9,116.9l1.8,0.1v8.6l2.6-1.4v-7.1l1.8,0.1v-3.4l-6.2-0.5L497.9,116.9z"/>
				<path id="Path_3195_1_" class="st2" d="M491.5,101.1l2.7,12.1l13.4,1l2.6-11.3V56.1l-18.7-3.2L491.5,101.1z"/>
			</g>
			<g id="Group_697_1_" transform="translate(31.733 5.59)">
				<path id="Path_3196_1_" class="st2" d="M512.3,116.7l1.7,0.1v8.3l2.4-1.3V117l1.7,0.1v-3.2l-5.7-0.4V116.7z"/>
				<path id="Path_3197_1_" class="st2" d="M506.8,102l2.5,11.6l12.4,0.9l2.4-10.9V58.7l-17.3-3L506.8,102z"/>
			</g>
			<g id="Group_698_1_" transform="translate(40.534 6.977)">
				<path id="Path_3198_1_" class="st2" d="M526.3,116.9l1.5,0.1v8l2.2-1.3v-6.6l1.5,0.1v-3.1l-5.3-0.4L526.3,116.9z"/>
				<path id="Path_3199_1_" class="st2" d="M520.8,102.4l2.3,11.1l11.4,0.8l2.2-10.5V60.7l-16-2.7V102.4z"/>
			</g>
		</g>
	</g>
	<g id="Group_707_1_" transform="translate(35.263 88.049)">
		<g id="Group_82-2_1_" transform="translate(0 15.873)">
			<path id="Rectangle_61-2_1_" class="st3" d="M447,225.4l145.6-33.2v38.4L447,274.2V225.4z"/>
			<path id="Rectangle_74-2_1_" class="st1" d="M473,272l0.4-19.4l102.2-28.5l-0.4,16.2L473,272z"/>
		</g>
		<g id="Group_706_1_" transform="translate(5.749)">
			<g id="Group_701_1_" transform="translate(0 5.745)">
				<path id="Path_3200_1_" class="st2" d="M463.8,185.8l2.2-0.3V176l3.1,1.2v7.7l2.1-0.3v3.7l-7.4,1.2L463.8,185.8z"/>
				<path id="Path_3201_1_" class="st2" d="M456.1,203.8l3.3-13.6l16-2.7l3.1,12.1v51l-22.4,5.9V203.8z"/>
			</g>
			<g id="Group_702_1_" transform="translate(11.6 4.103)">
				<path id="Path_3202_1_" class="st2" d="M481.7,182.7l2-0.3v-9l2.8,1.1v7.4l1.9-0.3v3.5l-6.8,1.1L481.7,182.7z"/>
				<path id="Path_3203_1_" class="st2" d="M474.7,199.9l3-12.9l14.6-2.4l2.8,11.6v48.8l-20.4,5.4L474.7,199.9z"/>
			</g>
			<g id="Group_703_1_" transform="translate(22.156 2.607)">
				<path id="Path_3204_1_" class="st2" d="M498,179.9l1.8-0.3V171l2.6,1.1v7.1l1.8-0.3v3.4l-6.2,1L498,179.9z"/>
				<path id="Path_3205_1_" class="st2" d="M491.6,196.3l2.7-12.4l13.4-2.2l2.6,11.1v46.8l-18.7,5L491.6,196.3z"/>
			</g>
			<g id="Group_704_1_" transform="translate(31.72 1.271)">
				<path id="Path_3206_1_" class="st2" d="M512.4,177.4l1.7-0.3v-8.3l2.4,1.1v6.8l1.6-0.3v3.2l-5.7,0.9V177.4z"/>
				<path id="Path_3207_1_" class="st2" d="M506.8,192.7l2.5-11.8l12.4-2l2.4,10.7v44.9l-17.2,4.6L506.8,192.7z"/>
			</g>
			<g id="Group_705_1_" transform="translate(40.518)">
				<path id="Path_3208_1_" class="st2" d="M526.3,175l1.5-0.3v-8l2.2,1.1v6.5l1.5-0.2v3.1l-5.3,0.9L526.3,175z"/>
				<path id="Path_3209_1_" class="st2" d="M520.9,190l2.3-11.3l11.4-1.9l2.2,10.3v43.2l-15.9,4.2V190z"/>
			</g>
		</g>
	</g>
</g>
<g data-highlighted="LMC650_Motor_Blade">
	<path class="st0" d="M933,370.6L933,370.6l-107.1-25.3l0,0c0,5.1-4.8,8.9-9.8,7.7l-36.2-8.7c-8.1-1.9-13.8-9.2-13.8-17.5l0-94.2
		c0-11.1,10-19.6,21-17.7l3.9,0.7c7.4-43.5,38.7-74.3,78.4-74.3c2.5,0,5.1,0.1,7.7,0.4c46.6,4.7,85.3,49.8,91.2,103.6l47.6,8
		c8.7,1.5,15,9,15,17.8v20.3c0,11.3-10.2,19.7-21.3,17.7l-10.1-1.9l0,67.3c0,11.7-10.9,20.2-22.2,17.5l-34.2-8.3
		C937.3,382.3,933,376.9,933,370.6z"/>
</g>
<g data-group="LMC650_Motor_Blade">
	<g id="LAMA-06_1_">
		<g>
			<path class="st3" d="M951.3,259.7c0-51.1-35-96-75.8-100.1c-38.4-3.9-68,30.3-68,76.1c0,0.4,0,0.8,0,1.2l36.8,6.2
				c-10.6-21.4-12.7-43.6-4.6-56.3l-6.4-12.2l2.8-1.5l-0.1-0.2l1.1-0.6l3.6,6.8l2.1,3.9l34.6,65.7l-0.1,0l-0.4,0.2l5.9,11.2
				l42.8,7.5l15.7,2.8l-1.5-11.2l11.4,1.9C951.2,260.6,951.3,260.1,951.3,259.7z"/>
			<path class="st4" d="M842.7,182.9l-2.1-3.9l-3.6-6.8l-1.1,0.6l0.1,0.2l-2.8,1.5l6.4,12.2c0.5-0.8,1.1-1.7,1.7-2.4
				c0.1-0.2,0.3-0.3,0.4-0.5l34,64.5l0.4,0.8l0.5-0.3l0.2-0.1l0.4-0.2l0.1,0L842.7,182.9z"/>
			<polygon class="st1" points="941.3,270.2 925.6,267.5 882.8,260 850.7,254.3 803,245.9 803,321.4 959,358.3 959,273.4 			"/>
		</g>
		<path class="st2" d="M875.6,248l-33.8-64.1c-0.1,0.2-0.3,0.3-0.4,0.5c-0.6,0.8-1.2,1.6-1.7,2.4c-8,12.6-6,34.6,4.4,56l-59.9-10
			l0,94.2l23.7,5.7v-66.1L951,293.8v73.2l30.7,7.4l0-89l31.4,5.8V271L875.6,248z"/>
	</g>
</g>
</svg>
