<?xml version="1.0" encoding="utf-8"?>
<!-- Generator: Adobe Illustrator 25.2.3, SVG Export Plug-In . SVG Version: 6.00 Build 0)  -->
<svg version="1.1" id="LMC650_MM" xmlns="http://www.w3.org/2000/svg" xmlns:xlink="http://www.w3.org/1999/xlink" x="0px"
	 y="0px" viewBox="0 0 220 220" style="enable-background:new 0 0 220 220;" xml:space="preserve">
<style type="text/css">
	.st0{fill:#4A7E68;}
	.st1{fill:#246047;}
	.st2{fill:#005140;}
	.st3{fill:#686868;}
</style>
<g id="_x33_">
	<g>
		<g>
			<polygon class="st0" points="8.8,65.8 17.8,65.8 17.8,155.7 8.8,155.7 8.8,162 37.4,162 37.4,150.4 22,150.4 22,134.8 
				37.4,134.8 37.4,129.2 22,129.2 22,113.6 37.4,113.6 37.4,108 22,108 22,92.4 37.4,92.4 37.4,87.1 22.2,87.1 22.2,71.5 
				37.4,71.5 37.4,42.5 8.8,42.5 			"/>
			<polygon class="st0" points="212.5,65.8 212.5,42.5 184.2,42.5 184.2,71.5 198.1,71.5 198.1,87.1 184.2,87.1 184.2,92.4 
				198.3,92.4 198.3,108 184.2,108 184.2,113.6 198.3,113.6 198.3,129.2 184.2,129.2 184.2,134.8 198.3,134.8 198.3,150.4 
				184.2,150.4 184.2,162 212.5,162 212.5,155.7 203.6,155.7 203.6,65.8 			"/>
			<polygon class="st0" points="153.4,17.6 69,17.6 69,9.3 51.3,9.3 51.3,37.6 61,37.6 61,22.6 76.6,22.6 76.6,37.6 82.3,37.6 
				82.3,22.6 97.9,22.6 97.9,37.6 103.4,37.6 103.4,22.6 119,22.6 119,37.6 124.4,37.6 124.4,22.9 139.9,22.9 139.9,37.6 
				145.2,37.6 145.2,22.6 160.8,22.6 160.8,37.6 170.5,37.6 170.5,9.3 153.4,9.3 			"/>
			<polygon class="st0" points="160.9,195 145.3,195 145.3,194.7 145.3,180.5 140,180.5 140,194.7 140,194.8 124.4,194.8 
				124.4,194.7 124.4,186.1 124.4,180.5 119.1,180.5 119.1,186.1 119.1,194.7 119.1,195 103.5,195 103.5,194.7 103.5,186.1 
				103.5,180.5 98,180.5 98,186.1 98,194.7 98,195 82.4,195 82.4,194.7 82.4,186.1 82.4,180.5 76.7,180.5 76.7,186.1 76.7,194.7 
				76.7,195 61.1,195 61.1,194.7 61.1,186.1 61.1,180.5 51.3,180.5 51.3,186.1 51.3,194.7 51.3,208.8 69,208.8 69,200.5 
				153.4,200.5 153.4,208.8 170.5,208.8 170.5,180.5 160.9,180.5 			"/>
		</g>
		<g>
			<rect x="2.9" y="186.1" class="st1" width="48.4" height="8.6"/>
			<polygon class="st1" points="145.3,180.5 145.3,163.7 146.4,160.1 146.4,128.2 137.8,128.2 87.1,128.2 87.1,136.8 137.8,136.8 
				137.8,155.7 137.8,155.7 140,163.5 140,180.5 			"/>
			<polygon class="st1" points="17.8,155.7 17.8,65.8 8.8,65.8 2.9,65.8 2.9,155.7 8.8,155.7 			"/>
			<polygon class="st1" points="212.5,65.8 203.6,65.8 203.6,155.7 212.5,155.7 217.1,155.7 217.1,65.8 			"/>
			<polygon class="st1" points="69,9.3 69,17.6 153.4,17.6 153.4,9.3 153.4,2.9 69,2.9 			"/>
			<polygon class="st1" points="69,208.8 69,216.9 153.4,216.9 153.4,208.8 153.4,200.5 69,200.5 			"/>
		</g>
		<g>
			<polygon class="st2" points="63.2,143.7 68.9,143.7 67.9,141.6 63.2,141.6 63.2,140.1 61,140.1 61,145.2 63.2,145.2 			"/>
			<polygon class="st2" points="37.4,134.8 22,134.8 22,150.4 37.4,150.4 53.3,150.4 61,148.2 61,137 53.3,134.8 			"/>
			<polygon class="st2" points="61,124 63.2,124 63.2,122.5 68.9,122.5 67.9,120.3 63.2,120.3 63.2,118.8 61,118.8 			"/>
			<polygon class="st2" points="37.4,113.6 22,113.6 22,129.2 37.4,129.2 53.3,129.2 61,127 61,115.8 53.3,113.6 			"/>
			<polygon class="st2" points="61,97.6 61,102.8 63.2,102.8 63.2,101.3 68.9,101.3 67.9,99.1 63.2,99.1 63.2,97.6 			"/>
			<polygon class="st2" points="37.4,92.4 22,92.4 22,108 37.4,108 53.3,108 61,105.8 61,94.6 53.3,92.4 			"/>
			<polygon class="st2" points="53.5,87.1 61.2,84.9 61.2,82.2 63.2,82.2 63.2,80.7 68.9,80.7 67.9,78.6 63.2,78.6 63.2,77.1 
				61.2,77.1 61.2,73.7 53.5,71.5 37.4,71.5 22.2,71.5 22.2,87.1 37.4,87.1 			"/>
			<polygon class="st2" points="159.3,145.2 159.3,140.1 157.1,140.1 157.1,141.6 152.4,141.6 151.4,143.7 157.1,143.7 157.1,145.2 
							"/>
			<polygon class="st2" points="167,134.8 159.3,137 159.3,148.2 167,150.4 184.2,150.4 198.3,150.4 198.3,134.8 184.2,134.8 			"/>
			<polygon class="st2" points="159.3,118.8 157.1,118.8 157.1,120.3 152.4,120.3 151.4,122.5 157.1,122.5 157.1,124 159.3,124 			
				"/>
			<polygon class="st2" points="167,113.6 159.3,115.8 159.3,127 167,129.2 184.2,129.2 198.3,129.2 198.3,113.6 184.2,113.6 			"/>
			<polygon class="st2" points="159.3,97.6 157.1,97.6 157.1,99.1 152.4,99.1 151.4,101.3 157.1,101.3 157.1,102.8 159.3,102.8 			
				"/>
			<polygon class="st2" points="184.2,92.4 167,92.4 159.3,94.6 159.3,105.8 167,108 184.2,108 198.3,108 198.3,92.4 			"/>
			<polygon class="st2" points="159.1,77.1 157.1,77.1 157.1,78.6 152.4,78.6 151.4,80.7 157.1,80.7 157.1,82.2 159.1,82.2 
				159.1,84.9 166.8,87.1 184.2,87.1 198.1,87.1 198.1,71.5 184.2,71.5 166.8,71.5 159.1,73.7 			"/>
			<polygon class="st2" points="69.9,68.6 69.9,63.9 71.4,63.9 71.4,61.7 66.2,61.7 66.2,63.9 67.7,63.9 67.7,69.6 			"/>
			<polygon class="st2" points="74.4,61.7 76.6,54 76.6,37.6 76.6,22.6 61,22.6 61,37.6 61,54 63.2,61.7 			"/>
			<polygon class="st2" points="91.1,68.6 91.1,63.9 92.6,63.9 92.6,61.7 87.5,61.7 87.5,63.9 89,63.9 89,69.6 			"/>
			<polygon class="st2" points="95.7,61.7 97.9,54 97.9,37.6 97.9,22.6 82.3,22.6 82.3,37.6 82.3,54 84.5,61.7 			"/>
			<polygon class="st2" points="112.3,68.6 112.3,63.9 113.8,63.9 113.8,61.7 108.7,61.7 108.7,63.9 110.2,63.9 110.2,69.6 			"/>
			<polygon class="st2" points="116.8,61.7 119,54 119,37.6 119,22.6 103.4,22.6 103.4,37.6 103.4,54 105.7,61.7 			"/>
			<polygon class="st2" points="129.2,61.9 129.2,63.9 130.7,63.9 130.7,69.6 132.9,68.6 132.9,63.9 134.4,63.9 134.4,61.9 
				137.7,61.9 139.9,54.2 139.9,37.6 139.9,22.9 124.4,22.9 124.4,37.6 124.4,54.2 126.6,61.9 			"/>
			<polygon class="st2" points="154.1,68.6 154.1,63.9 155.6,63.9 155.6,61.7 150.4,61.7 150.4,63.9 151.9,63.9 151.9,69.6 			"/>
			<polygon class="st2" points="158.6,61.7 160.8,54 160.8,37.6 160.8,22.6 145.2,22.6 145.2,37.6 145.2,54 147.4,61.7 			"/>
			<polygon class="st2" points="67.8,153.7 66.3,153.7 66.3,156 71.5,156 71.5,153.7 70,153.7 70,149.1 67.8,148.1 			"/>
			<polygon class="st2" points="63.3,156 61.1,163.7 61.1,180.5 61.1,186.1 61.1,194.7 61.1,195 76.7,195 76.7,194.7 76.7,186.1 
				76.7,180.5 76.7,163.7 74.5,156 			"/>
			<polygon class="st2" points="92.7,153.7 91.2,153.7 91.2,149.1 89.1,148.1 89.1,153.7 87.6,153.7 87.6,156 92.7,156 			"/>
			<polygon class="st2" points="84.6,156 82.4,163.7 82.4,180.5 82.4,186.1 82.4,194.7 82.4,195 98,195 98,194.7 98,186.1 98,180.5 
				98,163.7 95.7,156 			"/>
			<polygon class="st2" points="113.9,153.7 112.4,153.7 112.4,149.1 110.3,148.1 110.3,153.7 108.8,153.7 108.8,156 113.9,156 			
				"/>
			<polygon class="st2" points="105.8,156 103.5,163.7 103.5,180.5 103.5,186.1 103.5,194.7 103.5,195 119.1,195 119.1,194.7 
				119.1,186.1 119.1,180.5 119.1,163.7 116.9,156 			"/>
			<polygon class="st2" points="137.8,155.7 134.5,155.7 134.5,153.7 133,153.7 133,149.1 130.8,148.1 130.8,153.7 129.3,153.7 
				129.3,155.7 126.7,155.7 124.4,163.5 124.4,180.5 124.4,186.1 124.4,194.7 124.4,194.8 140,194.8 140,194.7 140,180.5 140,163.5 
				137.8,155.7 			"/>
			<polygon class="st2" points="155.7,153.7 154.2,153.7 154.2,149.1 152,148.1 152,153.7 150.5,153.7 150.5,156 155.7,156 			"/>
			<polygon class="st2" points="147.5,156 146.4,160.1 145.3,163.7 145.3,180.5 145.3,194.7 145.3,195 160.9,195 160.9,180.5 
				160.9,163.7 158.7,156 			"/>
		</g>
	</g>
	<path id="Path_1932_9_" class="st3" d="M208.4,2.9c4.8,0,8.7,3.9,8.7,8.7v196.8c0,4.8-3.9,8.7-8.7,8.7H11.6c-4.8,0-8.7-3.9-8.7-8.7
		V11.6c0-4.8,3.9-8.7,8.7-8.7l0,0H208.4 M208.4,0H11.6C5.2,0,0,5.2,0,11.6v196.8c0,6.4,5.2,11.6,11.6,11.6h196.8
		c6.4,0,11.6-5.2,11.6-11.6V11.6C220,5.2,214.8,0,208.4,0z"/>
</g>
</svg>
