<?xml version="1.0" encoding="utf-8"?>
<!-- Generator: Adobe Illustrator 25.2.3, SVG Export Plug-In . SVG Version: 6.00 Build 0)  -->
<svg version="1.1" id="LMC650_StepIn_Out"
	 xmlns="http://www.w3.org/2000/svg" xmlns:xlink="http://www.w3.org/1999/xlink" x="0px" y="0px" viewBox="0 0 220 220"
	 style="enable-background:new 0 0 220 220;" xml:space="preserve">
<style type="text/css">
	.st0{display:none;}
	.st1{display:inline;fill:#005140;}
	.st2{display:inline;fill:#246047;}
	.st3{display:inline;fill:#4A7E68;}
	.st4{fill:#005140;}
	.st5{fill:#4A7E68;}
	.st6{display:none;fill:#4A7E68;}
	.st7{fill:#246047;}
	.st8{fill:#686868;}
</style>
<g class="st0">
	<path class="st1" d="M103.8,44.1H90.5V30.6h6.8v-4.9H64.2v39.7h39.7V44.1z M97,56.5C97,56.5,97,56.5,97,56.5H71
		c-1.4,0-2.6-1.2-2.6-2.6c0-1.4,1.2-2.6,2.6-2.6H97c1.4,0,2.6,1.2,2.6,2.6C99.6,55.3,98.4,56.5,97,56.5z"/>
	<polygon class="st2" points="155.8,71.2 155.8,81.1 117.2,81.1 117.2,71.2 50,71.2 50,91 170,91 170,71.2 	"/>
	<polygon class="st2" points="117.2,44.1 123.8,44.1 123.8,30.6 117.2,30.6 117.1,30.6 117.1,2.9 97.2,2.9 97.2,25.7 97.2,30.6 
		90.5,30.6 90.5,44.1 103.8,44.1 	"/>
	<polygon class="st3" points="155.8,71.2 155.8,2.9 117.2,2.9 117.2,30.6 123.8,30.6 123.8,44.1 117.2,44.1 117.2,71.2 117.2,81.1 
		155.8,81.1 	"/>
</g>
<g>
	<g>
		<rect x="2.9" y="103.2" class="st4" width="214.2" height="23.1"/>
	</g>
	<g>
		<path class="st5" d="M208.3,159.9l0.1-13.7l-11.5-0.1l-0.1,13.7h-49.9l0.1-13.7l-11.5-0.1l-0.1,13.7H85.4l0.1-13.7L74,146.1
			l-0.1,13.7H24l0.1-13.7l-11.5-0.1l-0.1,13.7H2.9v48.6c0,4.8,3.9,8.7,8.7,8.7h196.8c4.8,0,8.7-3.9,8.7-8.7v-48.6H208.3z"/>
		<path class="st6" d="M71,56.5H97c0,0,0,0,0,0c1.4,0,2.6-1.2,2.6-2.6c0-1.4-1.2-2.6-2.6-2.6H71c-1.4,0-2.6,1.2-2.6,2.6
			C68.4,55.3,69.6,56.5,71,56.5z"/>
	</g>
</g>
<g id="Group_49_2_">
	<path id="Rectangle_32_2_" class="st7" d="M29.8,72.9h115.4v8.6l45,0l0,8.7H29.8V72.9z"/>
	<rect id="Rectangle_33_2_" x="77.9" y="2.9" class="st7" width="33.7" height="70"/>
	<rect id="Rectangle_34_2_" x="71" y="4.5" class="st5" width="47.5" height="34.1"/>
	<rect id="Rectangle_35_2_" x="71" y="21.5" class="st5" width="47.5" height="34.1"/>
	<g id="Group_48_2_" transform="translate(10.94 32.772)">
		<path id="Path_104_2_" class="st4" d="M83.8,22.8H49.2v34.6h69.3V22.8H83.8z"/>
		<path id="Path_105_2_" class="st4" d="M118.4,59.3H49.2c-1,0-1.9-0.8-1.9-1.9l0,0V22.8c0-1,0.8-1.9,1.9-1.9h69.3
			c1,0,1.9,0.8,1.9,1.9c0,0,0,0,0,0l0,0v34.6C120.3,58.5,119.5,59.3,118.4,59.3z M51,55.6h65.5V24.7H51V55.6z"/>
		<path id="Path_106_2_" class="st5" d="M47.3,24.7v-1.9c0-1,0.8-1.9,1.9-1.9h69.3c1,0,1.9,0.8,1.9,1.9c0,0,0,0,0,0l0,0v1.9
			L47.3,24.7z"/>
	</g>
	<circle id="Ellipse_4_2_" class="st4" cx="94.7" cy="34" r="11.2"/>
</g>
<path id="Path_1932" class="st8" d="M208.4,2.9c4.8,0,8.7,3.9,8.7,8.7v196.8c0,4.8-3.9,8.7-8.7,8.7H11.6c-4.8,0-8.7-3.9-8.7-8.7
	V11.6c0-4.8,3.9-8.7,8.7-8.7l0,0H208.4 M208.4,0H11.6C5.2,0,0,5.2,0,11.6v196.8c0,6.4,5.2,11.6,11.6,11.6h196.8
	c6.4,0,11.6-5.2,11.6-11.6V11.6C220,5.2,214.8,0,208.4,0z"/>
</svg>
